<svg width="73" height="73" viewBox="0 0 73 73" fill="none" xmlns="http://www.w3.org/2000/svg">
<g clip-path="url(#clip0_4334_274)">
<path d="M37.1756 67.1982C36.9335 67.1982 36.7216 66.9964 36.7216 66.7543L35.2891 6.71797C35.2891 6.45568 35.4908 6.25391 35.733 6.25391C36.0053 6.25391 36.197 6.44559 36.197 6.6978L37.6296 66.7341C37.6296 66.9964 37.4379 67.1982 37.1857 67.1982H37.1756Z" fill="url(#paint0_linear_4334_274)"/>
<path d="M5.98279 37.8825C5.73058 37.8825 5.52881 37.6808 5.52881 37.4386C5.52881 37.1763 5.73058 36.9746 5.9727 36.9746L66.9372 35.5723C67.1894 35.5723 67.4013 35.7639 67.4013 36.0162C67.4013 36.2785 67.1995 36.4802 66.9574 36.4802L5.99288 37.8825H5.98279Z" fill="url(#paint1_linear_4334_274)"/>
<path d="M58.5232 57.9081C58.4123 57.9081 58.3013 57.8678 58.2105 57.7871L14.0836 16.3236C13.9928 16.2328 13.9424 16.1117 13.9424 15.9906C13.9424 15.8797 13.9827 15.7687 14.0634 15.6779C14.2349 15.4963 14.5275 15.4862 14.7091 15.6577L58.836 57.1212C58.9268 57.212 58.9772 57.3331 58.9772 57.4542C58.9772 57.5651 58.9369 57.6761 58.8561 57.7669C58.7654 57.8678 58.6443 57.9081 58.5232 57.9081Z" fill="url(#paint2_linear_4334_274)"/>
<path d="M15.4154 58.8965C15.3044 58.8965 15.1834 58.8561 15.1027 58.7654C15.0119 58.6746 14.9614 58.5535 14.9614 58.4425C14.9614 58.3315 15.0018 58.2105 15.0926 58.1197L57.1816 14.6889C57.3531 14.5073 57.6456 14.5073 57.8272 14.6889C57.918 14.7797 57.9685 14.9008 57.9685 15.0118C57.9685 15.1227 57.9281 15.2438 57.8373 15.3346L15.7483 58.7553C15.6575 58.8461 15.5365 58.8965 15.4154 58.8965Z" fill="url(#paint3_linear_4334_274)"/>
<path d="M32.3539 27.1175C32.1017 27.1175 31.8999 26.9158 31.8999 26.6736C31.8999 26.4114 32.1017 26.2096 32.3438 26.2096L40.9291 26.0078C41.1712 26.0078 41.3931 26.1995 41.3931 26.4517C41.3931 26.714 41.1914 26.9158 40.9492 26.9158L32.364 27.1175H32.3539Z" fill="url(#paint4_linear_4334_274)"/>
<path d="M27.8241 17.0703C27.5719 17.0703 27.3701 16.8685 27.3701 16.6264C27.3701 16.3641 27.5719 16.1623 27.814 16.1623L44.127 15.7891C44.3792 15.8092 44.5911 15.9807 44.5911 16.233C44.5911 16.4953 44.3893 16.697 44.1472 16.697L27.8342 17.0703H27.8241Z" fill="url(#paint5_linear_4334_274)"/>
<path d="M47.0928 32.7058C46.9818 32.7058 46.8708 32.6654 46.7801 32.5847L40.6261 26.804C40.5353 26.7132 40.4849 26.5922 40.4849 26.4711C40.4849 26.3601 40.5252 26.2492 40.6059 26.1584C40.7774 25.9768 41.07 25.9667 41.2516 26.1382L47.4055 31.9189C47.4963 32.0097 47.5468 32.1307 47.5468 32.2518C47.5468 32.3628 47.5064 32.4737 47.4257 32.5645C47.3349 32.6654 47.2139 32.7058 47.0928 32.7058Z" fill="url(#paint6_linear_4334_274)"/>
<path d="M56.4347 28.2579C56.3238 28.2579 56.2128 28.2176 56.122 28.1369L43.8141 16.5755C43.7233 16.4847 43.6729 16.3637 43.6729 16.2426C43.6729 16.1316 43.7132 16.0206 43.7939 15.9299C43.9654 15.7483 44.258 15.7382 44.4396 15.9097L56.7475 27.471C56.8383 27.5618 56.8887 27.6829 56.8887 27.804C56.8887 27.9149 56.8484 28.0259 56.7677 28.1167C56.6769 28.2075 56.5558 28.2579 56.4347 28.2579Z" fill="url(#paint7_linear_4334_274)"/>
<path d="M47.2944 41.1604C47.0523 41.1604 46.8404 40.9586 46.8404 40.7165L46.6387 32.7063C46.6387 32.444 46.8404 32.2422 47.0826 32.2422H47.0927C47.3348 32.2422 47.5466 32.444 47.5466 32.6861L47.7484 40.6963C47.7484 40.9586 47.5466 41.1604 47.3045 41.1604H47.2944Z" fill="url(#paint8_linear_4334_274)"/>
<path d="M56.8281 44.3281C56.5859 44.3281 56.3741 44.1264 56.3741 43.8843L55.9907 27.8234C55.9907 27.5611 56.1824 27.3594 56.4346 27.3594C56.6767 27.3594 56.8987 27.5511 56.8987 27.8033L57.282 43.8641C57.282 44.1264 57.0803 44.3281 56.8382 44.3281H56.8281Z" fill="url(#paint9_linear_4334_274)"/>
<path d="M41.5136 47.4451C41.4026 47.4451 41.2916 47.4048 41.2008 47.314C41.11 47.2232 41.0596 47.1021 41.0596 46.9811C41.0596 46.86 41.0999 46.749 41.1907 46.6481L46.9815 40.3933C47.153 40.2117 47.4355 40.2016 47.6171 40.3832C47.7079 40.474 47.7583 40.5951 47.7583 40.7262C47.7583 40.8574 47.7179 40.9583 47.6271 41.0591L41.8364 47.314C41.7456 47.4048 41.6346 47.4552 41.5136 47.4552V47.4451Z" fill="url(#paint10_linear_4334_274)"/>
<path d="M45.1058 57.2829C44.9949 57.2829 44.8839 57.2425 44.8032 57.1618C44.7023 57.071 44.6519 56.95 44.6519 56.8188C44.6519 56.7078 44.6922 56.5969 44.7729 56.5162L56.4957 43.5525C56.6672 43.3709 56.9497 43.3507 57.1414 43.5222C57.2422 43.613 57.2927 43.7341 57.2927 43.8653C57.2927 43.9762 57.2523 44.0872 57.1716 44.1679L45.4488 57.1316C45.358 57.2324 45.237 57.2829 45.1058 57.2829Z" fill="url(#paint11_linear_4334_274)"/>
<path d="M29.68 57.6354C29.4177 57.6354 29.2059 57.4336 29.1958 57.1915C29.1958 56.9292 29.4077 56.7274 29.67 56.7274L45.1355 56.3945C45.418 56.3945 45.6198 56.5862 45.6299 56.8384C45.6299 57.1007 45.418 57.3025 45.1557 57.3025L29.6901 57.6354H29.68Z" fill="url(#paint12_linear_4334_274)"/>
<path d="M32.8379 47.4148C32.7269 47.4148 32.616 47.3744 32.5252 47.2937L26.3712 41.513C26.2804 41.4222 26.23 41.3012 26.23 41.1801C26.23 41.0691 26.2703 40.9581 26.351 40.8673C26.5225 40.6858 26.8151 40.6757 26.9967 40.8472L33.1507 46.6279C33.2415 46.7187 33.2919 46.8397 33.2919 46.9608C33.2919 47.0717 33.2515 47.1827 33.1708 47.2735C33.08 47.3643 32.959 47.4148 32.8379 47.4148Z" fill="url(#paint13_linear_4334_274)"/>
<path d="M29.6503 57.636C29.5393 57.636 29.4284 57.5956 29.3376 57.5149L16.152 45.1263C16.0612 45.0355 16.0107 44.9144 16.0107 44.7934C16.0107 44.6824 16.0511 44.5714 16.1318 44.4806C16.3033 44.299 16.5959 44.289 16.7775 44.4605L29.9631 56.8491C30.0539 56.9399 30.1043 57.0609 30.1043 57.182C30.1043 57.293 30.0639 57.4039 29.9832 57.4947C29.8924 57.5956 29.7714 57.636 29.6503 57.636Z" fill="url(#paint14_linear_4334_274)"/>
<path d="M26.6836 41.1819C26.4415 41.1819 26.2296 40.9801 26.2296 40.738L26.0278 32.7277C26.0278 32.4654 26.2195 32.2637 26.4717 32.2637H26.4818C26.7239 32.2637 26.9358 32.4654 26.9358 32.7076L27.1376 40.7178C27.1376 40.9801 26.9358 41.1819 26.6937 41.1819H26.6836Z" fill="url(#paint15_linear_4334_274)"/>
<path d="M16.4646 45.2467C16.2225 45.2467 16.0106 45.0449 16.0106 44.8028L15.6475 29.5793C15.6475 29.317 15.8492 29.1152 16.0914 29.1152C16.3537 29.1253 16.5554 29.3069 16.5554 29.5591L16.9186 44.7826C16.9186 45.0449 16.7168 45.2467 16.4747 45.2467H16.4646Z" fill="url(#paint16_linear_4334_274)"/>
<path d="M26.4818 33.1809C26.3708 33.1809 26.2498 33.1406 26.1691 33.0498C26.0783 32.959 26.0278 32.8379 26.0278 32.7269C26.0278 32.616 26.0682 32.4949 26.159 32.4041L32.0305 26.351C32.202 26.1694 32.4945 26.1694 32.6761 26.351C32.7669 26.4418 32.8174 26.5629 32.8174 26.6739C32.8174 26.7848 32.777 26.9059 32.6862 26.9967L26.8147 33.0498C26.7239 33.1406 26.6029 33.191 26.4818 33.191V33.1809Z" fill="url(#paint17_linear_4334_274)"/>
<path d="M16.1014 30.0329C15.9905 30.0329 15.8795 29.9925 15.7988 29.9118C15.6979 29.821 15.6475 29.7 15.6475 29.5688C15.6475 29.4578 15.6878 29.3469 15.7685 29.2662L27.4913 16.3025C27.6628 16.1209 27.9453 16.1007 28.137 16.2722C28.2378 16.363 28.2883 16.4841 28.2883 16.6153C28.2883 16.7262 28.2479 16.8372 28.1672 16.9179L16.4444 29.8816C16.3537 29.9824 16.2326 30.0329 16.1014 30.0329Z" fill="url(#paint18_linear_4334_274)"/>
<path d="M69.802 39.234C68.0366 39.234 66.604 37.8014 66.604 36.0359C66.604 34.2705 68.0366 32.8379 69.802 32.8379C71.5675 32.8379 73.0001 34.2705 73.0001 36.0359C73.0001 37.8014 71.5675 39.234 69.802 39.234ZM69.802 33.766C68.541 33.766 67.5221 34.785 67.5221 36.046C67.5221 37.3071 68.541 38.326 69.802 38.326C71.0631 38.326 72.082 37.3071 72.082 36.046C72.082 34.785 71.0631 33.766 69.802 33.766Z" fill="url(#paint19_linear_4334_274)"/>
<path d="M3.19804 41.0601C1.43256 41.0601 0 39.6276 0 37.8621C0 36.0966 1.43256 34.6641 3.19804 34.6641C4.96352 34.6641 6.39608 36.0966 6.39608 37.8621C6.39608 39.6276 4.96352 41.0601 3.19804 41.0601ZM3.19804 35.5922C1.93698 35.5922 0.918049 36.6111 0.918049 37.8722C0.918049 39.1332 1.93698 40.1522 3.19804 40.1522C4.45909 40.1522 5.47803 39.1332 5.47803 37.8722C5.47803 36.6111 4.45909 35.5922 3.19804 35.5922Z" fill="url(#paint20_linear_4334_274)"/>
<path d="M13.2361 63.8707C11.4706 63.8707 10.0381 62.4381 10.0381 60.6726C10.0381 58.9072 11.4706 57.4746 13.2361 57.4746C15.0016 57.4746 16.4342 58.9072 16.4342 60.6726C16.4342 62.4381 15.0016 63.8707 13.2361 63.8707ZM13.2361 58.4027C11.9751 58.4027 10.9561 59.4217 10.9561 60.6827C10.9561 61.9438 11.9751 62.9627 13.2361 62.9627C14.4972 62.9627 15.5161 61.9438 15.5161 60.6827C15.5161 59.4217 14.4972 58.4027 13.2361 58.4027Z" fill="url(#paint21_linear_4334_274)"/>
<path d="M36.9544 72.9996C35.1889 72.9996 33.7563 71.567 33.7563 69.8016C33.7563 68.0361 35.1889 66.6035 36.9544 66.6035C38.7199 66.6035 40.1524 68.0361 40.1524 69.8016C40.1524 71.567 38.7199 72.9996 36.9544 72.9996ZM36.9544 67.5216C35.6933 67.5216 34.6744 68.5405 34.6744 69.8016C34.6744 71.0626 35.6933 72.0815 36.9544 72.0815C38.2154 72.0815 39.2344 71.0626 39.2344 69.8016C39.2344 68.5405 38.2154 67.5216 36.9544 67.5216Z" fill="url(#paint22_linear_4334_274)"/>
<path d="M36.0462 6.38631C34.2807 6.38631 32.8481 4.95375 32.8481 3.18827C32.8481 1.42279 34.2807 -0.00976562 36.0462 -0.00976562C37.8117 -0.00976562 39.2442 1.42279 39.2442 3.18827C39.2442 4.95375 37.8117 6.38631 36.0462 6.38631ZM36.0462 0.908283C34.7851 0.908283 33.7662 1.92722 33.7662 3.18827C33.7662 4.44933 34.7851 5.46826 36.0462 5.46826C37.3072 5.46826 38.3262 4.44933 38.3262 3.18827C38.3262 1.92722 37.3072 0.908283 36.0462 0.908283Z" fill="url(#paint23_linear_4334_274)"/>
<path d="M58.8558 15.5152C57.0903 15.5152 55.6577 14.0827 55.6577 12.3172C55.6577 10.5517 57.0903 9.11914 58.8558 9.11914C60.6212 9.11914 62.0538 10.5517 62.0538 12.3172C62.0538 14.0827 60.6212 15.5152 58.8558 15.5152ZM58.8558 10.0372C57.5947 10.0372 56.5758 11.0561 56.5758 12.3172C56.5758 13.5782 57.5947 14.5972 58.8558 14.5972C60.1168 14.5972 61.1357 13.5782 61.1357 12.3172C61.1357 11.0561 60.1168 10.0372 58.8558 10.0372Z" fill="url(#paint24_linear_4334_274)"/>
<path d="M12.3182 17.3414C10.5527 17.3414 9.12012 15.9088 9.12012 14.1434C9.12012 12.3779 10.5527 10.9453 12.3182 10.9453C14.0836 10.9453 15.5162 12.3779 15.5162 14.1434C15.5162 15.9088 14.0836 17.3414 12.3182 17.3414ZM12.3182 11.8634C11.0571 11.8634 10.0382 12.8823 10.0382 14.1434C10.0382 15.4044 11.0571 16.4233 12.3182 16.4233C13.5792 16.4233 14.5981 15.4044 14.5981 14.1434C14.5981 12.8823 13.5792 11.8634 12.3182 11.8634Z" fill="url(#paint25_linear_4334_274)"/>
<path d="M60.6819 62.9625C58.9164 62.9625 57.4839 61.5299 57.4839 59.7644C57.4839 57.999 58.9164 56.5664 60.6819 56.5664C62.4474 56.5664 63.88 57.999 63.88 59.7644C63.88 61.5299 62.4474 62.9625 60.6819 62.9625ZM60.6819 57.4845C59.4209 57.4845 58.4019 58.5034 58.4019 59.7644C58.4019 61.0255 59.4209 62.0444 60.6819 62.0444C61.943 62.0444 62.9619 61.0255 62.9619 59.7644C62.9619 58.5034 61.943 57.4845 60.6819 57.4845Z" fill="url(#paint26_linear_4334_274)"/>
<path d="M41.4943 47.4451H32.8687C32.6064 47.4451 32.3945 47.2433 32.3945 46.9911C32.3945 46.7389 32.6064 46.5371 32.8687 46.5371H41.4943C41.7566 46.5371 41.9685 46.7389 41.9685 46.9911C41.9685 47.2433 41.7566 47.4451 41.4943 47.4451Z" fill="url(#paint27_linear_4334_274)"/>
<path d="M40.808 61.2974C40.6667 61.2974 40.5255 61.247 40.4145 61.136L37.0954 57.8169C36.8836 57.605 36.8836 57.2519 37.0954 57.03C37.3073 56.8181 37.6604 56.8181 37.8823 57.03L41.2014 60.3491C41.4133 60.5609 41.4133 60.914 41.2014 61.136C41.0904 61.247 40.9492 61.2974 40.808 61.2974Z" fill="url(#paint28_linear_4334_274)"/>
<path d="M33.0597 61.2967C32.9084 61.2967 32.7672 61.2362 32.6562 61.1252C32.4443 60.9032 32.4544 60.5502 32.6764 60.3383L36.7017 56.5551C36.9236 56.3433 37.2767 56.3534 37.4785 56.5753C37.6903 56.7973 37.6803 57.1503 37.4583 57.3622L33.433 61.1454C33.3321 61.2463 33.1909 61.2967 33.0597 61.2967Z" fill="url(#paint29_linear_4334_274)"/>
<path d="M51.7639 51.3799C51.4612 51.3799 51.2191 51.1478 51.209 50.8452C51.209 50.5425 51.441 50.2802 51.7437 50.2701L56.4348 50.1289H56.455C56.7576 50.1289 56.9998 50.3609 57.0098 50.6636C57.0098 50.9662 56.7778 51.2285 56.4752 51.2386L51.784 51.3799H51.7639Z" fill="url(#paint30_linear_4334_274)"/>
<path d="M51.1589 56.8882C50.8562 56.8882 50.604 56.636 50.604 56.3333V50.8049C50.604 50.5022 50.8562 50.25 51.1589 50.25C51.4615 50.25 51.7137 50.5022 51.7137 50.8049V56.3333C51.7137 56.636 51.4615 56.8882 51.1589 56.8882Z" fill="url(#paint31_linear_4334_274)"/>
<path d="M22.5074 56.3045H22.4872C22.1845 56.2944 21.9424 56.0321 21.9626 55.7294L22.1442 51.6234C22.1543 51.3208 22.3661 51.0787 22.7192 51.0988C23.0219 51.1089 23.264 51.3712 23.2438 51.6739L23.0622 55.7799C23.0522 56.0724 22.81 56.3045 22.5074 56.3045Z" fill="url(#paint32_linear_4334_274)"/>
<path d="M22.7294 51.583C22.7294 51.583 22.7194 51.583 22.7093 51.583L17.7054 51.3812C17.4027 51.3711 17.1606 51.1088 17.1707 50.8062C17.1808 50.5035 17.4532 50.2715 17.7458 50.2715L22.7496 50.4733C23.0523 50.4833 23.2944 50.7456 23.2843 51.0483C23.2742 51.3509 23.022 51.583 22.7294 51.583Z" fill="url(#paint33_linear_4334_274)"/>
<path d="M13.3772 41.5854C13.2562 41.5854 13.1452 41.5451 13.0443 41.4744C12.8022 41.2928 12.7518 40.9397 12.9334 40.6976L15.7682 36.9447C15.9498 36.7026 16.3029 36.6522 16.545 36.8337C16.7871 37.0153 16.8376 37.3684 16.656 37.6106L13.8211 41.3635C13.7102 41.5047 13.5488 41.5854 13.3772 41.5854Z" fill="url(#paint34_linear_4334_274)"/>
<path d="M15.8492 37.3583C15.7079 37.3583 15.5566 37.2977 15.4456 37.1868L11.9853 33.5549C11.7734 33.333 11.7835 32.9799 12.0055 32.768C12.2274 32.5562 12.5805 32.5663 12.7924 32.7882L16.2527 36.42C16.4646 36.642 16.4545 36.9951 16.2325 37.2069C16.1216 37.3078 15.9904 37.3583 15.8492 37.3583Z" fill="url(#paint35_linear_4334_274)"/>
<path d="M16.4438 23.6571C16.1613 23.6571 15.9091 23.4352 15.8889 23.1426C15.8687 22.84 16.1008 22.5676 16.4034 22.5474L21.9924 22.1439C22.2648 22.1237 22.5574 22.3456 22.5876 22.6584C22.6078 22.961 22.3758 23.2334 22.0731 23.2536L16.4841 23.6571C16.4841 23.6571 16.4539 23.6571 16.4438 23.6571Z" fill="url(#paint36_linear_4334_274)"/>
<path d="M21.8114 23.0513C21.8114 23.0513 21.7912 23.0513 21.7811 23.0513C21.4785 23.0412 21.2364 22.7789 21.2565 22.4763L21.4987 17.4724C21.5188 17.1697 21.7408 16.9175 22.0737 16.9478C22.3764 16.968 22.6185 17.2202 22.5983 17.5329L22.3562 22.5368C22.3461 22.8293 22.0939 23.0614 21.8013 23.0614L21.8114 23.0513Z" fill="url(#paint37_linear_4334_274)"/>
<path d="M36.1876 16.7662C36.0665 16.7662 35.9353 16.7259 35.8345 16.6351L31.5368 13.0436C31.3047 12.8519 31.2745 12.4988 31.4662 12.2668C31.6679 12.0347 32.0109 12.0045 32.243 12.1961L36.5407 15.7876C36.7727 15.9793 36.803 16.3324 36.6113 16.5644C36.5003 16.6956 36.349 16.7662 36.1876 16.7662Z" fill="url(#paint38_linear_4334_274)"/>
<path d="M36.1669 16.464C36.0155 16.464 35.8743 16.4034 35.7633 16.2925C35.5515 16.0705 35.5716 15.7174 35.7936 15.5056L39.4557 12.0755C39.6776 11.8636 40.0307 11.8737 40.2426 12.1058C40.4545 12.3277 40.4444 12.6808 40.2123 12.8927L36.5502 16.3227C36.4393 16.4236 36.3081 16.4741 36.177 16.4741L36.1669 16.464Z" fill="url(#paint39_linear_4334_274)"/>
<path d="M57.2415 36.9936C57.1305 36.9936 57.0095 36.9533 56.9086 36.8827C56.6665 36.7011 56.616 36.348 56.7976 36.1058L60.4698 31.1928C60.6514 30.9506 60.9944 30.9002 61.2466 31.0818C61.4887 31.2634 61.5392 31.6165 61.3576 31.8586L57.6854 36.7717C57.5744 36.9129 57.413 36.9936 57.2415 36.9936Z" fill="url(#paint40_linear_4334_274)"/>
<path d="M60.9044 41.2827C60.743 41.2827 60.5815 41.212 60.4706 41.0708L57.101 36.763C56.9094 36.5209 56.9598 36.1779 57.2019 35.9862C57.444 35.7945 57.7871 35.8349 57.9787 36.077L61.3483 40.3848C61.54 40.6269 61.4895 40.9699 61.2474 41.1616C61.1465 41.2423 61.0254 41.2827 60.9044 41.2827Z" fill="url(#paint41_linear_4334_274)"/>
<path d="M50.7651 22.5486C50.5129 22.5486 50.2809 22.367 50.2204 22.1047L49.1611 17.0907C49.1005 16.7881 49.2922 16.4955 49.5848 16.435C49.8874 16.3745 50.18 16.5661 50.2405 16.8587L51.2998 21.8727C51.3604 22.1753 51.1687 22.4679 50.8761 22.5284C50.8358 22.5284 50.7954 22.5385 50.7651 22.5385V22.5486Z" fill="url(#paint42_linear_4334_274)"/>
<path d="M55.5065 22.9622L50.4925 22.8815C50.1899 22.8815 49.9478 22.6192 49.9478 22.3166C49.9478 22.0139 50.2605 21.7617 50.5127 21.7718L55.5267 21.8525C55.8293 21.8525 56.0714 22.1148 56.0714 22.4174C56.0714 22.7201 55.8192 22.9622 55.5166 22.9622H55.5065Z" fill="url(#paint43_linear_4334_274)"/>
</g>
<defs>
<linearGradient id="paint0_linear_4334_274" x1="35.3434" y1="8.4536" x2="38.5223" y2="8.50454" gradientUnits="userSpaceOnUse">
<stop stop-color="#45D0BD"/>
<stop offset="1" stop-color="#44B6E9"/>
</linearGradient>
<linearGradient id="paint1_linear_4334_274" x1="6.96574" y1="35.6557" x2="7.63331" y2="43.1167" gradientUnits="userSpaceOnUse">
<stop stop-color="#45D0BD"/>
<stop offset="1" stop-color="#44B6E9"/>
</linearGradient>
<linearGradient id="paint2_linear_4334_274" x1="14.9883" y1="17.0645" x2="66.1126" y2="39.7399" gradientUnits="userSpaceOnUse">
<stop stop-color="#45D0BD"/>
<stop offset="1" stop-color="#44B6E9"/>
</linearGradient>
<linearGradient id="paint3_linear_4334_274" x1="15.9602" y1="16.1533" x2="66.1631" y2="36.4723" gradientUnits="userSpaceOnUse">
<stop stop-color="#45D0BD"/>
<stop offset="1" stop-color="#44B6E9"/>
</linearGradient>
<linearGradient id="paint4_linear_4334_274" x1="32.1204" y1="26.0479" x2="33.0587" y2="29.3976" gradientUnits="userSpaceOnUse">
<stop stop-color="#45D0BD"/>
<stop offset="1" stop-color="#44B6E9"/>
</linearGradient>
<linearGradient id="paint5_linear_4334_274" x1="27.7701" y1="15.8353" x2="28.4907" y2="19.8778" gradientUnits="userSpaceOnUse">
<stop stop-color="#45D0BD"/>
<stop offset="1" stop-color="#44B6E9"/>
</linearGradient>
<linearGradient id="paint6_linear_4334_274" x1="40.6489" y1="26.2571" x2="48.6836" y2="29.7965" gradientUnits="userSpaceOnUse">
<stop stop-color="#45D0BD"/>
<stop offset="1" stop-color="#44B6E9"/>
</linearGradient>
<linearGradient id="paint7_linear_4334_274" x1="43.9798" y1="16.2372" x2="58.9969" y2="22.8786" gradientUnits="userSpaceOnUse">
<stop stop-color="#45D0BD"/>
<stop offset="1" stop-color="#44B6E9"/>
</linearGradient>
<linearGradient id="paint8_linear_4334_274" x1="46.6644" y1="32.5641" x2="48.168" y2="32.6422" gradientUnits="userSpaceOnUse">
<stop stop-color="#45D0BD"/>
<stop offset="1" stop-color="#44B6E9"/>
</linearGradient>
<linearGradient id="paint9_linear_4334_274" x1="56.0207" y1="27.9718" x2="57.7733" y2="28.0275" gradientUnits="userSpaceOnUse">
<stop stop-color="#45D0BD"/>
<stop offset="1" stop-color="#44B6E9"/>
</linearGradient>
<linearGradient id="paint10_linear_4334_274" x1="41.2151" y1="40.5119" x2="49.1244" y2="43.5814" gradientUnits="userSpaceOnUse">
<stop stop-color="#45D0BD"/>
<stop offset="1" stop-color="#44B6E9"/>
</linearGradient>
<linearGradient id="paint11_linear_4334_274" x1="44.9454" y1="43.9052" x2="59.9506" y2="49.6087" gradientUnits="userSpaceOnUse">
<stop stop-color="#45D0BD"/>
<stop offset="1" stop-color="#44B6E9"/>
</linearGradient>
<linearGradient id="paint12_linear_4334_274" x1="29.5775" y1="56.4393" x2="30.2852" y2="60.3508" gradientUnits="userSpaceOnUse">
<stop stop-color="#45D0BD"/>
<stop offset="1" stop-color="#44B6E9"/>
</linearGradient>
<linearGradient id="paint13_linear_4334_274" x1="26.394" y1="40.9661" x2="34.4287" y2="44.5055" gradientUnits="userSpaceOnUse">
<stop stop-color="#45D0BD"/>
<stop offset="1" stop-color="#44B6E9"/>
</linearGradient>
<linearGradient id="paint14_linear_4334_274" x1="16.3381" y1="44.8179" x2="32.3521" y2="51.9006" gradientUnits="userSpaceOnUse">
<stop stop-color="#45D0BD"/>
<stop offset="1" stop-color="#44B6E9"/>
</linearGradient>
<linearGradient id="paint15_linear_4334_274" x1="26.0536" y1="32.5856" x2="27.5572" y2="32.6636" gradientUnits="userSpaceOnUse">
<stop stop-color="#45D0BD"/>
<stop offset="1" stop-color="#44B6E9"/>
</linearGradient>
<linearGradient id="paint16_linear_4334_274" x1="15.677" y1="29.6975" x2="17.402" y2="29.7542" gradientUnits="userSpaceOnUse">
<stop stop-color="#45D0BD"/>
<stop offset="1" stop-color="#44B6E9"/>
</linearGradient>
<linearGradient id="paint17_linear_4334_274" x1="26.1855" y1="26.4666" x2="34.1032" y2="29.6825" gradientUnits="userSpaceOnUse">
<stop stop-color="#45D0BD"/>
<stop offset="1" stop-color="#44B6E9"/>
</linearGradient>
<linearGradient id="paint18_linear_4334_274" x1="15.941" y1="16.6552" x2="30.9462" y2="22.3587" gradientUnits="userSpaceOnUse">
<stop stop-color="#45D0BD"/>
<stop offset="1" stop-color="#44B6E9"/>
</linearGradient>
<linearGradient id="paint19_linear_4334_274" x1="66.7525" y1="33.0687" x2="74.153" y2="36.1571" gradientUnits="userSpaceOnUse">
<stop stop-color="#45D0BD"/>
<stop offset="1" stop-color="#44B6E9"/>
</linearGradient>
<linearGradient id="paint20_linear_4334_274" x1="0.148543" y1="34.8949" x2="7.54904" y2="37.9833" gradientUnits="userSpaceOnUse">
<stop stop-color="#45D0BD"/>
<stop offset="1" stop-color="#44B6E9"/>
</linearGradient>
<linearGradient id="paint21_linear_4334_274" x1="10.1866" y1="57.7055" x2="17.5871" y2="60.7938" gradientUnits="userSpaceOnUse">
<stop stop-color="#45D0BD"/>
<stop offset="1" stop-color="#44B6E9"/>
</linearGradient>
<linearGradient id="paint22_linear_4334_274" x1="33.9049" y1="66.8344" x2="41.3054" y2="69.9227" gradientUnits="userSpaceOnUse">
<stop stop-color="#45D0BD"/>
<stop offset="1" stop-color="#44B6E9"/>
</linearGradient>
<linearGradient id="paint23_linear_4334_274" x1="32.9967" y1="0.221091" x2="40.3972" y2="3.30945" gradientUnits="userSpaceOnUse">
<stop stop-color="#45D0BD"/>
<stop offset="1" stop-color="#44B6E9"/>
</linearGradient>
<linearGradient id="paint24_linear_4334_274" x1="55.8063" y1="9.35" x2="63.2068" y2="12.4384" gradientUnits="userSpaceOnUse">
<stop stop-color="#45D0BD"/>
<stop offset="1" stop-color="#44B6E9"/>
</linearGradient>
<linearGradient id="paint25_linear_4334_274" x1="9.26866" y1="11.1762" x2="16.6692" y2="14.2645" gradientUnits="userSpaceOnUse">
<stop stop-color="#45D0BD"/>
<stop offset="1" stop-color="#44B6E9"/>
</linearGradient>
<linearGradient id="paint26_linear_4334_274" x1="57.6324" y1="56.7973" x2="65.0329" y2="59.8856" gradientUnits="userSpaceOnUse">
<stop stop-color="#45D0BD"/>
<stop offset="1" stop-color="#44B6E9"/>
</linearGradient>
<linearGradient id="paint27_linear_4334_274" x1="32.6169" y1="46.5699" x2="33.2556" y2="49.3805" gradientUnits="userSpaceOnUse">
<stop stop-color="#45D0BD"/>
<stop offset="1" stop-color="#44B6E9"/>
</linearGradient>
<linearGradient id="paint28_linear_4334_274" x1="37.0393" y1="57.0309" x2="42.1586" y2="59.166" gradientUnits="userSpaceOnUse">
<stop stop-color="#45D0BD"/>
<stop offset="1" stop-color="#44B6E9"/>
</linearGradient>
<linearGradient id="paint29_linear_4334_274" x1="32.6225" y1="56.579" x2="38.4709" y2="59.1361" gradientUnits="userSpaceOnUse">
<stop stop-color="#45D0BD"/>
<stop offset="1" stop-color="#44B6E9"/>
</linearGradient>
<linearGradient id="paint30_linear_4334_274" x1="51.3437" y1="50.1741" x2="53.0046" y2="53.3882" gradientUnits="userSpaceOnUse">
<stop stop-color="#45D0BD"/>
<stop offset="1" stop-color="#44B6E9"/>
</linearGradient>
<linearGradient id="paint31_linear_4334_274" x1="50.6298" y1="50.4896" x2="52.1301" y2="50.5943" gradientUnits="userSpaceOnUse">
<stop stop-color="#45D0BD"/>
<stop offset="1" stop-color="#44B6E9"/>
</linearGradient>
<linearGradient id="paint32_linear_4334_274" x1="21.9912" y1="51.2856" x2="23.7168" y2="51.4631" gradientUnits="userSpaceOnUse">
<stop stop-color="#45D0BD"/>
<stop offset="1" stop-color="#44B6E9"/>
</linearGradient>
<linearGradient id="paint33_linear_4334_274" x1="17.3124" y1="50.3188" x2="19.0483" y2="53.696" gradientUnits="userSpaceOnUse">
<stop stop-color="#45D0BD"/>
<stop offset="1" stop-color="#44B6E9"/>
</linearGradient>
<linearGradient id="paint34_linear_4334_274" x1="12.9157" y1="36.9001" x2="17.7197" y2="38.5254" gradientUnits="userSpaceOnUse">
<stop stop-color="#45D0BD"/>
<stop offset="1" stop-color="#44B6E9"/>
</linearGradient>
<linearGradient id="paint35_linear_4334_274" x1="11.9387" y1="32.7864" x2="17.2857" y2="34.9378" gradientUnits="userSpaceOnUse">
<stop stop-color="#45D0BD"/>
<stop offset="1" stop-color="#44B6E9"/>
</linearGradient>
<linearGradient id="paint36_linear_4334_274" x1="16.0433" y1="22.1972" x2="18.108" y2="26.0095" gradientUnits="userSpaceOnUse">
<stop stop-color="#45D0BD"/>
<stop offset="1" stop-color="#44B6E9"/>
</linearGradient>
<linearGradient id="paint37_linear_4334_274" x1="21.2866" y1="17.1661" x2="23.0974" y2="17.3321" gradientUnits="userSpaceOnUse">
<stop stop-color="#45D0BD"/>
<stop offset="1" stop-color="#44B6E9"/>
</linearGradient>
<linearGradient id="paint38_linear_4334_274" x1="31.4657" y1="12.2398" x2="37.4263" y2="15.0986" gradientUnits="userSpaceOnUse">
<stop stop-color="#45D0BD"/>
<stop offset="1" stop-color="#44B6E9"/>
</linearGradient>
<linearGradient id="paint39_linear_4334_274" x1="35.7262" y1="12.0881" x2="41.1725" y2="14.4752" gradientUnits="userSpaceOnUse">
<stop stop-color="#45D0BD"/>
<stop offset="1" stop-color="#44B6E9"/>
</linearGradient>
<linearGradient id="paint40_linear_4334_274" x1="56.7994" y1="31.19" x2="62.6493" y2="33.1273" gradientUnits="userSpaceOnUse">
<stop stop-color="#45D0BD"/>
<stop offset="1" stop-color="#44B6E9"/>
</linearGradient>
<linearGradient id="paint41_linear_4334_274" x1="57.088" y1="36.0608" x2="62.528" y2="37.9388" gradientUnits="userSpaceOnUse">
<stop stop-color="#45D0BD"/>
<stop offset="1" stop-color="#44B6E9"/>
</linearGradient>
<linearGradient id="paint42_linear_4334_274" x1="49.2001" y1="16.6449" x2="52.0737" y2="17.068" gradientUnits="userSpaceOnUse">
<stop stop-color="#45D0BD"/>
<stop offset="1" stop-color="#44B6E9"/>
</linearGradient>
<linearGradient id="paint43_linear_4334_274" x1="50.09" y1="21.8145" x2="51.5739" y2="24.9993" gradientUnits="userSpaceOnUse">
<stop stop-color="#45D0BD"/>
<stop offset="1" stop-color="#44B6E9"/>
</linearGradient>
<clipPath id="clip0_4334_274">
<rect width="73" height="73" fill="white"/>
</clipPath>
</defs>
</svg>
