<svg width="74" height="73" viewBox="0 0 74 73" fill="none" xmlns="http://www.w3.org/2000/svg">
<g clip-path="url(#clip0_4334_352)">
<path d="M35.9171 3.91455C35.7967 3.91455 35.6764 3.88166 35.5779 3.80491L32.1536 1.4147C31.8801 1.22831 31.8145 0.855525 32.0004 0.581419C32.1864 0.307313 32.5693 0.241527 32.8319 0.42792L36.2562 2.81813C36.5297 3.00452 36.5954 3.3773 36.4094 3.65141C36.289 3.81587 36.103 3.91455 35.9171 3.91455Z" fill="url(#paint0_linear_4334_352)"/>
<path d="M36.3213 4.45083C36.1572 4.45083 35.9822 4.38505 35.8618 4.24251C35.643 3.99034 35.6758 3.60659 35.9275 3.39827L39.308 0.481775C39.5596 0.26249 39.9426 0.295383 40.1504 0.54756C40.3692 0.799738 40.3364 1.18349 40.0848 1.39181L36.7042 4.3083C36.5948 4.40698 36.4526 4.45083 36.3104 4.45083H36.3213Z" fill="url(#paint1_linear_4334_352)"/>
<path d="M37.8748 73C37.5794 73 37.3387 72.7588 37.3278 72.4627L35.6211 0.559177C35.6211 0.252178 35.8618 0.0109643 36.1572 0C36.4854 0 36.7042 0.230249 36.7151 0.537248L38.4327 72.4408C38.4327 72.7478 38.1921 72.989 37.8967 73H37.8857H37.8748Z" fill="url(#paint2_linear_4334_352)"/>
<path d="M73.453 35.6672L0.59082 37.3338L73.453 35.6562V35.6672Z" fill="url(#paint3_linear_4334_352)"/>
<path d="M0.590471 37.8814C0.295083 37.8814 0.0543973 37.6402 0.043457 37.3441C0.043457 37.0371 0.284143 36.7959 0.57953 36.785L73.4417 35.1074C73.7371 35.1074 73.9888 35.3377 73.9997 35.6447C73.9997 35.9517 73.759 36.1929 73.4636 36.2038L0.601411 37.8814H0.590471Z" fill="url(#paint4_linear_4334_352)"/>
<path d="M63.3879 61.3341L10.6558 11.666L63.3988 61.3231L63.3879 61.3341Z" fill="url(#paint5_linear_4334_352)"/>
<path d="M63.3877 61.8825C63.2564 61.8825 63.1142 61.8386 63.0157 61.729L10.2727 12.0719C10.1633 11.9622 10.0977 11.8197 10.0977 11.6772C10.0977 11.5456 10.1414 11.403 10.2508 11.3044C10.4587 11.0851 10.8088 11.0741 11.0166 11.2824L63.7597 60.9395C63.8691 61.0492 63.9347 61.1917 63.9347 61.3343C63.9347 61.4658 63.891 61.6084 63.7816 61.707C63.6722 61.8167 63.5299 61.8825 63.3877 61.8825Z" fill="url(#paint6_linear_4334_352)"/>
<path d="M11.8707 63.0666C11.7395 63.0666 11.5972 63.0117 11.4878 62.9131C11.3784 62.8034 11.3237 62.6609 11.3237 62.5183C11.3237 62.3758 11.3784 62.2442 11.4769 62.1346L61.7803 10.1092C61.9881 9.88994 62.3382 9.88993 62.5461 10.0983C62.6555 10.2079 62.7102 10.3504 62.7102 10.493C62.7102 10.6355 62.6555 10.7671 62.557 10.8767L12.2537 62.9021C12.1443 63.0117 12.002 63.0666 11.8598 63.0666H11.8707Z" fill="url(#paint7_linear_4334_352)"/>
<path d="M13.8611 65.8847H13.8392C13.511 65.8737 13.2484 65.5887 13.2703 65.2597L13.4672 60.7973C13.4782 60.4683 13.7407 60.1833 14.0908 60.2271C14.419 60.2381 14.6816 60.5232 14.6597 60.8521L14.4628 65.3145C14.4519 65.6325 14.1784 65.8847 13.8611 65.8847Z" fill="url(#paint8_linear_4334_352)"/>
<path d="M14.0914 60.7632H14.0695L8.64315 60.544C8.31494 60.533 8.05238 60.2479 8.06332 59.919C8.07426 59.5901 8.35871 59.3379 8.68691 59.3379L14.1133 59.5572C14.4415 59.5681 14.7041 59.8532 14.6931 60.1821C14.6822 60.5111 14.4087 60.7632 14.0914 60.7632Z" fill="url(#paint9_linear_4334_352)"/>
<path d="M41.4305 72.9121C41.2664 72.9121 41.1133 72.8463 40.9929 72.7257L37.9406 69.4802C37.7108 69.239 37.7218 68.8553 37.9625 68.625C38.2032 68.3948 38.5861 68.4057 38.8158 68.647L41.8791 71.8924C42.1088 72.1336 42.0979 72.5173 41.8572 72.7476C41.7369 72.8572 41.5946 72.9121 41.4415 72.9121H41.4305Z" fill="url(#paint10_linear_4334_352)"/>
<path d="M33.9915 72.9332C33.8383 72.9332 33.6742 72.8674 33.5539 72.7468C33.3241 72.5056 33.3351 72.1219 33.5758 71.8916L37.5142 68.1309C37.7549 67.9006 38.1378 67.9116 38.3676 68.1528C38.5973 68.394 38.5864 68.7778 38.3457 69.008L34.4072 72.7688C34.2869 72.8784 34.1446 72.9332 33.9915 72.9332Z" fill="url(#paint11_linear_4334_352)"/>
<path d="M61.1667 58.7901C60.8384 58.7901 60.5649 58.5159 60.5649 58.187C60.5649 57.8581 60.8275 57.584 61.1667 57.584H65.6193C65.9476 57.584 66.2211 57.8581 66.2211 58.187C66.2211 58.5159 65.9585 58.7901 65.6193 58.7901H61.1667Z" fill="url(#paint12_linear_4334_352)"/>
<path d="M60.5432 64.2283C60.215 64.2283 59.9415 63.9652 59.9415 63.6363L59.9087 58.187C59.9087 57.8581 60.1713 57.584 60.4995 57.584C60.8277 57.584 61.1012 57.8471 61.1012 58.1761L61.134 63.6253C61.134 63.9542 60.8714 64.2283 60.5432 64.2283Z" fill="url(#paint13_linear_4334_352)"/>
<path d="M1.28053 42.4418C1.17112 42.4418 1.07266 42.409 0.9742 42.3541C0.689752 42.1787 0.59129 41.8169 0.766334 41.5318L3.35918 37.2009C3.53422 36.9159 3.90619 36.8281 4.1797 36.9926C4.46415 37.168 4.55167 37.5299 4.38756 37.8149L1.79472 42.1348C1.68532 42.3212 1.48839 42.4309 1.28053 42.4309V42.4418Z" fill="url(#paint14_linear_4334_352)"/>
<path d="M4.35435 37.6614C4.20118 37.6614 4.03708 37.5956 3.91673 37.475L0.164221 33.5388C-0.0655243 33.2976 -0.0545841 32.9139 0.186102 32.6836C0.426788 32.4534 0.809697 32.4643 1.03944 32.7056L4.79196 36.6417C5.0217 36.8829 5.01076 37.2667 4.77008 37.4969C4.64973 37.6066 4.50751 37.6614 4.35435 37.6614Z" fill="url(#paint15_linear_4334_352)"/>
<path d="M8.19449 14.8459C7.86628 14.8459 7.59277 14.5828 7.59277 14.2429C7.59277 13.914 7.85534 13.6399 8.19449 13.6399H12.6472V13.6289C12.9754 13.6289 13.2489 13.892 13.2489 14.2319C13.2489 14.5609 12.9863 14.835 12.6472 14.835H8.19449V14.8459Z" fill="url(#paint16_linear_4334_352)"/>
<path d="M13.3139 14.8338C12.9857 14.8338 12.7122 14.5706 12.7122 14.2417L12.6685 8.79249C12.6685 8.46356 12.931 8.18945 13.2592 8.18945C13.5874 8.18945 13.8609 8.4526 13.8609 8.78152L13.9047 14.2308C13.9047 14.5597 13.6421 14.8338 13.3139 14.8338Z" fill="url(#paint17_linear_4334_352)"/>
<path d="M59.6901 12.8836C59.3619 12.8836 59.0884 12.6205 59.0884 12.2915L59.0337 7.78523C59.0337 7.4563 59.2963 7.18219 59.6245 7.18219C59.9855 7.1493 60.2262 7.44533 60.2371 7.77426L60.2918 12.2806C60.2918 12.6095 60.0293 12.8836 59.701 12.8946L59.6901 12.8836Z" fill="url(#paint18_linear_4334_352)"/>
<path d="M59.6901 13.5528C59.3619 13.5528 59.0993 13.2897 59.0884 12.9607C59.0884 12.6318 59.3509 12.3577 59.6792 12.3467L65.1165 12.248C65.4447 12.248 65.7182 12.5112 65.7291 12.8401C65.7291 13.169 65.4666 13.4432 65.1384 13.4541L59.701 13.5528H59.6901Z" fill="url(#paint19_linear_4334_352)"/>
<path d="M69.952 35.5579C69.7988 35.5579 69.6347 35.4921 69.5253 35.3715C69.2956 35.1302 69.2956 34.7575 69.5253 34.5162L72.709 31.3914C72.9496 31.1612 73.3325 31.1612 73.5623 31.3914C73.792 31.6327 73.792 32.0054 73.5623 32.2466L70.3787 35.3715C70.2583 35.4811 70.1052 35.5469 69.9629 35.5469L69.952 35.5579Z" fill="url(#paint20_linear_4334_352)"/>
<path d="M73.2892 39.8991C73.136 39.8991 72.9829 39.8443 72.8625 39.7237L69.0444 35.8424C68.8146 35.6011 68.8146 35.2284 69.0444 34.9871C69.2851 34.7569 69.657 34.7569 69.8977 34.9871L73.7159 38.8685C73.9456 39.1097 73.9456 39.4825 73.7159 39.7237C73.5955 39.8443 73.4424 39.8991 73.2892 39.8991Z" fill="url(#paint21_linear_4334_352)"/>
<path d="M61.6704 46.3901C61.5938 46.3901 61.5282 46.3791 61.4516 46.3462L13.9051 27.6302C13.5988 27.5096 13.4457 27.1588 13.566 26.8518C13.6863 26.5448 14.0364 26.3913 14.3428 26.5119L61.8782 45.2279C62.1846 45.3485 62.3377 45.6993 62.2174 46.0063C62.1189 46.2475 61.9001 46.3901 61.6594 46.3901H61.6704Z" fill="url(#paint22_linear_4334_352)"/>
<path d="M46.9014 60.4904C46.6717 60.4904 46.4529 60.3588 46.3544 60.1286L25.9399 13.2016C25.8086 12.8946 25.9399 12.5437 26.2462 12.4121C26.5525 12.2806 26.9026 12.4121 27.0339 12.7191L47.4484 59.6461C47.5797 59.9531 47.4484 60.304 47.1421 60.4356C47.0655 60.4685 46.978 60.4904 46.9014 60.4904Z" fill="url(#paint23_linear_4334_352)"/>
<path d="M13.8834 47.8586C13.6536 47.8586 13.4348 47.727 13.3363 47.4968C13.2051 47.1898 13.3363 46.8389 13.6427 46.7074L60.467 26.2481C60.7734 26.1165 61.1234 26.2481 61.2547 26.5551C61.386 26.8621 61.2547 27.2129 60.9484 27.3445L14.124 47.8038C14.0475 47.8367 13.9599 47.8586 13.8834 47.8586Z" fill="url(#paint24_linear_4334_352)"/>
<path d="M27.7121 61.3562C27.6355 61.3562 27.5589 61.3452 27.4823 61.3123C27.176 61.1917 27.0229 60.8408 27.1541 60.5338L46.3215 13.0696C46.4418 12.7626 46.7919 12.6091 47.0983 12.7407C47.4046 12.8613 47.5577 13.2121 47.4265 13.5191L28.2591 60.9724C28.1606 61.2027 27.9418 61.3452 27.7011 61.3452L27.7121 61.3562Z" fill="url(#paint25_linear_4334_352)"/>
<path d="M13.3582 27.0927C13.1284 27.0927 12.9206 26.9611 12.8112 26.7418C12.6689 26.4458 12.8112 26.084 13.0956 25.9414L21.4212 22.0382C21.7165 21.8956 22.0776 22.0272 22.2198 22.3232C22.362 22.6193 22.2198 22.9811 21.9354 23.1236L13.6098 27.0269C13.5332 27.0598 13.4457 27.0817 13.3582 27.0817V27.0927Z" fill="url(#paint26_linear_4334_352)"/>
<path d="M16.8915 37.6292C16.6399 37.6292 16.4102 37.4757 16.3227 37.2235L12.7233 26.8952C12.6139 26.5772 12.778 26.2373 13.0953 26.1277C13.4125 26.018 13.7517 26.1825 13.8611 26.5005L17.4604 36.8288C17.5698 37.1468 17.4057 37.4866 17.0885 37.5963C17.0228 37.6182 16.9572 37.6292 16.8915 37.6292Z" fill="url(#paint27_linear_4334_352)"/>
<path d="M36.1031 15.9643C36.0484 15.9643 35.9827 15.9643 35.928 15.9424L26.1693 12.9053C25.852 12.8066 25.677 12.4667 25.7755 12.1487C25.8739 11.8308 26.2021 11.6553 26.5303 11.754L36.2891 14.7911C36.6063 14.8898 36.7814 15.2297 36.6829 15.5477C36.6063 15.8108 36.3656 15.9753 36.114 15.9753L36.1031 15.9643Z" fill="url(#paint28_linear_4334_352)"/>
<path d="M22.143 23.1016C22.0664 23.1016 21.9898 23.0907 21.9242 23.0578C21.6179 22.9372 21.4647 22.5863 21.585 22.2793L25.6111 12.1155C25.7314 11.8085 26.0815 11.655 26.3878 11.7756C26.6942 11.8962 26.8473 12.247 26.727 12.554L22.701 22.7179C22.6025 22.9591 22.3837 23.1016 22.143 23.1016Z" fill="url(#paint29_linear_4334_352)"/>
<path d="M13.424 47.8477C13.3584 47.8477 13.2928 47.8477 13.2271 47.8148C12.9098 47.7051 12.7457 47.3652 12.8551 47.0473L16.3232 36.8286C16.4326 36.5106 16.7718 36.3462 17.089 36.4558C17.4063 36.5654 17.5704 36.9053 17.461 37.2233L13.9929 47.442C13.9054 47.6942 13.6757 47.8477 13.424 47.8477Z" fill="url(#paint30_linear_4334_352)"/>
<path d="M22.8869 52.0683C22.8103 52.0683 22.7227 52.0574 22.6462 52.0135L13.3032 47.9787C12.9968 47.8471 12.8546 47.4962 12.9859 47.1892C13.1172 46.8822 13.4673 46.7397 13.7736 46.8713L23.1166 50.9061C23.4229 51.0377 23.5652 51.3885 23.4339 51.6955C23.3354 51.9258 23.1166 52.0574 22.8869 52.0574V52.0683Z" fill="url(#paint31_linear_4334_352)"/>
<path d="M27.1642 61.9917C26.9345 61.9917 26.7157 61.8601 26.6172 61.6299L22.3396 51.7072C22.2083 51.4002 22.3396 51.0494 22.6568 50.9178C22.9632 50.7862 23.3132 50.9178 23.4445 51.2358L27.7222 61.1584C27.8535 61.4654 27.7222 61.8163 27.4049 61.9478C27.3283 61.9807 27.2517 61.9917 27.1642 61.9917Z" fill="url(#paint32_linear_4334_352)"/>
<path d="M27.3726 62.0582C27.1101 62.0582 26.8585 61.8828 26.7928 61.6087C26.7053 61.2907 26.9022 60.9618 27.2195 60.8741L37.0657 58.2865C37.3939 58.1988 37.7112 58.3962 37.7987 58.7141C37.8862 59.0321 37.6893 59.361 37.3721 59.4487L27.5258 62.0363C27.5258 62.0363 27.4273 62.0582 27.3726 62.0582Z" fill="url(#paint33_linear_4334_352)"/>
<path d="M47.1857 61.3673C47.1857 61.3673 47.0982 61.3673 47.0654 61.3563L37.1863 59.2731C36.8581 59.2073 36.6502 58.8893 36.7268 58.5604C36.7925 58.2315 37.1097 58.0232 37.4379 58.0999L47.317 60.1831C47.6452 60.2489 47.8531 60.5669 47.7765 60.8958C47.7218 61.1809 47.4702 61.3782 47.1857 61.3782V61.3673Z" fill="url(#paint34_linear_4334_352)"/>
<path d="M47.3275 61.2461C47.2291 61.2461 47.1197 61.2242 47.0321 61.1693C46.7477 61.0049 46.6492 60.6321 46.8133 60.347L51.9005 51.5098C52.0647 51.2248 52.4366 51.1261 52.7211 51.2905C53.0055 51.455 53.104 51.8278 52.9399 52.1129L47.8527 60.9501C47.7432 61.1474 47.5354 61.2461 47.3385 61.2461H47.3275Z" fill="url(#paint35_linear_4334_352)"/>
<path d="M52.9069 52.0698C52.71 52.0698 52.524 51.9711 52.4036 51.7957C52.2176 51.5216 52.2942 51.1488 52.5787 50.9624L61.3637 45.2061C61.6372 45.0307 62.0092 45.0965 62.1952 45.3816C62.3812 45.6557 62.3046 46.0285 62.0201 46.2149L53.2351 51.9711C53.1366 52.0369 53.0163 52.0698 52.9069 52.0698Z" fill="url(#paint36_linear_4334_352)"/>
<path d="M61.7033 46.1056C61.4188 46.1056 61.1563 45.8973 61.1125 45.6013L59.5152 35.9198C59.4605 35.5909 59.6793 35.2839 60.0075 35.2291C60.3248 35.1743 60.6421 35.3936 60.6968 35.7225L62.294 45.4039C62.3487 45.7329 62.1299 46.0399 61.8017 46.0947C61.7689 46.0947 61.7361 46.0947 61.7033 46.0947V46.1056Z" fill="url(#paint37_linear_4334_352)"/>
<path d="M60.1171 36.4232C60.1171 36.4232 60.0405 36.4232 60.0077 36.4232C59.6795 36.3684 59.4607 36.0504 59.5263 35.7215L61.2549 26.1826C61.3096 25.8536 61.6268 25.6453 61.955 25.7001C62.2832 25.755 62.502 26.0729 62.4364 26.4019L60.7078 35.9408C60.6531 36.2258 60.4015 36.4341 60.1171 36.4341V36.4232Z" fill="url(#paint38_linear_4334_352)"/>
<path d="M61.7029 26.7303C61.5826 26.7303 61.4732 26.6974 61.3638 26.6316L52.5678 20.678C52.2943 20.4916 52.2177 20.1189 52.4037 19.8447C52.5897 19.5706 52.9616 19.4939 53.2352 19.6803L62.0311 25.6339C62.3046 25.8203 62.3812 26.193 62.1952 26.4672C62.0749 26.6426 61.8889 26.7303 61.7029 26.7303Z" fill="url(#paint39_linear_4334_352)"/>
<path d="M52.907 20.7781C52.732 20.7781 52.546 20.7014 52.4257 20.5479L46.7586 13.1251C46.5617 12.862 46.6054 12.4782 46.868 12.2809C47.1306 12.0835 47.5026 12.1274 47.7104 12.3905L53.3775 19.8133C53.5744 20.0764 53.5306 20.4602 53.2681 20.6575C53.1587 20.7453 53.0274 20.7781 52.907 20.7781Z" fill="url(#paint40_linear_4334_352)"/>
<path d="M36.1032 15.9637C35.8297 15.9637 35.589 15.7773 35.5233 15.5032C35.4467 15.1743 35.6437 14.8563 35.9719 14.7796L46.9122 12.1591C47.2404 12.0824 47.5576 12.2797 47.6342 12.6086C47.7108 12.9376 47.5139 13.2555 47.1857 13.3323L36.2454 15.9527C36.2454 15.9527 36.1469 15.9747 36.1032 15.9747V15.9637Z" fill="url(#paint41_linear_4334_352)"/>
</g>
<defs>
<linearGradient id="paint0_linear_4334_352" x1="31.938" y1="0.322265" x2="37.1229" y2="1.73102" gradientUnits="userSpaceOnUse">
<stop stop-color="#8258C8"/>
<stop offset="1" stop-color="#2C84C8"/>
</linearGradient>
<linearGradient id="paint1_linear_4334_352" x1="35.7589" y1="0.335937" x2="40.989" y2="1.56571" gradientUnits="userSpaceOnUse">
<stop stop-color="#8258C8"/>
<stop offset="1" stop-color="#2C84C8"/>
</linearGradient>
<linearGradient id="paint2_linear_4334_352" x1="35.6472" y1="-1.3323e-05" x2="39.0356" y2="0.0275586" gradientUnits="userSpaceOnUse">
<stop stop-color="#8258C8"/>
<stop offset="1" stop-color="#2C84C8"/>
</linearGradient>
<linearGradient id="paint3_linear_4334_352" x1="1.26798" y1="35.6562" x2="2.29857" y2="45.1134" gradientUnits="userSpaceOnUse">
<stop stop-color="#8258C8"/>
<stop offset="1" stop-color="#2C84C8"/>
</linearGradient>
<linearGradient id="paint4_linear_4334_352" x1="0.730786" y1="35.1074" x2="3.45425" y2="50.4478" gradientUnits="userSpaceOnUse">
<stop stop-color="#8258C8"/>
<stop offset="1" stop-color="#2C84C8"/>
</linearGradient>
<linearGradient id="paint5_linear_4334_352" x1="11.1459" y1="11.666" x2="71.6652" y2="25.2436" gradientUnits="userSpaceOnUse">
<stop stop-color="#8258C8"/>
<stop offset="1" stop-color="#2C84C8"/>
</linearGradient>
<linearGradient id="paint6_linear_4334_352" x1="10.598" y1="11.1328" x2="72.3786" y2="24.9793" gradientUnits="userSpaceOnUse">
<stop stop-color="#8258C8"/>
<stop offset="1" stop-color="#2C84C8"/>
</linearGradient>
<linearGradient id="paint7_linear_4334_352" x1="11.8013" y1="9.94335" x2="71.2489" y2="22.0923" gradientUnits="userSpaceOnUse">
<stop stop-color="#8258C8"/>
<stop offset="1" stop-color="#2C84C8"/>
</linearGradient>
<linearGradient id="paint8_linear_4334_352" x1="13.282" y1="60.2227" x2="14.955" y2="60.3096" gradientUnits="userSpaceOnUse">
<stop stop-color="#8258C8"/>
<stop offset="1" stop-color="#2C84C8"/>
</linearGradient>
<linearGradient id="paint9_linear_4334_352" x1="8.12461" y1="59.3379" x2="12.1894" y2="63.3328" gradientUnits="userSpaceOnUse">
<stop stop-color="#8258C8"/>
<stop offset="1" stop-color="#2C84C8"/>
</linearGradient>
<linearGradient id="paint10_linear_4334_352" x1="37.8146" y1="68.459" x2="42.7577" y2="69.4604" gradientUnits="userSpaceOnUse">
<stop stop-color="#8258C8"/>
<stop offset="1" stop-color="#2C84C8"/>
</linearGradient>
<linearGradient id="paint11_linear_4334_352" x1="33.436" y1="67.9648" x2="39.3536" y2="69.2595" gradientUnits="userSpaceOnUse">
<stop stop-color="#8258C8"/>
<stop offset="1" stop-color="#2C84C8"/>
</linearGradient>
<linearGradient id="paint12_linear_4334_352" x1="60.6175" y1="57.584" x2="64.0573" y2="60.9922" gradientUnits="userSpaceOnUse">
<stop stop-color="#8258C8"/>
<stop offset="1" stop-color="#2C84C8"/>
</linearGradient>
<linearGradient id="paint13_linear_4334_352" x1="59.9201" y1="57.584" x2="61.3946" y2="57.6414" gradientUnits="userSpaceOnUse">
<stop stop-color="#8258C8"/>
<stop offset="1" stop-color="#2C84C8"/>
</linearGradient>
<linearGradient id="paint14_linear_4334_352" x1="0.714428" y1="36.9102" x2="5.18908" y2="37.558" gradientUnits="userSpaceOnUse">
<stop stop-color="#8258C8"/>
<stop offset="1" stop-color="#2C84C8"/>
</linearGradient>
<linearGradient id="paint15_linear_4334_352" x1="0.0446238" y1="32.5176" x2="5.78321" y2="33.6864" gradientUnits="userSpaceOnUse">
<stop stop-color="#8258C8"/>
<stop offset="1" stop-color="#2C84C8"/>
</linearGradient>
<linearGradient id="paint16_linear_4334_352" x1="7.64534" y1="13.6289" x2="11.116" y2="17.0367" gradientUnits="userSpaceOnUse">
<stop stop-color="#8258C8"/>
<stop offset="1" stop-color="#2C84C8"/>
</linearGradient>
<linearGradient id="paint17_linear_4334_352" x1="12.6799" y1="8.18945" x2="14.1676" y2="8.24793" gradientUnits="userSpaceOnUse">
<stop stop-color="#8258C8"/>
<stop offset="1" stop-color="#2C84C8"/>
</linearGradient>
<linearGradient id="paint18_linear_4334_352" x1="59.0454" y1="7.17969" x2="60.5584" y2="7.25006" gradientUnits="userSpaceOnUse">
<stop stop-color="#8258C8"/>
<stop offset="1" stop-color="#2C84C8"/>
</linearGradient>
<linearGradient id="paint19_linear_4334_352" x1="59.1501" y1="12.248" x2="62.8617" y2="16.2392" gradientUnits="userSpaceOnUse">
<stop stop-color="#8258C8"/>
<stop offset="1" stop-color="#2C84C8"/>
</linearGradient>
<linearGradient id="paint20_linear_4334_352" x1="69.3937" y1="31.2187" x2="74.4445" y2="32.2963" gradientUnits="userSpaceOnUse">
<stop stop-color="#8258C8"/>
<stop offset="1" stop-color="#2C84C8"/>
</linearGradient>
<linearGradient id="paint21_linear_4334_352" x1="68.9187" y1="34.8145" x2="74.7124" y2="36.022" gradientUnits="userSpaceOnUse">
<stop stop-color="#8258C8"/>
<stop offset="1" stop-color="#2C84C8"/>
</linearGradient>
<linearGradient id="paint22_linear_4334_352" x1="13.9778" y1="26.4707" x2="60.3278" y2="50.4282" gradientUnits="userSpaceOnUse">
<stop stop-color="#8258C8"/>
<stop offset="1" stop-color="#2C84C8"/>
</linearGradient>
<linearGradient id="paint23_linear_4334_352" x1="26.09" y1="12.3613" x2="51.9018" y2="14.8099" gradientUnits="userSpaceOnUse">
<stop stop-color="#8258C8"/>
<stop offset="1" stop-color="#2C84C8"/>
</linearGradient>
<linearGradient id="paint24_linear_4334_352" x1="13.7319" y1="26.1973" x2="61.1938" y2="48.4263" gradientUnits="userSpaceOnUse">
<stop stop-color="#8258C8"/>
<stop offset="1" stop-color="#2C84C8"/>
</linearGradient>
<linearGradient id="paint25_linear_4334_352" x1="27.2962" y1="12.6934" x2="51.6516" y2="14.8469" gradientUnits="userSpaceOnUse">
<stop stop-color="#8258C8"/>
<stop offset="1" stop-color="#2C84C8"/>
</linearGradient>
<linearGradient id="paint26_linear_4334_352" x1="12.8438" y1="21.9805" x2="22.7795" y2="25.8896" gradientUnits="userSpaceOnUse">
<stop stop-color="#8258C8"/>
<stop offset="1" stop-color="#2C84C8"/>
</linearGradient>
<linearGradient id="paint27_linear_4334_352" x1="12.7341" y1="26.0937" x2="18.4804" y2="26.5994" gradientUnits="userSpaceOnUse">
<stop stop-color="#8258C8"/>
<stop offset="1" stop-color="#2C84C8"/>
</linearGradient>
<linearGradient id="paint28_linear_4334_352" x1="25.8499" y1="11.7266" x2="36.0351" y2="17.2786" gradientUnits="userSpaceOnUse">
<stop stop-color="#8258C8"/>
<stop offset="1" stop-color="#2C84C8"/>
</linearGradient>
<linearGradient id="paint29_linear_4334_352" x1="21.5925" y1="11.7344" x2="27.8298" y2="12.34" gradientUnits="userSpaceOnUse">
<stop stop-color="#8258C8"/>
<stop offset="1" stop-color="#2C84C8"/>
</linearGradient>
<linearGradient id="paint30_linear_4334_352" x1="12.8647" y1="36.4219" x2="18.4555" y2="36.905" gradientUnits="userSpaceOnUse">
<stop stop-color="#8258C8"/>
<stop offset="1" stop-color="#2C84C8"/>
</linearGradient>
<linearGradient id="paint31_linear_4334_352" x1="13.035" y1="46.8223" x2="23.8025" y2="51.3952" gradientUnits="userSpaceOnUse">
<stop stop-color="#8258C8"/>
<stop offset="1" stop-color="#2C84C8"/>
</linearGradient>
<linearGradient id="paint32_linear_4334_352" x1="22.34" y1="50.8672" x2="28.8779" y2="51.5481" gradientUnits="userSpaceOnUse">
<stop stop-color="#8258C8"/>
<stop offset="1" stop-color="#2C84C8"/>
</linearGradient>
<linearGradient id="paint33_linear_4334_352" x1="26.8746" y1="58.2656" x2="36.5316" y2="64.2087" gradientUnits="userSpaceOnUse">
<stop stop-color="#8258C8"/>
<stop offset="1" stop-color="#2C84C8"/>
</linearGradient>
<linearGradient id="paint34_linear_4334_352" x1="36.8139" y1="58.084" x2="45.6873" y2="64.3903" gradientUnits="userSpaceOnUse">
<stop stop-color="#8258C8"/>
<stop offset="1" stop-color="#2C84C8"/>
</linearGradient>
<linearGradient id="paint35_linear_4334_352" x1="46.7923" y1="51.2109" x2="54.2371" y2="52.1961" gradientUnits="userSpaceOnUse">
<stop stop-color="#8258C8"/>
<stop offset="1" stop-color="#2C84C8"/>
</linearGradient>
<linearGradient id="paint36_linear_4334_352" x1="52.3951" y1="45.1094" x2="63.4251" y2="48.4554" gradientUnits="userSpaceOnUse">
<stop stop-color="#8258C8"/>
<stop offset="1" stop-color="#2C84C8"/>
</linearGradient>
<linearGradient id="paint37_linear_4334_352" x1="59.5328" y1="35.2207" x2="62.8921" y2="35.403" gradientUnits="userSpaceOnUse">
<stop stop-color="#8258C8"/>
<stop offset="1" stop-color="#2C84C8"/>
</linearGradient>
<linearGradient id="paint38_linear_4334_352" x1="59.5419" y1="25.6914" x2="63.0655" y2="25.8947" gradientUnits="userSpaceOnUse">
<stop stop-color="#8258C8"/>
<stop offset="1" stop-color="#2C84C8"/>
</linearGradient>
<linearGradient id="paint39_linear_4334_352" x1="52.3947" y1="19.5781" x2="63.4751" y2="22.8497" gradientUnits="userSpaceOnUse">
<stop stop-color="#8258C8"/>
<stop offset="1" stop-color="#2C84C8"/>
</linearGradient>
<linearGradient id="paint40_linear_4334_352" x1="46.7" y1="12.1582" x2="54.7443" y2="13.5115" gradientUnits="userSpaceOnUse">
<stop stop-color="#8258C8"/>
<stop offset="1" stop-color="#2C84C8"/>
</linearGradient>
<linearGradient id="paint41_linear_4334_352" x1="35.6197" y1="12.1426" x2="45.7254" y2="18.9085" gradientUnits="userSpaceOnUse">
<stop stop-color="#8258C8"/>
<stop offset="1" stop-color="#2C84C8"/>
</linearGradient>
<clipPath id="clip0_4334_352">
<rect width="74" height="73" fill="white"/>
</clipPath>
</defs>
</svg>
