<svg width="69" height="71" viewBox="0 0 69 71" fill="none" xmlns="http://www.w3.org/2000/svg">
<g clip-path="url(#clip0_4336_469)">
<path d="M26.1099 15.3693C26.1099 15.3693 26.0299 15.3693 25.9799 15.3593L9.6599 11.4693C9.3699 11.3993 9.1799 11.0993 9.2499 10.8093C9.3199 10.5193 9.6099 10.3293 9.9099 10.3993L26.2299 14.2893C26.5199 14.3593 26.7099 14.6593 26.6399 14.9493C26.5799 15.1993 26.3499 15.3693 26.1099 15.3693Z" fill="#AC8DE0"/>
<path d="M42.0601 15.3691C41.8701 15.3691 41.6901 15.2691 41.5901 15.0991L33.1401 0.829109C32.9901 0.569109 33.0701 0.229109 33.3301 0.0791088C33.5901 -0.0708912 33.9301 0.00910881 34.0801 0.269109L42.5301 14.5391C42.6801 14.7991 42.6001 15.1391 42.3401 15.2891C42.2501 15.3391 42.1601 15.3691 42.0601 15.3691Z" fill="#AC8DE0"/>
<path d="M26.1102 15.3692C26.0202 15.3692 25.9402 15.3492 25.8502 15.3092C25.5802 15.1692 25.4802 14.8392 25.6202 14.5692L33.1202 0.289202C33.2602 0.0192019 33.5902 -0.0807981 33.8602 0.0592019C34.1302 0.199202 34.2302 0.529202 34.0902 0.799202L26.5902 15.0692C26.4902 15.2592 26.3002 15.3592 26.1002 15.3592L26.1102 15.3692Z" fill="#AC8DE0"/>
<path d="M42.0602 15.3697C41.8302 15.3697 41.6102 15.2197 41.5402 14.9897C41.4502 14.6997 41.6102 14.3897 41.9002 14.2997L58.6902 8.99966C58.9802 8.90966 59.2902 9.06966 59.3802 9.35966C59.4702 9.64966 59.3102 9.95966 59.0202 10.0497L42.2302 15.3497C42.1802 15.3697 42.1202 15.3797 42.0602 15.3797V15.3697Z" fill="#AC8DE0"/>
<path d="M35.3298 69.1509C35.0598 69.1509 34.8398 68.9309 34.8298 68.6509L33.2598 1.73094C33.2598 1.44094 33.4698 1.22094 33.7498 1.21094C34.0498 1.21094 34.2498 1.43094 34.2598 1.71094L35.8298 68.6309C35.8298 68.9209 35.6198 69.1409 35.3398 69.1509H35.3298Z" fill="#AC8DE0"/>
<path d="M1.24023 35.7702C0.970234 35.7702 0.750234 35.5502 0.740234 35.2802C0.740234 35.0002 0.960234 34.7802 1.23023 34.7702L67.8302 33.2402C68.1002 33.2402 68.3302 33.4502 68.3402 33.7302C68.3402 34.0102 68.1202 34.2302 67.8502 34.2402L1.25023 35.7702H1.24023Z" fill="#AC8DE0"/>
<path d="M58.6499 57.6497C58.5299 57.6497 58.3999 57.6097 58.3099 57.5097L10.0999 12.2197C9.99994 12.1197 9.93994 11.9897 9.93994 11.8597C9.93994 11.7397 9.97994 11.6097 10.0799 11.5197C10.2699 11.3197 10.5899 11.3097 10.7799 11.4997L58.9899 56.7897C59.0899 56.8897 59.1499 57.0197 59.1499 57.1497C59.1499 57.2697 59.1099 57.3997 59.0099 57.4897C58.9099 57.5897 58.7799 57.6497 58.6499 57.6497Z" fill="#AC8DE0"/>
<path d="M11.5498 58.7292C11.4198 58.7292 11.2998 58.6792 11.1998 58.5892C11.0998 58.4892 11.0498 58.3592 11.0498 58.2292C11.0498 58.0992 11.0998 57.9792 11.1898 57.8792L57.6398 10.4892C57.8298 10.2892 58.1498 10.2892 58.3498 10.4792C58.4498 10.5792 58.4998 10.7092 58.4998 10.8392C58.4998 10.9692 58.4498 11.0892 58.3598 11.1892L11.9198 58.5792C11.8198 58.6792 11.6898 58.7292 11.5598 58.7292H11.5498Z" fill="#AC8DE0"/>
<path d="M15.1399 27.3291C14.9099 27.3291 14.6999 27.1891 14.6199 26.9591L9.25991 11.0991C9.15991 10.8091 9.31991 10.4991 9.59991 10.3991C9.88991 10.2991 10.1999 10.4591 10.2999 10.7391L15.6499 26.5991C15.7499 26.8891 15.5899 27.1991 15.3099 27.2991C15.2499 27.3191 15.1899 27.3291 15.1299 27.3291H15.1399Z" fill="#AC8DE0"/>
<path d="M0.550135 36.1691C0.360135 36.1691 0.180135 36.0791 0.0801345 35.9091C-0.0798655 35.6491 0.0101345 35.3091 0.270135 35.1591L14.8701 26.3291C15.1301 26.1791 15.4701 26.2591 15.6201 26.5191C15.7801 26.7791 15.6901 27.1191 15.4301 27.2691L0.830135 36.0891C0.740134 36.1391 0.640135 36.1691 0.550135 36.1691Z" fill="#AC8DE0"/>
<path d="M15.5101 43.6693C15.4301 43.6693 15.3401 43.6493 15.2601 43.6093L0.300126 36.1093C0.0301257 35.9693 -0.0798743 35.6393 0.0501257 35.3693C0.190126 35.0993 0.520126 34.9893 0.790126 35.1293L15.7501 42.6293C16.0201 42.7693 16.1301 43.0993 16.0001 43.3693C15.9001 43.5593 15.7101 43.6693 15.5101 43.6693Z" fill="#AC8DE0"/>
<path d="M11.1599 59.2298C11.1099 59.2298 11.0599 59.2298 11.0099 59.2098C10.7199 59.1298 10.5499 58.8198 10.6399 58.5298L15.0499 43.4098C15.1399 43.1198 15.4399 42.9498 15.7299 43.0398C16.0199 43.1198 16.1899 43.4298 16.0999 43.7198L11.6899 58.8398C11.6199 59.0798 11.3999 59.2398 11.1599 59.2398V59.2298Z" fill="#AC8DE0"/>
<path d="M11.17 59.2293C10.94 59.2293 10.72 59.0793 10.65 58.8493C10.56 58.5593 10.7201 58.2493 11.0101 58.1593L26.9501 53.1793C27.2401 53.0893 27.55 53.2493 27.64 53.5393C27.73 53.8293 27.5701 54.1393 27.2801 54.2293L11.3401 59.2093C11.2901 59.2293 11.2301 59.2293 11.1801 59.2293H11.17Z" fill="#AC8DE0"/>
<path d="M59.0898 58.1492C59.0898 58.1492 58.9998 58.1492 58.9598 58.1392L42.9298 54.2392C42.6398 54.1692 42.4598 53.8692 42.5298 53.5792C42.5998 53.2892 42.8998 53.1092 43.1898 53.1792L59.2198 57.0792C59.5198 57.1492 59.6898 57.4492 59.6198 57.7392C59.5598 57.9892 59.3298 58.1592 59.0898 58.1592V58.1492Z" fill="#AC8DE0"/>
<path d="M59.09 58.1292C58.85 58.1292 58.63 57.9692 58.56 57.7292L54.49 42.8792C54.41 42.5892 54.58 42.2892 54.87 42.2092C55.17 42.1292 55.46 42.2992 55.54 42.5892L59.61 57.4392C59.69 57.7292 59.52 58.0292 59.23 58.1092C59.18 58.1192 59.13 58.1292 59.09 58.1292Z" fill="#AC8DE0"/>
<path d="M35.0798 70.1993C34.8798 70.1993 34.6898 70.0893 34.5898 69.8993L26.6198 53.9493C26.4898 53.6793 26.5898 53.3493 26.8698 53.2093C27.1398 53.0693 27.4698 53.1893 27.6098 53.4593L35.5798 69.4093C35.7198 69.6793 35.6098 70.0093 35.3298 70.1493C35.2498 70.1893 35.1698 70.2093 35.0798 70.2093V70.1993Z" fill="#AC8DE0"/>
<path d="M35.0799 70.199C34.9999 70.199 34.9099 70.1791 34.8299 70.139C34.5599 69.9991 34.4499 69.6691 34.5799 69.3991L42.5499 53.4491C42.6899 53.1791 43.0199 53.0691 43.2899 53.1991C43.5599 53.3391 43.6699 53.669 43.5399 53.939L35.5699 69.889C35.4699 70.0791 35.2799 70.1891 35.0799 70.1891V70.199Z" fill="#AC8DE0"/>
<path d="M55.0199 26.3392C55.0199 26.3392 54.9399 26.3392 54.8899 26.3292C54.5899 26.2592 54.4099 25.9692 54.4799 25.6692L58.3099 9.39916C58.3799 9.10916 58.6699 8.91916 58.9699 8.98916C59.2699 9.05916 59.4499 9.35916 59.3799 9.64916L55.5499 25.9192C55.4899 26.1692 55.2699 26.3392 55.0199 26.3392Z" fill="#AC8DE0"/>
<path d="M55.02 43.2793C54.85 43.2793 54.68 43.1993 54.57 43.0393C54.4 42.7893 54.46 42.4493 54.71 42.2793L67.67 33.3093C67.92 33.1393 68.26 33.1993 68.43 33.4493C68.6 33.6993 68.54 34.0393 68.29 34.2093L55.33 43.1793C55.24 43.2493 55.13 43.2793 55.02 43.2793Z" fill="#AC8DE0"/>
<path d="M67.9802 34.3107C67.8802 34.3107 67.7802 34.2807 67.6902 34.2307L54.7301 26.2607C54.4701 26.1007 54.3901 25.7607 54.5501 25.5007C54.7101 25.2407 55.0501 25.1607 55.3001 25.3207L68.2601 33.2907C68.5202 33.4507 68.6002 33.7907 68.4402 34.0507C68.3401 34.2207 68.1601 34.3107 67.9701 34.3107H67.9802Z" fill="#AC8DE0"/>
<path d="M35.0801 55.2393C23.2301 55.2393 13.6001 45.8293 13.6001 34.2593C13.6001 22.6893 23.2401 13.2793 35.0801 13.2793C46.9201 13.2793 56.5601 22.6893 56.5601 34.2593C56.5601 45.8293 46.9201 55.2393 35.0801 55.2393ZM35.0801 14.3693C23.8401 14.3693 14.6901 23.2893 14.6901 34.2593C14.6901 45.2293 23.8301 54.1493 35.0801 54.1493C46.3301 54.1493 55.4701 45.2293 55.4701 34.2593C55.4701 23.2893 46.3301 14.3693 35.0801 14.3693Z" fill="#AC8DE0"/>
</g>
<defs>
<clipPath id="clip0_4336_469">
<rect width="68.53" height="70.2" fill="white"/>
</clipPath>
</defs>
</svg>
