<svg width="865" height="243" viewBox="0 0 865 243" fill="none" xmlns="http://www.w3.org/2000/svg">
<path d="M0.3 266L87.45 10.5L168.65 10.5L258.25 266H207.15L131.2 44.45L149.05 52.15L105.3 52.15L123.5 44.45L50 266H0.3ZM61.2 198.1L76.95 156.1L180.55 156.1L195.95 198.1L61.2 198.1ZM276.953 266V75.95L325.603 75.95V266H276.953ZM250.353 112.35V75.95L325.603 75.95V112.35L250.353 112.35ZM294.803 53.2C285.236 53.2 278.12 50.75 273.453 45.85C269.02 40.7167 266.803 34.4167 266.803 26.95C266.803 19.0167 269.02 12.6 273.453 7.69999C278.12 2.79998 285.236 0.349978 294.803 0.349978C304.37 0.349978 311.37 2.79998 315.803 7.69999C320.236 12.6 322.453 19.0167 322.453 26.95C322.453 34.4167 320.236 40.7167 315.803 45.85C311.37 50.75 304.37 53.2 294.803 53.2ZM442.221 272.65C425.888 272.65 411.538 269.85 399.171 264.25C387.038 258.65 376.888 251.183 368.721 241.85C360.788 232.283 354.721 221.667 350.521 210C346.555 198.333 344.571 186.433 344.571 174.3V167.65C344.571 155.05 346.555 142.917 350.521 131.25C354.721 119.35 360.788 108.85 368.721 99.75C376.888 90.4167 386.921 83.0667 398.821 77.7C410.721 72.1 424.488 69.3 440.121 69.3C460.655 69.3 477.805 73.85 491.571 82.95C505.571 91.8167 516.071 103.6 523.071 118.3C530.071 132.767 533.571 148.4 533.571 165.2V182.7L365.221 182.7V152.95L503.121 152.95L488.071 167.65C488.071 155.517 486.321 145.133 482.821 136.5C479.321 127.867 473.955 121.217 466.721 116.55C459.721 111.883 450.855 109.55 440.121 109.55C429.388 109.55 420.288 112 412.821 116.9C405.355 121.8 399.638 128.917 395.671 138.25C391.938 147.35 390.071 158.317 390.071 171.15C390.071 183.05 391.938 193.667 395.671 203C399.405 212.1 405.121 219.333 412.821 224.7C420.521 229.833 430.321 232.4 442.221 232.4C454.121 232.4 463.805 230.067 471.271 225.4C478.738 220.5 483.521 214.55 485.621 207.55H530.421C527.621 220.617 522.255 232.05 514.321 241.85C506.388 251.65 496.238 259.233 483.871 264.6C471.738 269.967 457.855 272.65 442.221 272.65ZM549.713 266V75.95H588.213V156.45H587.163C587.163 129.15 592.996 108.5 604.663 94.5C616.329 80.5 633.479 73.5 656.113 73.5H663.113V115.85L649.813 115.85C633.479 115.85 620.763 120.283 611.663 129.15C602.796 137.783 598.363 150.383 598.363 166.95V266H549.713ZM761.143 272.65C744.343 272.65 729.526 269.967 716.693 264.6C703.859 259.233 693.009 252 684.143 242.9C675.276 233.567 668.509 223.067 663.843 211.4C659.409 199.733 657.193 187.6 657.193 175V167.65C657.193 154.583 659.526 142.217 664.193 130.55C669.093 118.65 675.976 108.15 684.843 99.05C693.943 89.7167 704.909 82.4833 717.743 77.35C730.576 71.9833 745.043 69.3 761.143 69.3C777.243 69.3 791.709 71.9833 804.543 77.35C817.376 82.4833 828.226 89.7167 837.093 99.05C846.193 108.15 853.076 118.65 857.743 130.55C862.409 142.217 864.743 154.583 864.743 167.65V175C864.743 187.6 862.409 199.733 857.743 211.4C853.309 223.067 846.659 233.567 837.793 242.9C828.926 252 818.076 259.233 805.243 264.6C792.409 269.967 777.709 272.65 761.143 272.65ZM761.143 231C773.043 231 783.076 228.433 791.243 223.3C799.409 217.933 805.593 210.817 809.793 201.95C813.993 192.85 816.093 182.583 816.093 171.15C816.093 159.483 813.876 149.217 809.443 140.35C805.243 131.25 798.943 124.133 790.543 119C782.376 113.633 772.576 110.95 761.143 110.95C749.709 110.95 739.793 113.633 731.393 119C723.226 124.133 716.926 131.25 712.493 140.35C708.059 149.217 705.843 159.483 705.843 171.15C705.843 182.583 707.943 192.85 712.143 201.95C716.576 210.817 722.876 217.933 731.043 223.3C739.209 228.433 749.243 231 761.143 231Z" fill="#ECF0F4"/>
</svg>
