<svg width="795" height="1372" viewBox="0 0 795 1372" fill="none" xmlns="http://www.w3.org/2000/svg">
<path d="M52.7099 80.7794L12.3306 1.06579L57.0989 1L97.4782 80.7794H52.7099Z" stroke="url(#paint0_linear_4090_1279)"/>
<path d="M185.259 1H143.124L12.3306 245.031H59.7324L185.259 1Z" stroke="url(#paint1_linear_4090_1279)"/>
<path d="M143.124 245.031L104.501 166.425H147.513L188.771 245.031H143.124Z" stroke="url(#paint2_linear_4090_1279)"/>
<path d="M252.182 90.7828L211.433 11.7683L256.612 11.7031L297.361 90.7828H252.182Z" stroke="url(#paint3_linear_4090_1279)"/>
<path d="M385.948 11.7031H343.426L211.433 253.594H259.269L385.948 11.7031Z" stroke="url(#paint4_linear_4090_1279)"/>
<path d="M343.426 253.594L304.448 175.677H347.856L389.491 253.594H343.426Z" stroke="url(#paint5_linear_4090_1279)"/>
<path d="M458.638 367.623L418.629 287.91L462.987 287.844L502.995 367.623H458.638Z" stroke="url(#paint6_linear_4090_1279)"/>
<path d="M589.971 287.844H548.223L418.629 531.875H465.596L589.971 287.844Z" stroke="url(#paint7_linear_4090_1279)"/>
<path d="M548.223 531.875L509.953 453.269H552.572L593.45 531.875H548.223Z" stroke="url(#paint8_linear_4090_1279)"/>
<path d="M258.287 367.623L217.908 287.91L262.676 287.844L303.055 367.623H258.287Z" stroke="url(#paint9_linear_4090_1279)"/>
<path d="M390.836 287.844H348.702L217.908 531.875H265.31L390.836 287.844Z" stroke="url(#paint10_linear_4090_1279)"/>
<path d="M348.702 531.875L310.078 453.269H353.091L394.348 531.875H348.702Z" stroke="url(#paint11_linear_4090_1279)"/>
<path d="M52.7099 367.623L12.3306 287.91L57.0989 287.844L97.4782 367.623H52.7099Z" stroke="url(#paint12_linear_4090_1279)"/>
<path d="M185.259 287.844H143.124L12.3306 531.875H59.7324L185.259 287.844Z" stroke="url(#paint13_linear_4090_1279)"/>
<path d="M143.124 531.875L104.501 453.269H147.513L188.771 531.875H143.124Z" stroke="url(#paint14_linear_4090_1279)"/>
<path d="M258.287 652.327L217.908 572.614L262.676 572.548L303.055 652.327H258.287Z" stroke="url(#paint15_linear_4090_1279)"/>
<path d="M390.836 572.548H348.702L217.908 816.579H265.31L390.836 572.548Z" stroke="url(#paint16_linear_4090_1279)"/>
<path d="M348.702 816.579L310.078 737.973H353.091L394.348 816.579H348.702Z" stroke="url(#paint17_linear_4090_1279)"/>
<path d="M458.638 652.327L418.629 572.614L462.987 572.548L502.995 652.327H458.638Z" stroke="url(#paint18_linear_4090_1279)"/>
<path d="M589.971 572.548H548.223L418.629 816.579H465.596L589.971 572.548Z" stroke="url(#paint19_linear_4090_1279)"/>
<path d="M548.223 816.579L509.953 737.973H552.572L593.45 816.579H548.223Z" stroke="url(#paint20_linear_4090_1279)"/>
<path d="M458.638 937.029L418.629 857.316L462.987 857.25L502.995 937.029H458.638Z" stroke="url(#paint21_linear_4090_1279)"/>
<path d="M589.971 857.25H548.223L418.629 1101.28H465.596L589.971 857.25Z" stroke="url(#paint22_linear_4090_1279)"/>
<path d="M548.223 1101.28L509.953 1022.68H552.572L593.45 1101.28H548.223Z" stroke="url(#paint23_linear_4090_1279)"/>
<path d="M130.409 930.609L90.0293 850.895L134.798 850.829L175.177 930.609H130.409Z" stroke="url(#paint24_linear_4090_1279)"/>
<path d="M262.958 850.829H220.823L90.0293 1094.86H137.431L262.958 850.829Z" stroke="url(#paint25_linear_4090_1279)"/>
<path d="M220.823 1094.86L182.199 1016.25H225.212L266.469 1094.86H220.823Z" stroke="url(#paint26_linear_4090_1279)"/>
<path d="M658.11 652.327L617.731 572.614L662.499 572.548L702.879 652.327H658.11Z" stroke="url(#paint27_linear_4090_1279)"/>
<path d="M790.66 572.548H748.525L617.731 816.579H665.133L790.66 572.548Z" stroke="url(#paint28_linear_4090_1279)"/>
<path d="M748.525 816.579L709.901 737.973H752.914L794.171 816.579H748.525Z" stroke="url(#paint29_linear_4090_1279)"/>
<path d="M458.638 652.327L418.629 572.614L462.987 572.548L502.995 652.327H458.638Z" stroke="url(#paint30_linear_4090_1279)"/>
<path d="M589.971 572.548H548.223L418.629 816.579H465.596L589.971 572.548Z" stroke="url(#paint31_linear_4090_1279)"/>
<path d="M548.223 816.579L509.953 737.973H552.572L593.45 816.579H548.223Z" stroke="url(#paint32_linear_4090_1279)"/>
<path d="M458.638 937.029L418.629 857.316L462.987 857.25L502.995 937.029H458.638Z" stroke="url(#paint33_linear_4090_1279)"/>
<path d="M589.971 857.25H548.223L418.629 1101.28H465.596L589.971 857.25Z" stroke="url(#paint34_linear_4090_1279)"/>
<path d="M548.223 1101.28L509.953 1022.68H552.572L593.45 1101.28H548.223Z" stroke="url(#paint35_linear_4090_1279)"/>
<path d="M458.638 1205.31L418.629 1124.89L462.987 1124.83L502.995 1205.31H458.638Z" stroke="url(#paint36_linear_4090_1279)"/>
<path d="M589.971 1124.83H548.223L418.629 1371H465.596L589.971 1124.83Z" stroke="url(#paint37_linear_4090_1279)"/>
<path d="M548.223 1371L509.953 1291.7H552.572L593.45 1371H548.223Z" stroke="url(#paint38_linear_4090_1279)"/>
<path d="M258.287 1205.31L217.908 1124.89L262.676 1124.83L303.055 1205.31H258.287Z" stroke="url(#paint39_linear_4090_1279)"/>
<path d="M390.836 1124.83H348.702L217.908 1371H265.31L390.836 1124.83Z" stroke="url(#paint40_linear_4090_1279)"/>
<path d="M348.702 1371L310.078 1291.7H353.091L394.348 1371H348.702Z" stroke="url(#paint41_linear_4090_1279)"/>
<path d="M41.3793 1205.31L1 1124.89L45.7684 1124.83L86.1477 1205.31H41.3793Z" stroke="url(#paint42_linear_4090_1279)"/>
<path d="M173.929 1124.83H131.794L1 1371H48.4018L173.929 1124.83Z" stroke="url(#paint43_linear_4090_1279)"/>
<path d="M131.794 1371L93.1702 1291.7H136.183L177.44 1371H131.794Z" stroke="url(#paint44_linear_4090_1279)"/>
<path d="M130.409 930.609L90.0293 850.895L134.798 850.829L175.177 930.609H130.409Z" stroke="url(#paint45_linear_4090_1279)"/>
<path d="M262.958 850.829H220.823L90.0293 1094.86H137.431L262.958 850.829Z" stroke="url(#paint46_linear_4090_1279)"/>
<path d="M220.823 1094.86L182.199 1016.25H225.212L266.469 1094.86H220.823Z" stroke="url(#paint47_linear_4090_1279)"/>
<defs>
<linearGradient id="paint0_linear_4090_1279" x1="13.9704" y1="0.999955" x2="221.765" y2="32.7414" gradientUnits="userSpaceOnUse">
<stop stop-color="#8258C8"/>
<stop offset="1" stop-color="#2C84C8"/>
</linearGradient>
<linearGradient id="paint1_linear_4090_1279" x1="13.9704" y1="0.999955" x2="221.765" y2="32.7414" gradientUnits="userSpaceOnUse">
<stop stop-color="#8258C8"/>
<stop offset="1" stop-color="#2C84C8"/>
</linearGradient>
<linearGradient id="paint2_linear_4090_1279" x1="13.9704" y1="0.999955" x2="221.765" y2="32.7414" gradientUnits="userSpaceOnUse">
<stop stop-color="#8258C8"/>
<stop offset="1" stop-color="#2C84C8"/>
</linearGradient>
<linearGradient id="paint3_linear_4090_1279" x1="213.087" y1="11.7031" x2="422.614" y2="44.2886" gradientUnits="userSpaceOnUse">
<stop stop-color="#8258C8"/>
<stop offset="1" stop-color="#2C84C8"/>
</linearGradient>
<linearGradient id="paint4_linear_4090_1279" x1="213.087" y1="11.7031" x2="422.614" y2="44.2886" gradientUnits="userSpaceOnUse">
<stop stop-color="#8258C8"/>
<stop offset="1" stop-color="#2C84C8"/>
</linearGradient>
<linearGradient id="paint5_linear_4090_1279" x1="213.087" y1="11.7031" x2="422.614" y2="44.2886" gradientUnits="userSpaceOnUse">
<stop stop-color="#8258C8"/>
<stop offset="1" stop-color="#2C84C8"/>
</linearGradient>
<linearGradient id="paint6_linear_4090_1279" x1="420.254" y1="287.844" x2="626.228" y2="319.018" gradientUnits="userSpaceOnUse">
<stop stop-color="#8258C8"/>
<stop offset="1" stop-color="#2C84C8"/>
</linearGradient>
<linearGradient id="paint7_linear_4090_1279" x1="420.254" y1="287.844" x2="626.228" y2="319.018" gradientUnits="userSpaceOnUse">
<stop stop-color="#8258C8"/>
<stop offset="1" stop-color="#2C84C8"/>
</linearGradient>
<linearGradient id="paint8_linear_4090_1279" x1="420.254" y1="287.844" x2="626.228" y2="319.018" gradientUnits="userSpaceOnUse">
<stop stop-color="#8258C8"/>
<stop offset="1" stop-color="#2C84C8"/>
</linearGradient>
<linearGradient id="paint9_linear_4090_1279" x1="219.548" y1="287.844" x2="427.343" y2="319.585" gradientUnits="userSpaceOnUse">
<stop stop-color="#8258C8"/>
<stop offset="1" stop-color="#2C84C8"/>
</linearGradient>
<linearGradient id="paint10_linear_4090_1279" x1="219.548" y1="287.844" x2="427.343" y2="319.585" gradientUnits="userSpaceOnUse">
<stop stop-color="#8258C8"/>
<stop offset="1" stop-color="#2C84C8"/>
</linearGradient>
<linearGradient id="paint11_linear_4090_1279" x1="219.548" y1="287.844" x2="427.343" y2="319.585" gradientUnits="userSpaceOnUse">
<stop stop-color="#8258C8"/>
<stop offset="1" stop-color="#2C84C8"/>
</linearGradient>
<linearGradient id="paint12_linear_4090_1279" x1="13.9704" y1="287.844" x2="221.765" y2="319.585" gradientUnits="userSpaceOnUse">
<stop stop-color="#8258C8"/>
<stop offset="1" stop-color="#2C84C8"/>
</linearGradient>
<linearGradient id="paint13_linear_4090_1279" x1="13.9704" y1="287.844" x2="221.765" y2="319.585" gradientUnits="userSpaceOnUse">
<stop stop-color="#8258C8"/>
<stop offset="1" stop-color="#2C84C8"/>
</linearGradient>
<linearGradient id="paint14_linear_4090_1279" x1="13.9704" y1="287.844" x2="221.765" y2="319.585" gradientUnits="userSpaceOnUse">
<stop stop-color="#8258C8"/>
<stop offset="1" stop-color="#2C84C8"/>
</linearGradient>
<linearGradient id="paint15_linear_4090_1279" x1="219.548" y1="572.548" x2="427.343" y2="604.289" gradientUnits="userSpaceOnUse">
<stop stop-color="#8258C8"/>
<stop offset="1" stop-color="#2C84C8"/>
</linearGradient>
<linearGradient id="paint16_linear_4090_1279" x1="219.548" y1="572.548" x2="427.343" y2="604.289" gradientUnits="userSpaceOnUse">
<stop stop-color="#8258C8"/>
<stop offset="1" stop-color="#2C84C8"/>
</linearGradient>
<linearGradient id="paint17_linear_4090_1279" x1="219.548" y1="572.548" x2="427.343" y2="604.289" gradientUnits="userSpaceOnUse">
<stop stop-color="#8258C8"/>
<stop offset="1" stop-color="#2C84C8"/>
</linearGradient>
<linearGradient id="paint18_linear_4090_1279" x1="420.254" y1="572.548" x2="626.228" y2="603.723" gradientUnits="userSpaceOnUse">
<stop stop-color="#8258C8"/>
<stop offset="1" stop-color="#2C84C8"/>
</linearGradient>
<linearGradient id="paint19_linear_4090_1279" x1="420.254" y1="572.548" x2="626.228" y2="603.723" gradientUnits="userSpaceOnUse">
<stop stop-color="#8258C8"/>
<stop offset="1" stop-color="#2C84C8"/>
</linearGradient>
<linearGradient id="paint20_linear_4090_1279" x1="420.254" y1="572.548" x2="626.228" y2="603.723" gradientUnits="userSpaceOnUse">
<stop stop-color="#8258C8"/>
<stop offset="1" stop-color="#2C84C8"/>
</linearGradient>
<linearGradient id="paint21_linear_4090_1279" x1="420.254" y1="857.25" x2="626.228" y2="888.425" gradientUnits="userSpaceOnUse">
<stop stop-color="#8258C8"/>
<stop offset="1" stop-color="#2C84C8"/>
</linearGradient>
<linearGradient id="paint22_linear_4090_1279" x1="420.254" y1="857.25" x2="626.228" y2="888.425" gradientUnits="userSpaceOnUse">
<stop stop-color="#8258C8"/>
<stop offset="1" stop-color="#2C84C8"/>
</linearGradient>
<linearGradient id="paint23_linear_4090_1279" x1="420.254" y1="857.25" x2="626.228" y2="888.425" gradientUnits="userSpaceOnUse">
<stop stop-color="#8258C8"/>
<stop offset="1" stop-color="#2C84C8"/>
</linearGradient>
<linearGradient id="paint24_linear_4090_1279" x1="91.6691" y1="850.829" x2="299.464" y2="882.571" gradientUnits="userSpaceOnUse">
<stop stop-color="#8258C8"/>
<stop offset="1" stop-color="#2C84C8"/>
</linearGradient>
<linearGradient id="paint25_linear_4090_1279" x1="91.6691" y1="850.829" x2="299.464" y2="882.571" gradientUnits="userSpaceOnUse">
<stop stop-color="#8258C8"/>
<stop offset="1" stop-color="#2C84C8"/>
</linearGradient>
<linearGradient id="paint26_linear_4090_1279" x1="91.6691" y1="850.829" x2="299.464" y2="882.571" gradientUnits="userSpaceOnUse">
<stop stop-color="#8258C8"/>
<stop offset="1" stop-color="#2C84C8"/>
</linearGradient>
<linearGradient id="paint27_linear_4090_1279" x1="619.371" y1="572.548" x2="827.166" y2="604.289" gradientUnits="userSpaceOnUse">
<stop stop-color="#8258C8"/>
<stop offset="1" stop-color="#2C84C8"/>
</linearGradient>
<linearGradient id="paint28_linear_4090_1279" x1="619.371" y1="572.548" x2="827.166" y2="604.289" gradientUnits="userSpaceOnUse">
<stop stop-color="#8258C8"/>
<stop offset="1" stop-color="#2C84C8"/>
</linearGradient>
<linearGradient id="paint29_linear_4090_1279" x1="619.371" y1="572.548" x2="827.166" y2="604.289" gradientUnits="userSpaceOnUse">
<stop stop-color="#8258C8"/>
<stop offset="1" stop-color="#2C84C8"/>
</linearGradient>
<linearGradient id="paint30_linear_4090_1279" x1="420.254" y1="572.548" x2="626.228" y2="603.723" gradientUnits="userSpaceOnUse">
<stop stop-color="#8258C8"/>
<stop offset="1" stop-color="#2C84C8"/>
</linearGradient>
<linearGradient id="paint31_linear_4090_1279" x1="420.254" y1="572.548" x2="626.228" y2="603.723" gradientUnits="userSpaceOnUse">
<stop stop-color="#8258C8"/>
<stop offset="1" stop-color="#2C84C8"/>
</linearGradient>
<linearGradient id="paint32_linear_4090_1279" x1="420.254" y1="572.548" x2="626.228" y2="603.723" gradientUnits="userSpaceOnUse">
<stop stop-color="#8258C8"/>
<stop offset="1" stop-color="#2C84C8"/>
</linearGradient>
<linearGradient id="paint33_linear_4090_1279" x1="420.254" y1="857.25" x2="626.228" y2="888.425" gradientUnits="userSpaceOnUse">
<stop stop-color="#8258C8"/>
<stop offset="1" stop-color="#2C84C8"/>
</linearGradient>
<linearGradient id="paint34_linear_4090_1279" x1="420.254" y1="857.25" x2="626.228" y2="888.425" gradientUnits="userSpaceOnUse">
<stop stop-color="#8258C8"/>
<stop offset="1" stop-color="#2C84C8"/>
</linearGradient>
<linearGradient id="paint35_linear_4090_1279" x1="420.254" y1="857.25" x2="626.228" y2="888.425" gradientUnits="userSpaceOnUse">
<stop stop-color="#8258C8"/>
<stop offset="1" stop-color="#2C84C8"/>
</linearGradient>
<linearGradient id="paint36_linear_4090_1279" x1="420.254" y1="1124.83" x2="626.308" y2="1155.74" gradientUnits="userSpaceOnUse">
<stop stop-color="#8258C8"/>
<stop offset="1" stop-color="#2C84C8"/>
</linearGradient>
<linearGradient id="paint37_linear_4090_1279" x1="420.254" y1="1124.83" x2="626.308" y2="1155.74" gradientUnits="userSpaceOnUse">
<stop stop-color="#8258C8"/>
<stop offset="1" stop-color="#2C84C8"/>
</linearGradient>
<linearGradient id="paint38_linear_4090_1279" x1="420.254" y1="1124.83" x2="626.308" y2="1155.74" gradientUnits="userSpaceOnUse">
<stop stop-color="#8258C8"/>
<stop offset="1" stop-color="#2C84C8"/>
</linearGradient>
<linearGradient id="paint39_linear_4090_1279" x1="219.548" y1="1124.83" x2="427.425" y2="1156.31" gradientUnits="userSpaceOnUse">
<stop stop-color="#8258C8"/>
<stop offset="1" stop-color="#2C84C8"/>
</linearGradient>
<linearGradient id="paint40_linear_4090_1279" x1="219.548" y1="1124.83" x2="427.425" y2="1156.31" gradientUnits="userSpaceOnUse">
<stop stop-color="#8258C8"/>
<stop offset="1" stop-color="#2C84C8"/>
</linearGradient>
<linearGradient id="paint41_linear_4090_1279" x1="219.548" y1="1124.83" x2="427.425" y2="1156.31" gradientUnits="userSpaceOnUse">
<stop stop-color="#8258C8"/>
<stop offset="1" stop-color="#2C84C8"/>
</linearGradient>
<linearGradient id="paint42_linear_4090_1279" x1="2.63979" y1="1124.83" x2="210.517" y2="1156.31" gradientUnits="userSpaceOnUse">
<stop stop-color="#8258C8"/>
<stop offset="1" stop-color="#2C84C8"/>
</linearGradient>
<linearGradient id="paint43_linear_4090_1279" x1="2.63979" y1="1124.83" x2="210.517" y2="1156.31" gradientUnits="userSpaceOnUse">
<stop stop-color="#8258C8"/>
<stop offset="1" stop-color="#2C84C8"/>
</linearGradient>
<linearGradient id="paint44_linear_4090_1279" x1="2.63979" y1="1124.83" x2="210.517" y2="1156.31" gradientUnits="userSpaceOnUse">
<stop stop-color="#8258C8"/>
<stop offset="1" stop-color="#2C84C8"/>
</linearGradient>
<linearGradient id="paint45_linear_4090_1279" x1="91.6691" y1="850.829" x2="299.464" y2="882.571" gradientUnits="userSpaceOnUse">
<stop stop-color="#8258C8"/>
<stop offset="1" stop-color="#2C84C8"/>
</linearGradient>
<linearGradient id="paint46_linear_4090_1279" x1="91.6691" y1="850.829" x2="299.464" y2="882.571" gradientUnits="userSpaceOnUse">
<stop stop-color="#8258C8"/>
<stop offset="1" stop-color="#2C84C8"/>
</linearGradient>
<linearGradient id="paint47_linear_4090_1279" x1="91.6691" y1="850.829" x2="299.464" y2="882.571" gradientUnits="userSpaceOnUse">
<stop stop-color="#8258C8"/>
<stop offset="1" stop-color="#2C84C8"/>
</linearGradient>
</defs>
</svg>
