<svg width="367" height="310" viewBox="0 0 367 310" fill="none" xmlns="http://www.w3.org/2000/svg">
<circle cx="1.84863" cy="100.5" r="1.5" fill="white"/>
<circle cx="1.84863" cy="133.5" r="1.5" fill="white"/>
<circle cx="1.84863" cy="166.5" r="1.5" fill="white"/>
<circle cx="1.84863" cy="199.5" r="1.5" fill="white"/>
<circle cx="1.84863" cy="232.5" r="1.5" fill="white"/>
<circle cx="1.84863" cy="265.5" r="1.5" fill="white"/>
<circle cx="34.8486" cy="67.5" r="1.5" fill="white"/>
<circle cx="34.8486" cy="100.5" r="1.5" fill="white"/>
<circle cx="34.8486" cy="133.5" r="1.5" fill="white"/>
<circle cx="34.8486" cy="166.5" r="1.5" fill="white"/>
<circle cx="34.8486" cy="199.5" r="1.5" fill="white"/>
<circle cx="34.8486" cy="232.5" r="1.5" fill="white"/>
<circle cx="34.8486" cy="265.5" r="1.5" fill="white"/>
<circle cx="34.8486" cy="298.5" r="1.5" fill="white"/>
<circle cx="67.8486" cy="34.5" r="1.5" fill="white"/>
<circle cx="67.8486" cy="67.5" r="1.5" fill="white"/>
<circle cx="67.8486" cy="100.5" r="1.5" fill="white"/>
<circle cx="67.8486" cy="133.5" r="1.5" fill="white"/>
<circle cx="67.8486" cy="166.5" r="1.5" fill="white"/>
<circle cx="67.8486" cy="199.5" r="1.5" fill="white"/>
<circle cx="67.8486" cy="232.5" r="1.5" fill="white"/>
<circle cx="67.8486" cy="265.5" r="1.5" fill="white"/>
<circle cx="67.8486" cy="298.5" r="1.5" fill="white"/>
<circle cx="100.849" cy="1.5" r="1.5" fill="white"/>
<circle cx="100.849" cy="34.5" r="1.5" fill="white"/>
<circle cx="100.849" cy="67.5" r="1.5" fill="white"/>
<circle cx="100.849" cy="100.5" r="1.5" fill="white"/>
<circle cx="100.849" cy="133.5" r="1.5" fill="white"/>
<circle cx="100.849" cy="166.5" r="1.5" fill="white"/>
<circle cx="100.849" cy="199.5" r="1.5" fill="white"/>
<circle cx="100.849" cy="232.5" r="1.5" fill="white"/>
<circle cx="100.849" cy="265.5" r="1.5" fill="white"/>
<circle cx="100.849" cy="298.5" r="1.5" fill="white"/>
<circle cx="133.849" cy="1.5" r="1.5" fill="white"/>
<circle cx="133.849" cy="34.5" r="1.5" fill="white"/>
<circle cx="133.849" cy="67.5" r="1.5" fill="white"/>
<circle cx="133.849" cy="100.5" r="1.5" fill="white"/>
<circle cx="133.849" cy="133.5" r="1.5" fill="white"/>
<circle cx="133.849" cy="166.5" r="1.5" fill="white"/>
<circle cx="133.849" cy="199.5" r="1.5" fill="white"/>
<circle cx="133.849" cy="232.5" r="1.5" fill="white"/>
<circle cx="133.849" cy="265.5" r="1.5" fill="white"/>
<circle cx="133.849" cy="298.5" r="1.5" fill="white"/>
<circle cx="166.849" cy="1.5" r="1.5" fill="white"/>
<circle cx="166.849" cy="34.5" r="1.5" fill="white"/>
<circle cx="166.849" cy="67.5" r="1.5" fill="white"/>
<circle cx="166.849" cy="100.5" r="1.5" fill="white"/>
<circle cx="166.849" cy="133.5" r="1.5" fill="white"/>
<circle cx="166.849" cy="166.5" r="1.5" fill="white"/>
<circle cx="166.849" cy="199.5" r="1.5" fill="white"/>
<circle cx="166.849" cy="232.5" r="1.5" fill="white"/>
<circle cx="166.849" cy="265.5" r="1.5" fill="white"/>
<circle cx="166.849" cy="298.5" r="1.5" fill="white"/>
<circle cx="199.849" cy="1.5" r="1.5" fill="white"/>
<circle cx="199.849" cy="34.5" r="1.5" fill="white"/>
<circle cx="199.849" cy="67.5" r="1.5" fill="white"/>
<circle cx="199.849" cy="100.5" r="1.5" fill="white"/>
<circle cx="199.849" cy="133.5" r="1.5" fill="white"/>
<circle cx="199.849" cy="166.5" r="1.5" fill="white"/>
<circle cx="199.849" cy="199.5" r="1.5" fill="white"/>
<circle cx="199.849" cy="232.5" r="1.5" fill="white"/>
<circle cx="199.849" cy="265.5" r="1.5" fill="white"/>
<circle cx="199.849" cy="298.5" r="1.5" fill="white"/>
<circle cx="232.849" cy="1.5" r="1.5" fill="white"/>
<circle cx="232.849" cy="34.5" r="1.5" fill="white"/>
<circle cx="232.849" cy="67.5" r="1.5" fill="white"/>
<circle cx="232.849" cy="100.5" r="1.5" fill="white"/>
<circle cx="232.849" cy="133.5" r="1.5" fill="white"/>
<circle cx="232.849" cy="166.5" r="1.5" fill="white"/>
<circle cx="232.849" cy="199.5" r="1.5" fill="white"/>
<circle cx="232.849" cy="232.5" r="1.5" fill="white"/>
<circle cx="232.849" cy="265.5" r="1.5" fill="white"/>
<circle cx="232.849" cy="298.5" r="1.5" fill="white"/>
<circle cx="265.849" cy="1.5" r="1.5" fill="white"/>
<circle cx="265.849" cy="34.5" r="1.5" fill="white"/>
<circle cx="265.849" cy="67.5" r="1.5" fill="white"/>
<circle cx="265.849" cy="100.5" r="1.5" fill="white"/>
<circle cx="265.849" cy="133.5" r="1.5" fill="white"/>
<circle cx="265.849" cy="166.5" r="1.5" fill="white"/>
<circle cx="265.849" cy="199.5" r="1.5" fill="white"/>
<circle cx="265.849" cy="232.5" r="1.5" fill="white"/>
<circle cx="265.849" cy="265.5" r="1.5" fill="white"/>
<circle cx="265.849" cy="298.5" r="1.5" fill="white"/>
<circle cx="298.849" cy="34.5" r="1.5" fill="white"/>
<circle cx="298.849" cy="67.5" r="1.5" fill="white"/>
<circle cx="298.849" cy="100.5" r="1.5" fill="white"/>
<circle cx="298.849" cy="133.5" r="1.5" fill="white"/>
<circle cx="298.849" cy="166.5" r="1.5" fill="white"/>
<circle cx="298.849" cy="199.5" r="1.5" fill="white"/>
<circle cx="298.849" cy="232.5" r="1.5" fill="white"/>
<circle cx="298.849" cy="265.5" r="1.5" fill="white"/>
<circle cx="298.849" cy="298.5" r="1.5" fill="white"/>
<circle cx="331.849" cy="67.5" r="1.5" fill="white"/>
<circle cx="331.849" cy="100.5" r="1.5" fill="white"/>
<circle cx="331.849" cy="133.5" r="1.5" fill="white"/>
<circle cx="331.849" cy="166.5" r="1.5" fill="white"/>
<circle cx="331.849" cy="199.5" r="1.5" fill="white"/>
<circle cx="331.849" cy="232.5" r="1.5" fill="white"/>
<circle cx="331.849" cy="265.5" r="1.5" fill="white"/>
<circle cx="331.849" cy="298.5" r="1.5" fill="white"/>
<circle cx="364.849" cy="100.5" r="1.5" fill="white"/>
<circle cx="364.849" cy="133.5" r="1.5" fill="white"/>
<circle cx="364.849" cy="166.5" r="1.5" fill="white"/>
<circle cx="364.849" cy="199.5" r="1.5" fill="white"/>
<circle cx="364.849" cy="232.5" r="1.5" fill="white"/>
<circle cx="364.849" cy="265.5" r="1.5" fill="white"/>
</svg>
