<svg width="28" height="26" viewBox="0 0 28 26" fill="none" xmlns="http://www.w3.org/2000/svg">
<path d="M28 14C28 11.5735 27.3694 9.18875 26.1699 7.07948C24.9704 4.97021 23.2434 3.20891 21.1581 1.96828C19.0727 0.727661 16.7008 0.0503235 14.2748 0.00269707C11.8488 -0.0449294 9.45209 0.53879 7.31968 1.69661C5.18728 2.85443 3.39241 4.5466 2.1111 6.60716C0.829785 8.66773 0.106022 11.0259 0.0107872 13.4505C-0.0844474 15.8751 0.452117 18.2828 1.56786 20.4375C2.6836 22.5923 4.34021 24.42 6.37523 25.7415L6.95236 24.8528C5.07137 23.6313 3.54015 21.9419 2.50886 19.9503C1.47757 17.9586 0.981621 15.7332 1.06965 13.4921C1.15767 11.251 1.82665 9.07133 3.01098 7.16674C4.19531 5.26214 5.85433 3.69805 7.82532 2.62787C9.79632 1.55768 12.0116 1.01815 14.254 1.06217C16.4964 1.10619 18.6888 1.73226 20.6163 2.87898C22.5437 4.0257 24.1401 5.65369 25.2487 7.6033C26.3574 9.55292 26.9403 11.7572 26.9403 14H28Z" fill="#AEB5BF"/>
</svg>
