<svg width="647" height="844" viewBox="0 0 647 844" fill="none" xmlns="http://www.w3.org/2000/svg">
<path d="M43.0505 50.0585L10.2144 1.04046L46.6196 1L79.4558 50.0585H43.0505Z" stroke="url(#paint0_linear_4320_143)"/>
<path d="M150.839 1H116.575L10.2144 151.061H48.7611L150.839 1Z" stroke="url(#paint1_linear_4320_143)"/>
<path d="M116.575 151.061L85.1664 102.724H120.144L153.694 151.061H116.575Z" stroke="url(#paint2_linear_4320_143)"/>
<path d="M205.26 56.2102L172.123 7.62213L208.862 7.58203L241.999 56.2102H205.26Z" stroke="url(#paint3_linear_4320_143)"/>
<path d="M314.037 7.58203H279.459L172.123 156.327H211.023L314.037 7.58203Z" stroke="url(#paint4_linear_4320_143)"/>
<path d="M279.459 156.327L247.762 108.414H283.061L316.918 156.327H279.459Z" stroke="url(#paint5_linear_4320_143)"/>
<path d="M373.147 226.447L340.612 177.429L376.684 177.389L409.218 226.447H373.147Z" stroke="url(#paint6_linear_4320_143)"/>
<path d="M479.946 177.389H445.997L340.612 327.45H378.805L479.946 177.389Z" stroke="url(#paint7_linear_4320_143)"/>
<path d="M445.997 327.45L414.877 279.113H449.533L482.776 327.45H445.997Z" stroke="url(#paint8_linear_4320_143)"/>
<path d="M210.224 226.447L177.388 177.429L213.793 177.389L246.629 226.447H210.224Z" stroke="url(#paint9_linear_4320_143)"/>
<path d="M318.012 177.389H283.748L177.388 327.45H215.934L318.012 177.389Z" stroke="url(#paint10_linear_4320_143)"/>
<path d="M283.748 327.45L252.34 279.113H287.317L320.867 327.45H283.748Z" stroke="url(#paint11_linear_4320_143)"/>
<path d="M43.0505 226.447L10.2144 177.429L46.6196 177.389L79.4558 226.447H43.0505Z" stroke="url(#paint12_linear_4320_143)"/>
<path d="M150.839 177.389H116.575L10.2144 327.45H48.7611L150.839 177.389Z" stroke="url(#paint13_linear_4320_143)"/>
<path d="M116.575 327.45L85.1664 279.113H120.144L153.694 327.45H116.575Z" stroke="url(#paint14_linear_4320_143)"/>
<path d="M210.224 401.517L177.388 352.499L213.793 352.459L246.629 401.517H210.224Z" stroke="url(#paint15_linear_4320_143)"/>
<path d="M318.012 352.459H283.748L177.388 502.52H215.934L318.012 352.459Z" stroke="url(#paint16_linear_4320_143)"/>
<path d="M283.748 502.52L252.34 454.183H287.317L320.867 502.52H283.748Z" stroke="url(#paint17_linear_4320_143)"/>
<path d="M373.147 401.517L340.612 352.499L376.684 352.459L409.218 401.517H373.147Z" stroke="url(#paint18_linear_4320_143)"/>
<path d="M479.946 352.459H445.997L340.612 502.52H378.805L479.946 352.459Z" stroke="url(#paint19_linear_4320_143)"/>
<path d="M445.997 502.52L414.877 454.183H449.533L482.776 502.52H445.997Z" stroke="url(#paint20_linear_4320_143)"/>
<path d="M373.147 576.59L340.612 527.572L376.684 527.531L409.218 576.59H373.147Z" stroke="url(#paint21_linear_4320_143)"/>
<path d="M479.946 527.531H445.997L340.612 677.592H378.805L479.946 527.531Z" stroke="url(#paint22_linear_4320_143)"/>
<path d="M445.997 677.592L414.877 629.255H449.533L482.776 677.592H445.997Z" stroke="url(#paint23_linear_4320_143)"/>
<path d="M106.234 572.641L73.3979 523.622L109.803 523.582L142.639 572.641H106.234Z" stroke="url(#paint24_linear_4320_143)"/>
<path d="M214.022 523.582H179.758L73.3979 673.643H111.945L214.022 523.582Z" stroke="url(#paint25_linear_4320_143)"/>
<path d="M179.758 673.643L148.35 625.306H183.328L216.878 673.643H179.758Z" stroke="url(#paint26_linear_4320_143)"/>
<path d="M535.357 401.517L502.521 352.499L538.926 352.459L571.762 401.517H535.357Z" stroke="url(#paint27_linear_4320_143)"/>
<path d="M643.145 352.459H608.881L502.521 502.52H541.067L643.145 352.459Z" stroke="url(#paint28_linear_4320_143)"/>
<path d="M608.881 502.52L577.473 454.183H612.45L646 502.52H608.881Z" stroke="url(#paint29_linear_4320_143)"/>
<path d="M373.147 401.517L340.612 352.499L376.684 352.459L409.218 401.517H373.147Z" stroke="url(#paint30_linear_4320_143)"/>
<path d="M479.946 352.459H445.997L340.612 502.52H378.805L479.946 352.459Z" stroke="url(#paint31_linear_4320_143)"/>
<path d="M445.997 502.52L414.877 454.183H449.533L482.776 502.52H445.997Z" stroke="url(#paint32_linear_4320_143)"/>
<path d="M373.147 576.59L340.612 527.572L376.684 527.531L409.218 576.59H373.147Z" stroke="url(#paint33_linear_4320_143)"/>
<path d="M479.946 527.531H445.997L340.612 677.592H378.805L479.946 527.531Z" stroke="url(#paint34_linear_4320_143)"/>
<path d="M445.997 677.592L414.877 629.255H449.533L482.776 677.592H445.997Z" stroke="url(#paint35_linear_4320_143)"/>
<path d="M373.147 741.561L340.612 692.113L376.684 692.072L409.218 741.561H373.147Z" stroke="url(#paint36_linear_4320_143)"/>
<path d="M479.946 692.072H445.997L340.612 843.45H378.805L479.946 692.072Z" stroke="url(#paint37_linear_4320_143)"/>
<path d="M445.997 843.45L414.877 794.689H449.533L482.776 843.45H445.997Z" stroke="url(#paint38_linear_4320_143)"/>
<path d="M210.224 741.561L177.388 692.113L213.793 692.072L246.629 741.561H210.224Z" stroke="url(#paint39_linear_4320_143)"/>
<path d="M318.012 692.072H283.748L177.388 843.45H215.934L318.012 692.072Z" stroke="url(#paint40_linear_4320_143)"/>
<path d="M283.748 843.45L252.34 794.689H287.317L320.867 843.45H283.748Z" stroke="url(#paint41_linear_4320_143)"/>
<path d="M33.8361 741.561L1 692.113L37.4053 692.072L70.2414 741.561H33.8361Z" stroke="url(#paint42_linear_4320_143)"/>
<path d="M141.624 692.072H107.36L1 843.45H39.5468L141.624 692.072Z" stroke="url(#paint43_linear_4320_143)"/>
<path d="M107.36 843.45L75.952 794.689H110.93L144.48 843.45H107.36Z" stroke="url(#paint44_linear_4320_143)"/>
<path d="M106.234 572.641L73.3979 523.622L109.803 523.582L142.639 572.641H106.234Z" stroke="url(#paint45_linear_4320_143)"/>
<path d="M214.022 523.582H179.758L73.3979 673.643H111.945L214.022 523.582Z" stroke="url(#paint46_linear_4320_143)"/>
<path d="M179.758 673.643L148.35 625.306H183.328L216.878 673.643H179.758Z" stroke="url(#paint47_linear_4320_143)"/>
<defs>
<linearGradient id="paint0_linear_4320_143" x1="11.5478" y1="0.999973" x2="177.688" y2="34.5612" gradientUnits="userSpaceOnUse">
<stop stop-color="#8258C8"/>
<stop offset="1" stop-color="#2C84C8"/>
</linearGradient>
<linearGradient id="paint1_linear_4320_143" x1="11.5478" y1="0.999973" x2="177.688" y2="34.5612" gradientUnits="userSpaceOnUse">
<stop stop-color="#8258C8"/>
<stop offset="1" stop-color="#2C84C8"/>
</linearGradient>
<linearGradient id="paint2_linear_4320_143" x1="11.5478" y1="0.999973" x2="177.688" y2="34.5612" gradientUnits="userSpaceOnUse">
<stop stop-color="#8258C8"/>
<stop offset="1" stop-color="#2C84C8"/>
</linearGradient>
<linearGradient id="paint3_linear_4320_143" x1="173.468" y1="7.582" x2="340.893" y2="42.015" gradientUnits="userSpaceOnUse">
<stop stop-color="#8258C8"/>
<stop offset="1" stop-color="#2C84C8"/>
</linearGradient>
<linearGradient id="paint4_linear_4320_143" x1="173.468" y1="7.582" x2="340.893" y2="42.015" gradientUnits="userSpaceOnUse">
<stop stop-color="#8258C8"/>
<stop offset="1" stop-color="#2C84C8"/>
</linearGradient>
<linearGradient id="paint5_linear_4320_143" x1="173.468" y1="7.582" x2="340.893" y2="42.015" gradientUnits="userSpaceOnUse">
<stop stop-color="#8258C8"/>
<stop offset="1" stop-color="#2C84C8"/>
</linearGradient>
<linearGradient id="paint6_linear_4320_143" x1="341.934" y1="177.389" x2="506.668" y2="210.361" gradientUnits="userSpaceOnUse">
<stop stop-color="#8258C8"/>
<stop offset="1" stop-color="#2C84C8"/>
</linearGradient>
<linearGradient id="paint7_linear_4320_143" x1="341.934" y1="177.389" x2="506.668" y2="210.361" gradientUnits="userSpaceOnUse">
<stop stop-color="#8258C8"/>
<stop offset="1" stop-color="#2C84C8"/>
</linearGradient>
<linearGradient id="paint8_linear_4320_143" x1="341.934" y1="177.389" x2="506.668" y2="210.361" gradientUnits="userSpaceOnUse">
<stop stop-color="#8258C8"/>
<stop offset="1" stop-color="#2C84C8"/>
</linearGradient>
<linearGradient id="paint9_linear_4320_143" x1="178.721" y1="177.389" x2="344.862" y2="210.95" gradientUnits="userSpaceOnUse">
<stop stop-color="#8258C8"/>
<stop offset="1" stop-color="#2C84C8"/>
</linearGradient>
<linearGradient id="paint10_linear_4320_143" x1="178.721" y1="177.389" x2="344.862" y2="210.95" gradientUnits="userSpaceOnUse">
<stop stop-color="#8258C8"/>
<stop offset="1" stop-color="#2C84C8"/>
</linearGradient>
<linearGradient id="paint11_linear_4320_143" x1="178.721" y1="177.389" x2="344.862" y2="210.95" gradientUnits="userSpaceOnUse">
<stop stop-color="#8258C8"/>
<stop offset="1" stop-color="#2C84C8"/>
</linearGradient>
<linearGradient id="paint12_linear_4320_143" x1="11.5478" y1="177.389" x2="177.688" y2="210.95" gradientUnits="userSpaceOnUse">
<stop stop-color="#8258C8"/>
<stop offset="1" stop-color="#2C84C8"/>
</linearGradient>
<linearGradient id="paint13_linear_4320_143" x1="11.5478" y1="177.389" x2="177.688" y2="210.95" gradientUnits="userSpaceOnUse">
<stop stop-color="#8258C8"/>
<stop offset="1" stop-color="#2C84C8"/>
</linearGradient>
<linearGradient id="paint14_linear_4320_143" x1="11.5478" y1="177.389" x2="177.688" y2="210.95" gradientUnits="userSpaceOnUse">
<stop stop-color="#8258C8"/>
<stop offset="1" stop-color="#2C84C8"/>
</linearGradient>
<linearGradient id="paint15_linear_4320_143" x1="178.721" y1="352.459" x2="344.862" y2="386.02" gradientUnits="userSpaceOnUse">
<stop stop-color="#8258C8"/>
<stop offset="1" stop-color="#2C84C8"/>
</linearGradient>
<linearGradient id="paint16_linear_4320_143" x1="178.721" y1="352.459" x2="344.862" y2="386.02" gradientUnits="userSpaceOnUse">
<stop stop-color="#8258C8"/>
<stop offset="1" stop-color="#2C84C8"/>
</linearGradient>
<linearGradient id="paint17_linear_4320_143" x1="178.721" y1="352.459" x2="344.862" y2="386.02" gradientUnits="userSpaceOnUse">
<stop stop-color="#8258C8"/>
<stop offset="1" stop-color="#2C84C8"/>
</linearGradient>
<linearGradient id="paint18_linear_4320_143" x1="341.934" y1="352.459" x2="506.668" y2="385.431" gradientUnits="userSpaceOnUse">
<stop stop-color="#8258C8"/>
<stop offset="1" stop-color="#2C84C8"/>
</linearGradient>
<linearGradient id="paint19_linear_4320_143" x1="341.934" y1="352.459" x2="506.668" y2="385.431" gradientUnits="userSpaceOnUse">
<stop stop-color="#8258C8"/>
<stop offset="1" stop-color="#2C84C8"/>
</linearGradient>
<linearGradient id="paint20_linear_4320_143" x1="341.934" y1="352.459" x2="506.668" y2="385.431" gradientUnits="userSpaceOnUse">
<stop stop-color="#8258C8"/>
<stop offset="1" stop-color="#2C84C8"/>
</linearGradient>
<linearGradient id="paint21_linear_4320_143" x1="341.934" y1="527.531" x2="506.668" y2="560.503" gradientUnits="userSpaceOnUse">
<stop stop-color="#8258C8"/>
<stop offset="1" stop-color="#2C84C8"/>
</linearGradient>
<linearGradient id="paint22_linear_4320_143" x1="341.934" y1="527.531" x2="506.668" y2="560.503" gradientUnits="userSpaceOnUse">
<stop stop-color="#8258C8"/>
<stop offset="1" stop-color="#2C84C8"/>
</linearGradient>
<linearGradient id="paint23_linear_4320_143" x1="341.934" y1="527.531" x2="506.668" y2="560.503" gradientUnits="userSpaceOnUse">
<stop stop-color="#8258C8"/>
<stop offset="1" stop-color="#2C84C8"/>
</linearGradient>
<linearGradient id="paint24_linear_4320_143" x1="74.7314" y1="523.582" x2="240.872" y2="557.143" gradientUnits="userSpaceOnUse">
<stop stop-color="#8258C8"/>
<stop offset="1" stop-color="#2C84C8"/>
</linearGradient>
<linearGradient id="paint25_linear_4320_143" x1="74.7314" y1="523.582" x2="240.872" y2="557.143" gradientUnits="userSpaceOnUse">
<stop stop-color="#8258C8"/>
<stop offset="1" stop-color="#2C84C8"/>
</linearGradient>
<linearGradient id="paint26_linear_4320_143" x1="74.7314" y1="523.582" x2="240.872" y2="557.143" gradientUnits="userSpaceOnUse">
<stop stop-color="#8258C8"/>
<stop offset="1" stop-color="#2C84C8"/>
</linearGradient>
<linearGradient id="paint27_linear_4320_143" x1="503.854" y1="352.459" x2="669.995" y2="386.02" gradientUnits="userSpaceOnUse">
<stop stop-color="#8258C8"/>
<stop offset="1" stop-color="#2C84C8"/>
</linearGradient>
<linearGradient id="paint28_linear_4320_143" x1="503.854" y1="352.459" x2="669.995" y2="386.02" gradientUnits="userSpaceOnUse">
<stop stop-color="#8258C8"/>
<stop offset="1" stop-color="#2C84C8"/>
</linearGradient>
<linearGradient id="paint29_linear_4320_143" x1="503.854" y1="352.459" x2="669.995" y2="386.02" gradientUnits="userSpaceOnUse">
<stop stop-color="#8258C8"/>
<stop offset="1" stop-color="#2C84C8"/>
</linearGradient>
<linearGradient id="paint30_linear_4320_143" x1="341.934" y1="352.459" x2="506.668" y2="385.431" gradientUnits="userSpaceOnUse">
<stop stop-color="#8258C8"/>
<stop offset="1" stop-color="#2C84C8"/>
</linearGradient>
<linearGradient id="paint31_linear_4320_143" x1="341.934" y1="352.459" x2="506.668" y2="385.431" gradientUnits="userSpaceOnUse">
<stop stop-color="#8258C8"/>
<stop offset="1" stop-color="#2C84C8"/>
</linearGradient>
<linearGradient id="paint32_linear_4320_143" x1="341.934" y1="352.459" x2="506.668" y2="385.431" gradientUnits="userSpaceOnUse">
<stop stop-color="#8258C8"/>
<stop offset="1" stop-color="#2C84C8"/>
</linearGradient>
<linearGradient id="paint33_linear_4320_143" x1="341.934" y1="527.531" x2="506.668" y2="560.503" gradientUnits="userSpaceOnUse">
<stop stop-color="#8258C8"/>
<stop offset="1" stop-color="#2C84C8"/>
</linearGradient>
<linearGradient id="paint34_linear_4320_143" x1="341.934" y1="527.531" x2="506.668" y2="560.503" gradientUnits="userSpaceOnUse">
<stop stop-color="#8258C8"/>
<stop offset="1" stop-color="#2C84C8"/>
</linearGradient>
<linearGradient id="paint35_linear_4320_143" x1="341.934" y1="527.531" x2="506.668" y2="560.503" gradientUnits="userSpaceOnUse">
<stop stop-color="#8258C8"/>
<stop offset="1" stop-color="#2C84C8"/>
</linearGradient>
<linearGradient id="paint36_linear_4320_143" x1="341.934" y1="692.072" x2="506.778" y2="724.779" gradientUnits="userSpaceOnUse">
<stop stop-color="#8258C8"/>
<stop offset="1" stop-color="#2C84C8"/>
</linearGradient>
<linearGradient id="paint37_linear_4320_143" x1="341.934" y1="692.072" x2="506.778" y2="724.779" gradientUnits="userSpaceOnUse">
<stop stop-color="#8258C8"/>
<stop offset="1" stop-color="#2C84C8"/>
</linearGradient>
<linearGradient id="paint38_linear_4320_143" x1="341.934" y1="692.072" x2="506.778" y2="724.779" gradientUnits="userSpaceOnUse">
<stop stop-color="#8258C8"/>
<stop offset="1" stop-color="#2C84C8"/>
</linearGradient>
<linearGradient id="paint39_linear_4320_143" x1="178.721" y1="692.072" x2="344.975" y2="725.364" gradientUnits="userSpaceOnUse">
<stop stop-color="#8258C8"/>
<stop offset="1" stop-color="#2C84C8"/>
</linearGradient>
<linearGradient id="paint40_linear_4320_143" x1="178.721" y1="692.072" x2="344.975" y2="725.364" gradientUnits="userSpaceOnUse">
<stop stop-color="#8258C8"/>
<stop offset="1" stop-color="#2C84C8"/>
</linearGradient>
<linearGradient id="paint41_linear_4320_143" x1="178.721" y1="692.072" x2="344.975" y2="725.364" gradientUnits="userSpaceOnUse">
<stop stop-color="#8258C8"/>
<stop offset="1" stop-color="#2C84C8"/>
</linearGradient>
<linearGradient id="paint42_linear_4320_143" x1="2.33346" y1="692.072" x2="168.587" y2="725.364" gradientUnits="userSpaceOnUse">
<stop stop-color="#8258C8"/>
<stop offset="1" stop-color="#2C84C8"/>
</linearGradient>
<linearGradient id="paint43_linear_4320_143" x1="2.33346" y1="692.072" x2="168.587" y2="725.364" gradientUnits="userSpaceOnUse">
<stop stop-color="#8258C8"/>
<stop offset="1" stop-color="#2C84C8"/>
</linearGradient>
<linearGradient id="paint44_linear_4320_143" x1="2.33346" y1="692.072" x2="168.587" y2="725.364" gradientUnits="userSpaceOnUse">
<stop stop-color="#8258C8"/>
<stop offset="1" stop-color="#2C84C8"/>
</linearGradient>
<linearGradient id="paint45_linear_4320_143" x1="74.7314" y1="523.582" x2="240.872" y2="557.143" gradientUnits="userSpaceOnUse">
<stop stop-color="#8258C8"/>
<stop offset="1" stop-color="#2C84C8"/>
</linearGradient>
<linearGradient id="paint46_linear_4320_143" x1="74.7314" y1="523.582" x2="240.872" y2="557.143" gradientUnits="userSpaceOnUse">
<stop stop-color="#8258C8"/>
<stop offset="1" stop-color="#2C84C8"/>
</linearGradient>
<linearGradient id="paint47_linear_4320_143" x1="74.7314" y1="523.582" x2="240.872" y2="557.143" gradientUnits="userSpaceOnUse">
<stop stop-color="#8258C8"/>
<stop offset="1" stop-color="#2C84C8"/>
</linearGradient>
</defs>
</svg>
