<svg width="366" height="366" viewBox="0 0 366 366" fill="none" xmlns="http://www.w3.org/2000/svg">
<circle cx="1.5" cy="100.5" r="1.5" fill="white"/>
<circle cx="1.5" cy="133.5" r="1.5" fill="white"/>
<circle cx="1.5" cy="166.5" r="1.5" fill="white"/>
<circle cx="1.5" cy="199.5" r="1.5" fill="white"/>
<circle cx="1.5" cy="232.5" r="1.5" fill="white"/>
<circle cx="1.5" cy="265.5" r="1.5" fill="white"/>
<circle cx="34.5" cy="67.5" r="1.5" fill="white"/>
<circle cx="34.5" cy="100.5" r="1.5" fill="white"/>
<circle cx="34.5" cy="133.5" r="1.5" fill="white"/>
<circle cx="34.5" cy="166.5" r="1.5" fill="white"/>
<circle cx="34.5" cy="199.5" r="1.5" fill="white"/>
<circle cx="34.5" cy="232.5" r="1.5" fill="white"/>
<circle cx="34.5" cy="265.5" r="1.5" fill="white"/>
<circle cx="34.5" cy="298.5" r="1.5" fill="white"/>
<circle cx="67.5" cy="34.5" r="1.5" fill="white"/>
<circle cx="67.5" cy="67.5" r="1.5" fill="white"/>
<circle cx="67.5" cy="100.5" r="1.5" fill="white"/>
<circle cx="67.5" cy="133.5" r="1.5" fill="white"/>
<circle cx="67.5" cy="166.5" r="1.5" fill="white"/>
<circle cx="67.5" cy="199.5" r="1.5" fill="white"/>
<circle cx="67.5" cy="232.5" r="1.5" fill="white"/>
<circle cx="67.5" cy="265.5" r="1.5" fill="white"/>
<circle cx="67.5" cy="298.5" r="1.5" fill="white"/>
<circle cx="67.5" cy="331.5" r="1.5" fill="white"/>
<circle cx="100.5" cy="1.5" r="1.5" fill="white"/>
<circle cx="100.5" cy="34.5" r="1.5" fill="white"/>
<circle cx="100.5" cy="67.5" r="1.5" fill="white"/>
<circle cx="100.5" cy="100.5" r="1.5" fill="white"/>
<circle cx="100.5" cy="133.5" r="1.5" fill="white"/>
<circle cx="100.5" cy="166.5" r="1.5" fill="white"/>
<circle cx="100.5" cy="199.5" r="1.5" fill="white"/>
<circle cx="100.5" cy="232.5" r="1.5" fill="white"/>
<circle cx="100.5" cy="265.5" r="1.5" fill="white"/>
<circle cx="100.5" cy="298.5" r="1.5" fill="white"/>
<circle cx="100.5" cy="331.5" r="1.5" fill="white"/>
<circle cx="100.5" cy="364.5" r="1.5" fill="white"/>
<circle cx="133.5" cy="1.5" r="1.5" fill="white"/>
<circle cx="133.5" cy="34.5" r="1.5" fill="white"/>
<circle cx="133.5" cy="67.5" r="1.5" fill="white"/>
<circle cx="133.5" cy="100.5" r="1.5" fill="white"/>
<circle cx="133.5" cy="133.5" r="1.5" fill="white"/>
<circle cx="133.5" cy="166.5" r="1.5" fill="white"/>
<circle cx="133.5" cy="199.5" r="1.5" fill="white"/>
<circle cx="133.5" cy="232.5" r="1.5" fill="white"/>
<circle cx="133.5" cy="265.5" r="1.5" fill="white"/>
<circle cx="133.5" cy="298.5" r="1.5" fill="white"/>
<circle cx="133.5" cy="331.5" r="1.5" fill="white"/>
<circle cx="133.5" cy="364.5" r="1.5" fill="white"/>
<circle cx="166.5" cy="1.5" r="1.5" fill="white"/>
<circle cx="166.5" cy="34.5" r="1.5" fill="white"/>
<circle cx="166.5" cy="67.5" r="1.5" fill="white"/>
<circle cx="166.5" cy="100.5" r="1.5" fill="white"/>
<circle cx="166.5" cy="133.5" r="1.5" fill="white"/>
<circle cx="166.5" cy="166.5" r="1.5" fill="white"/>
<circle cx="166.5" cy="199.5" r="1.5" fill="white"/>
<circle cx="166.5" cy="232.5" r="1.5" fill="white"/>
<circle cx="166.5" cy="265.5" r="1.5" fill="white"/>
<circle cx="166.5" cy="298.5" r="1.5" fill="white"/>
<circle cx="166.5" cy="331.5" r="1.5" fill="white"/>
<circle cx="166.5" cy="364.5" r="1.5" fill="white"/>
<circle cx="199.5" cy="1.5" r="1.5" fill="white"/>
<circle cx="199.5" cy="34.5" r="1.5" fill="white"/>
<circle cx="199.5" cy="67.5" r="1.5" fill="white"/>
<circle cx="199.5" cy="100.5" r="1.5" fill="white"/>
<circle cx="199.5" cy="133.5" r="1.5" fill="white"/>
<circle cx="199.5" cy="166.5" r="1.5" fill="white"/>
<circle cx="199.5" cy="199.5" r="1.5" fill="white"/>
<circle cx="199.5" cy="232.5" r="1.5" fill="white"/>
<circle cx="199.5" cy="265.5" r="1.5" fill="white"/>
<circle cx="199.5" cy="298.5" r="1.5" fill="white"/>
<circle cx="199.5" cy="331.5" r="1.5" fill="white"/>
<circle cx="199.5" cy="364.5" r="1.5" fill="white"/>
<circle cx="232.5" cy="1.5" r="1.5" fill="white"/>
<circle cx="232.5" cy="34.5" r="1.5" fill="white"/>
<circle cx="232.5" cy="67.5" r="1.5" fill="white"/>
<circle cx="232.5" cy="100.5" r="1.5" fill="white"/>
<circle cx="232.5" cy="133.5" r="1.5" fill="white"/>
<circle cx="232.5" cy="166.5" r="1.5" fill="white"/>
<circle cx="232.5" cy="199.5" r="1.5" fill="white"/>
<circle cx="232.5" cy="232.5" r="1.5" fill="white"/>
<circle cx="232.5" cy="265.5" r="1.5" fill="white"/>
<circle cx="232.5" cy="298.5" r="1.5" fill="white"/>
<circle cx="232.5" cy="331.5" r="1.5" fill="white"/>
<circle cx="232.5" cy="364.5" r="1.5" fill="white"/>
<circle cx="265.5" cy="1.5" r="1.5" fill="white"/>
<circle cx="265.5" cy="34.5" r="1.5" fill="white"/>
<circle cx="265.5" cy="67.5" r="1.5" fill="white"/>
<circle cx="265.5" cy="100.5" r="1.5" fill="white"/>
<circle cx="265.5" cy="133.5" r="1.5" fill="white"/>
<circle cx="265.5" cy="166.5" r="1.5" fill="white"/>
<circle cx="265.5" cy="199.5" r="1.5" fill="white"/>
<circle cx="265.5" cy="232.5" r="1.5" fill="white"/>
<circle cx="265.5" cy="265.5" r="1.5" fill="white"/>
<circle cx="265.5" cy="298.5" r="1.5" fill="white"/>
<circle cx="265.5" cy="331.5" r="1.5" fill="white"/>
<circle cx="265.5" cy="364.5" r="1.5" fill="white"/>
<circle cx="298.5" cy="34.5" r="1.5" fill="white"/>
<circle cx="298.5" cy="67.5" r="1.5" fill="white"/>
<circle cx="298.5" cy="100.5" r="1.5" fill="white"/>
<circle cx="298.5" cy="133.5" r="1.5" fill="white"/>
<circle cx="298.5" cy="166.5" r="1.5" fill="white"/>
<circle cx="298.5" cy="199.5" r="1.5" fill="white"/>
<circle cx="298.5" cy="232.5" r="1.5" fill="white"/>
<circle cx="298.5" cy="265.5" r="1.5" fill="white"/>
<circle cx="298.5" cy="298.5" r="1.5" fill="white"/>
<circle cx="298.5" cy="331.5" r="1.5" fill="white"/>
<circle cx="331.5" cy="67.5" r="1.5" fill="white"/>
<circle cx="331.5" cy="100.5" r="1.5" fill="white"/>
<circle cx="331.5" cy="133.5" r="1.5" fill="white"/>
<circle cx="331.5" cy="166.5" r="1.5" fill="white"/>
<circle cx="331.5" cy="199.5" r="1.5" fill="white"/>
<circle cx="331.5" cy="232.5" r="1.5" fill="white"/>
<circle cx="331.5" cy="265.5" r="1.5" fill="white"/>
<circle cx="331.5" cy="298.5" r="1.5" fill="white"/>
<circle cx="364.5" cy="100.5" r="1.5" fill="white"/>
<circle cx="364.5" cy="133.5" r="1.5" fill="white"/>
<circle cx="364.5" cy="166.5" r="1.5" fill="white"/>
<circle cx="364.5" cy="199.5" r="1.5" fill="white"/>
<circle cx="364.5" cy="232.5" r="1.5" fill="white"/>
<circle cx="364.5" cy="265.5" r="1.5" fill="white"/>
</svg>
