<svg width="708" height="116" viewBox="0 0 708 116" fill="none" xmlns="http://www.w3.org/2000/svg">
<mask id="path-1-outside-1_4351_299" maskUnits="userSpaceOnUse" x="0" y="0" width="708" height="116" fill="black">
<rect fill="white" width="708" height="116"/>
<path d="M37.775 114.25C27.775 114.25 19.65 112 13.4 107.5C7.15 103 3.35 96.675 2 88.525L20.45 85.675C21.4 89.675 23.5 92.825 26.75 95.125C30 97.425 34.1 98.575 39.05 98.575C43.4 98.575 46.75 97.725 49.1 96.025C51.5 94.275 52.7 91.9 52.7 88.9C52.7 87.05 52.25 85.575 51.35 84.475C50.5 83.325 48.6 82.225 45.65 81.175C42.7 80.125 38.175 78.8 32.075 77.2C25.275 75.4 19.875 73.475 15.875 71.425C11.875 69.325 9 66.85 7.25 64C5.5 61.15 4.625 57.7 4.625 53.65C4.625 48.6 5.95 44.2 8.6 40.45C11.25 36.7 14.95 33.825 19.7 31.825C24.45 29.775 30.05 28.75 36.5 28.75C42.8 28.75 48.375 29.725 53.225 31.675C58.125 33.625 62.075 36.4 65.075 40C68.075 43.6 69.925 47.825 70.625 52.675L52.175 55.975C51.725 52.525 50.15 49.8 47.45 47.8C44.8 45.8 41.25 44.675 36.8 44.425C32.55 44.175 29.125 44.825 26.525 46.375C23.925 47.875 22.625 50 22.625 52.75C22.625 54.3 23.15 55.625 24.2 56.725C25.25 57.825 27.35 58.925 30.5 60.025C33.7 61.125 38.45 62.475 44.75 64.075C51.2 65.725 56.35 67.625 60.2 69.775C64.1 71.875 66.9 74.4 68.6 77.35C70.35 80.3 71.225 83.875 71.225 88.075C71.225 96.225 68.25 102.625 62.3 107.275C56.4 111.925 48.225 114.25 37.775 114.25ZM81.6523 18.7V2.125H99.7273V18.7H81.6523ZM81.6523 112V31H99.7273V112H81.6523ZM170.718 112V73C170.718 70.45 170.543 67.625 170.193 64.525C169.843 61.425 169.018 58.45 167.718 55.6C166.468 52.7 164.568 50.325 162.018 48.475C159.518 46.625 156.118 45.7 151.818 45.7C149.518 45.7 147.243 46.075 144.993 46.825C142.743 47.575 140.693 48.875 138.843 50.725C137.043 52.525 135.593 55.025 134.493 58.225C133.393 61.375 132.843 65.425 132.843 70.375L122.118 65.8C122.118 58.9 123.443 52.65 126.093 47.05C128.793 41.45 132.743 37 137.943 33.7C143.143 30.35 149.543 28.675 157.143 28.675C163.143 28.675 168.093 29.675 171.993 31.675C175.893 33.675 178.993 36.225 181.293 39.325C183.593 42.425 185.293 45.725 186.393 49.225C187.493 52.725 188.193 56.05 188.493 59.2C188.843 62.3 189.018 64.825 189.018 66.775V112H170.718ZM114.543 112V31H130.668V56.125H132.843V112H114.543ZM234.946 114.25C226.596 114.25 219.471 112.4 213.571 108.7C207.671 104.95 203.146 99.85 199.996 93.4C196.896 86.95 195.321 79.65 195.271 71.5C195.321 63.2 196.946 55.85 200.146 49.45C203.396 43 207.996 37.95 213.946 34.3C219.896 30.6 226.971 28.75 235.171 28.75C244.371 28.75 252.146 31.075 258.496 35.725C264.896 40.325 269.071 46.625 271.021 54.625L253.021 59.5C251.621 55.15 249.296 51.775 246.046 49.375C242.796 46.925 239.096 45.7 234.946 45.7C230.246 45.7 226.371 46.825 223.321 49.075C220.271 51.275 218.021 54.325 216.571 58.225C215.121 62.125 214.396 66.55 214.396 71.5C214.396 79.2 216.121 85.425 219.571 90.175C223.021 94.925 228.146 97.3 234.946 97.3C239.746 97.3 243.521 96.2 246.271 94C249.071 91.8 251.171 88.625 252.571 84.475L271.021 88.6C268.521 96.85 264.146 103.2 257.896 107.65C251.646 112.05 243.996 114.25 234.946 114.25ZM313.179 114.25C304.979 114.25 297.779 112.475 291.579 108.925C285.379 105.375 280.529 100.45 277.029 94.15C273.579 87.85 271.854 80.6 271.854 72.4C271.854 63.55 273.554 55.875 276.954 49.375C280.354 42.825 285.079 37.75 291.129 34.15C297.179 30.55 304.179 28.75 312.129 28.75C320.529 28.75 327.654 30.725 333.504 34.675C339.404 38.575 343.779 44.1 346.629 51.25C349.479 58.4 350.554 66.825 349.854 76.525H331.929V69.925C331.879 61.125 330.329 54.7 327.279 50.65C324.229 46.6 319.429 44.575 312.879 44.575C305.479 44.575 299.979 46.875 296.379 51.475C292.779 56.025 290.979 62.7 290.979 71.5C290.979 79.7 292.779 86.05 296.379 90.55C299.979 95.05 305.229 97.3 312.129 97.3C316.579 97.3 320.404 96.325 323.604 94.375C326.854 92.375 329.354 89.5 331.104 85.75L348.954 91.15C345.854 98.45 341.054 104.125 334.554 108.175C328.104 112.225 320.979 114.25 313.179 114.25ZM285.279 76.525V62.875H341.004V76.525H285.279ZM378.617 111.85V96.1L424.817 54.925C428.417 51.725 430.917 48.7 432.317 45.85C433.717 43 434.417 40.25 434.417 37.6C434.417 34 433.642 30.8 432.092 28C430.542 25.15 428.392 22.9 425.642 21.25C422.942 19.6 419.817 18.775 416.267 18.775C412.517 18.775 409.192 19.65 406.292 21.4C403.442 23.1 401.217 25.375 399.617 28.225C398.017 31.075 397.267 34.15 397.367 37.45H378.767C378.767 30.25 380.367 23.975 383.567 18.625C386.817 13.275 391.267 9.12499 396.917 6.175C402.617 3.225 409.192 1.75 416.642 1.75C423.542 1.75 429.742 3.3 435.242 6.39999C440.742 9.44999 445.067 13.7 448.217 19.15C451.367 24.55 452.942 30.775 452.942 37.825C452.942 42.975 452.242 47.3 450.842 50.8C449.442 54.3 447.342 57.525 444.542 60.475C441.792 63.425 438.367 66.7 434.267 70.3L401.492 99.325L399.842 94.825H452.942V111.85H378.617ZM502.323 114.25C494.673 114.25 487.923 112.625 482.073 109.375C476.223 106.075 471.648 101.5 468.348 95.65C465.098 89.8 463.473 83.05 463.473 75.4V40.6C463.473 32.95 465.098 26.2 468.348 20.35C471.648 14.5 476.223 9.94999 482.073 6.7C487.923 3.4 494.673 1.75 502.323 1.75C509.973 1.75 516.698 3.4 522.498 6.7C528.348 9.94999 532.923 14.5 536.223 20.35C539.523 26.2 541.173 32.95 541.173 40.6V75.4C541.173 83.05 539.523 89.8 536.223 95.65C532.923 101.5 528.348 106.075 522.498 109.375C516.698 112.625 509.973 114.25 502.323 114.25ZM502.323 97.075C506.123 97.075 509.573 96.175 512.673 94.375C515.773 92.525 518.223 90.075 520.023 87.025C521.823 83.925 522.723 80.475 522.723 76.675V39.25C522.723 35.4 521.823 31.95 520.023 28.9C518.223 25.8 515.773 23.35 512.673 21.55C509.573 19.7 506.123 18.775 502.323 18.775C498.523 18.775 495.073 19.7 491.973 21.55C488.873 23.35 486.423 25.8 484.623 28.9C482.823 31.95 481.923 35.4 481.923 39.25V76.675C481.923 80.475 482.823 83.925 484.623 87.025C486.423 90.075 488.873 92.525 491.973 94.375C495.073 96.175 498.523 97.075 502.323 97.075ZM551.703 111.85V96.1L597.903 54.925C601.503 51.725 604.003 48.7 605.403 45.85C606.803 43 607.503 40.25 607.503 37.6C607.503 34 606.728 30.8 605.178 28C603.628 25.15 601.478 22.9 598.728 21.25C596.028 19.6 592.903 18.775 589.353 18.775C585.603 18.775 582.278 19.65 579.378 21.4C576.528 23.1 574.303 25.375 572.703 28.225C571.103 31.075 570.353 34.15 570.453 37.45H551.853C551.853 30.25 553.453 23.975 556.653 18.625C559.903 13.275 564.353 9.12499 570.003 6.175C575.703 3.225 582.278 1.75 589.728 1.75C596.628 1.75 602.828 3.3 608.328 6.39999C613.828 9.44999 618.153 13.7 621.303 19.15C624.453 24.55 626.028 30.775 626.028 37.825C626.028 42.975 625.328 47.3 623.928 50.8C622.528 54.3 620.428 57.525 617.628 60.475C614.878 63.425 611.453 66.7 607.353 70.3L574.578 99.325L572.928 94.825H626.028V111.85H551.703ZM678.479 112V94.15H630.629V77.275L665.204 4H685.829L651.254 77.275H678.479V49.15H696.779V77.275H706.904V94.15H696.779V112H678.479Z"/>
</mask>
<path d="M13.4 107.5L12.8157 108.312L13.4 107.5ZM2 88.525L1.84734 87.5367L0.848236 87.6911L1.01344 88.6884L2 88.525ZM20.45 85.675L21.4229 85.4439L21.2096 84.5458L20.2973 84.6867L20.45 85.675ZM26.75 95.125L26.1723 95.9413L26.75 95.125ZM49.1 96.025L49.6861 96.8352L49.6892 96.833L49.1 96.025ZM51.35 84.475L50.5458 85.0694L50.5605 85.0892L50.576 85.1082L51.35 84.475ZM45.65 81.175L45.9853 80.2329L45.65 81.175ZM32.075 77.2L31.8191 78.1667L31.8213 78.1673L32.075 77.2ZM15.875 71.425L15.4101 72.3104L15.4189 72.3149L15.875 71.425ZM7.25 64L8.10217 63.4767L7.25 64ZM8.6 40.45L9.41667 41.0271L8.6 40.45ZM19.7 31.825L20.0881 32.7467L20.0963 32.7431L19.7 31.825ZM53.225 31.675L52.852 32.6028L52.8552 32.6041L53.225 31.675ZM65.075 40L64.3068 40.6402V40.6402L65.075 40ZM70.625 52.675L70.8011 53.6594L71.7529 53.4891L71.6147 52.5322L70.625 52.675ZM52.175 55.975L51.1834 56.1043L51.319 57.144L52.3511 56.9594L52.175 55.975ZM47.45 47.8L46.8476 48.5982L46.8548 48.6036L47.45 47.8ZM36.8 44.425L36.7413 45.4233L36.7439 45.4234L36.8 44.425ZM26.525 46.375L27.0247 47.2412L27.0309 47.2376L27.0371 47.2339L26.525 46.375ZM30.5 60.025L30.1703 60.9691L30.1749 60.9707L30.5 60.025ZM44.75 64.075L44.9978 63.1062L44.9962 63.1058L44.75 64.075ZM60.2 69.775L59.7124 70.6481L59.7191 70.6518L59.7259 70.6555L60.2 69.775ZM68.6 77.35L67.7335 77.8493L67.74 77.8602L68.6 77.35ZM62.3 107.275L61.6842 106.487L61.681 106.49L62.3 107.275ZM37.775 113.25C27.9223 113.25 20.0196 111.034 13.9843 106.688L12.8157 108.312C19.2804 112.966 27.6277 115.25 37.775 115.25V113.25ZM13.9843 106.688C7.96539 102.355 4.29684 96.2718 2.98656 88.3616L1.01344 88.6884C2.40316 97.0782 6.33461 103.645 12.8157 108.312L13.9843 106.688ZM2.15266 89.5133L20.6027 86.6633L20.2973 84.6867L1.84734 87.5367L2.15266 89.5133ZM19.4771 85.9061C20.4813 90.1343 22.7168 93.4958 26.1723 95.9413L27.3277 94.3087C24.2832 92.1542 22.3187 89.2157 21.4229 85.4439L19.4771 85.9061ZM26.1723 95.9413C29.6285 98.3872 33.9439 99.575 39.05 99.575V97.575C34.2561 97.575 30.3715 96.4628 27.3277 94.3087L26.1723 95.9413ZM39.05 99.575C43.5109 99.575 47.0996 98.7064 49.6861 96.8352L48.5139 95.2148C46.4004 96.7436 43.2891 97.575 39.05 97.575V99.575ZM49.6892 96.833C52.3504 94.8925 53.7 92.2157 53.7 88.9H51.7C51.7 91.5843 50.6496 93.6575 48.5108 95.217L49.6892 96.833ZM53.7 88.9C53.7 86.8896 53.2093 85.1683 52.124 83.8418L50.576 85.1082C51.2907 85.9817 51.7 87.2103 51.7 88.9H53.7ZM52.1542 83.8806C51.1097 82.4675 48.9466 81.2869 45.9853 80.2329L45.3147 82.1171C48.2534 83.1631 49.8903 84.1825 50.5458 85.0694L52.1542 83.8806ZM45.9853 80.2329C42.9935 79.168 38.4346 77.8343 32.3287 76.2327L31.8213 78.1673C37.9154 79.7657 42.4065 81.082 45.3147 82.1171L45.9853 80.2329ZM32.3309 76.2333C25.566 74.4426 20.2421 72.5395 16.3311 70.5351L15.4189 72.3149C19.5079 74.4105 24.984 76.3574 31.8191 78.1667L32.3309 76.2333ZM16.3398 70.5396C12.4452 68.4949 9.73054 66.1287 8.10217 63.4767L6.39783 64.5233C8.26946 67.5713 11.3048 70.1551 15.4102 72.3104L16.3398 70.5396ZM8.10217 63.4767C6.46744 60.8145 5.625 57.5544 5.625 53.65H3.625C3.625 57.8456 4.53256 61.4855 6.39783 64.5233L8.10217 63.4767ZM5.625 53.65C5.625 48.7851 6.89785 44.5915 9.41667 41.0271L7.78333 39.8729C5.00215 43.8085 3.625 48.4149 3.625 53.65H5.625ZM9.41667 41.0271C11.946 37.4479 15.4886 34.6832 20.0881 32.7466L19.3119 30.9034C14.4114 32.9668 10.554 35.9521 7.78333 39.8729L9.41667 41.0271ZM20.0963 32.7431C24.6943 30.7587 30.1537 29.75 36.5 29.75V27.75C29.9463 27.75 24.2057 28.7913 19.3038 30.9069L20.0963 32.7431ZM36.5 29.75C42.6978 29.75 48.1422 30.7092 52.852 32.6028L53.598 30.7472C48.6078 28.7408 42.9022 27.75 36.5 27.75V29.75ZM52.8552 32.6041C57.6201 34.5004 61.4263 37.1836 64.3068 40.6402L65.8432 39.3598C62.7237 35.6164 58.6299 32.7496 53.5948 30.7459L52.8552 32.6041ZM64.3068 40.6402C67.1828 44.0914 68.9604 48.1422 69.6353 52.8178L71.6147 52.5322C70.8896 47.5078 68.9672 43.1086 65.8432 39.3598L64.3068 40.6402ZM70.4489 51.6906L51.9989 54.9906L52.3511 56.9594L70.8011 53.6594L70.4489 51.6906ZM53.1666 55.8457C52.6829 52.1372 50.9719 49.1644 48.0452 46.9964L46.8548 48.6036C49.3281 50.4356 50.7671 52.9128 51.1834 56.1043L53.1666 55.8457ZM48.0524 47.0018C45.1984 44.8478 41.4377 43.684 36.8561 43.4266L36.7439 45.4234C41.0623 45.666 44.4016 46.7522 46.8476 48.5982L48.0524 47.0018ZM36.8587 43.4267C32.4871 43.1696 28.8418 43.8296 26.0129 45.516L27.0371 47.2339C29.4082 45.8204 32.6129 45.1804 36.7413 45.4233L36.8587 43.4267ZM26.0253 45.5088C23.1502 47.1675 21.625 49.6046 21.625 52.75H23.625C23.625 50.3954 24.6999 48.5825 27.0247 47.2412L26.0253 45.5088ZM21.625 52.75C21.625 54.5516 22.2453 56.1255 23.4766 57.4155L24.9234 56.0345C24.0547 55.1245 23.625 54.0483 23.625 52.75H21.625ZM23.4766 57.4155C24.705 58.7023 27.0086 59.865 30.1703 60.9691L30.8297 59.0809C27.6914 57.985 25.795 56.9477 24.9234 56.0345L23.4766 57.4155ZM30.1749 60.9707C33.4147 62.0844 38.1967 63.4424 44.5038 65.0442L44.9962 63.1058C38.7033 61.5076 33.9853 60.1656 30.8251 59.0793L30.1749 60.9707ZM44.5022 65.0438C50.9064 66.6821 55.9658 68.5558 59.7124 70.6481L60.6876 68.9019C56.7343 66.6942 51.4936 64.7679 44.9978 63.1062L44.5022 65.0438ZM59.7259 70.6555C63.5106 72.6934 66.1504 75.1021 67.7336 77.8493L69.4664 76.8507C67.6496 73.6979 64.6894 71.0566 60.6741 68.8945L59.7259 70.6555ZM67.74 77.8602C69.3798 80.6245 70.225 84.0144 70.225 88.075H72.225C72.225 83.7356 71.3202 79.9755 69.4601 76.8398L67.74 77.8602ZM70.225 88.075C70.225 95.9453 67.3704 102.043 61.6842 106.487L62.9158 108.063C69.1296 103.207 72.225 96.5047 72.225 88.075H70.225ZM61.681 106.49C56.015 110.955 48.0868 113.25 37.775 113.25V115.25C48.3632 115.25 56.785 112.895 62.919 108.06L61.681 106.49ZM81.6523 18.7H80.6523V19.7H81.6523V18.7ZM81.6523 2.125V1.125H80.6523V2.125H81.6523ZM99.7273 2.125H100.727V1.125H99.7273V2.125ZM99.7273 18.7V19.7H100.727V18.7H99.7273ZM81.6523 112H80.6523V113H81.6523V112ZM81.6523 31V30H80.6523V31H81.6523ZM99.7273 31H100.727V30H99.7273V31ZM99.7273 112V113H100.727V112H99.7273ZM82.6523 18.7V2.125H80.6523V18.7H82.6523ZM81.6523 3.125H99.7273V1.125H81.6523V3.125ZM98.7273 2.125V18.7H100.727V2.125H98.7273ZM99.7273 17.7H81.6523V19.7H99.7273V17.7ZM82.6523 112V31H80.6523V112H82.6523ZM81.6523 32H99.7273V30H81.6523V32ZM98.7273 31V112H100.727V31H98.7273ZM99.7273 111H81.6523V113H99.7273V111ZM170.718 112H169.718V113H170.718V112ZM170.193 64.525L171.187 64.4128L170.193 64.525ZM167.718 55.6L166.8 55.9958L166.804 56.0055L166.809 56.015L167.718 55.6ZM162.018 48.475L161.423 49.2789L161.431 49.2844L162.018 48.475ZM144.993 46.825L145.31 47.7737L144.993 46.825ZM138.843 50.725L138.136 50.0179H138.136L138.843 50.725ZM134.493 58.225L135.437 58.5547L135.439 58.5501L134.493 58.225ZM132.843 70.375L132.451 71.2948L133.843 71.8888V70.375H132.843ZM122.118 65.8H121.118V66.4606L121.726 66.7198L122.118 65.8ZM126.093 47.05L125.193 46.6157L125.189 46.6223L126.093 47.05ZM137.943 33.7L138.479 34.5443L138.485 34.5407L137.943 33.7ZM171.993 31.675L172.45 30.7852L171.993 31.675ZM181.293 39.325L180.49 39.9208L181.293 39.325ZM186.393 49.225L187.347 48.9252L187.347 48.9252L186.393 49.225ZM188.493 59.2L187.498 59.2948L187.499 59.3035L187.5 59.3122L188.493 59.2ZM189.018 112V113H190.018V112H189.018ZM114.543 112H113.543V113H114.543V112ZM114.543 31V30H113.543V31H114.543ZM130.668 31H131.668V30H130.668V31ZM130.668 56.125H129.668V57.125H130.668V56.125ZM132.843 56.125H133.843V55.125H132.843V56.125ZM132.843 112V113H133.843V112H132.843ZM171.718 112V73H169.718V112H171.718ZM171.718 73C171.718 70.4053 171.54 67.5422 171.187 64.4128L169.2 64.6372C169.546 67.7078 169.718 70.4947 169.718 73H171.718ZM171.187 64.4128C170.825 61.2076 169.972 58.1305 168.628 55.185L166.809 56.015C168.065 58.7695 168.862 61.6423 169.2 64.6372L171.187 64.4128ZM168.637 55.2042C167.316 52.1395 165.301 49.6214 162.606 47.6656L161.431 49.2844C163.835 51.0286 165.621 53.2605 166.8 55.9958L168.637 55.2042ZM162.613 47.6712C159.886 45.6531 156.252 44.7 151.818 44.7V46.7C155.984 46.7 159.151 47.5969 161.424 49.2788L162.613 47.6712ZM151.818 44.7C149.408 44.7 147.026 45.0934 144.677 45.8763L145.31 47.7737C147.461 47.0566 149.629 46.7 151.818 46.7V44.7ZM144.677 45.8763C142.265 46.6803 140.085 48.0696 138.136 50.0179L139.55 51.4321C141.302 49.6804 143.222 48.4697 145.31 47.7737L144.677 45.8763ZM138.136 50.0179C136.199 51.9548 134.682 54.6013 133.548 57.8999L135.439 58.5501C136.505 55.4487 137.887 53.0952 139.55 51.4321L138.136 50.0179ZM133.549 57.8953C132.399 61.1893 131.843 65.3617 131.843 70.375H133.843C133.843 65.4883 134.388 61.5607 135.437 58.5547L133.549 57.8953ZM133.236 69.4552L122.511 64.8802L121.726 66.7198L132.451 71.2948L133.236 69.4552ZM123.118 65.8C123.118 59.031 124.417 52.9295 126.997 47.4777L125.189 46.6223C122.469 52.3705 121.118 58.769 121.118 65.8H123.118ZM126.994 47.4843C129.614 42.0507 133.438 37.7434 138.479 34.5443L137.408 32.8557C132.048 36.2566 127.973 40.8493 125.193 46.6157L126.994 47.4843ZM138.485 34.5407C143.49 31.3162 149.691 29.675 157.143 29.675V27.675C149.395 27.675 142.797 29.3838 137.402 32.8593L138.485 34.5407ZM157.143 29.675C163.04 29.675 167.821 30.6589 171.537 32.5648L172.45 30.7852C168.366 28.6911 163.246 27.675 157.143 27.675V29.675ZM171.537 32.5648C175.319 34.5043 178.293 36.9599 180.49 39.9208L182.096 38.7292C179.693 35.4901 176.468 32.8457 172.45 30.7852L171.537 32.5648ZM180.49 39.9208C182.727 42.936 184.375 46.1367 185.439 49.5248L187.347 48.9252C186.212 45.3133 184.459 41.914 182.096 38.7291L180.49 39.9208ZM185.439 49.5248C186.522 52.9684 187.205 56.2244 187.498 59.2948L189.489 59.1052C189.181 55.8756 188.465 52.4816 187.347 48.9252L185.439 49.5248ZM187.5 59.3122C187.848 62.3942 188.018 64.8778 188.018 66.775H190.018C190.018 64.7722 189.839 62.2058 189.487 59.0878L187.5 59.3122ZM188.018 66.775V112H190.018V66.775H188.018ZM189.018 111H170.718V113H189.018V111ZM115.543 112V31H113.543V112H115.543ZM114.543 32H130.668V30H114.543V32ZM129.668 31V56.125H131.668V31H129.668ZM130.668 57.125H132.843V55.125H130.668V57.125ZM131.843 56.125V112H133.843V56.125H131.843ZM132.843 111H114.543V113H132.843V111ZM213.571 108.7L213.035 109.544L213.04 109.547L213.571 108.7ZM199.996 93.4L199.095 93.8332L199.098 93.8388L199.996 93.4ZM195.271 71.5L194.271 71.494L194.271 71.5061L195.271 71.5ZM200.146 49.45L199.253 49L199.252 49.0028L200.146 49.45ZM213.946 34.3L214.469 35.1524L214.475 35.1492L213.946 34.3ZM258.496 35.725L257.906 36.5318L257.913 36.537L258.496 35.725ZM271.021 54.625L271.283 55.5902L272.224 55.3354L271.993 54.3882L271.021 54.625ZM253.021 59.5L252.07 59.8064L252.362 60.7147L253.283 60.4652L253.021 59.5ZM246.046 49.375L245.444 50.1736L245.452 50.1794L246.046 49.375ZM223.321 49.075L223.907 49.8861L223.915 49.8797L223.321 49.075ZM216.571 58.225L217.509 58.5735L216.571 58.225ZM246.271 94L245.654 93.2137L245.647 93.2191L246.271 94ZM252.572 84.475L252.79 83.4991L251.912 83.3028L251.624 84.1553L252.572 84.475ZM271.021 88.6L271.979 88.89L272.291 87.8591L271.24 87.6241L271.021 88.6ZM257.896 107.65L258.472 108.468L258.477 108.465L257.896 107.65ZM234.946 113.25C226.747 113.25 219.814 111.435 214.103 107.853L213.04 109.547C219.129 113.365 226.446 115.25 234.946 115.25V113.25ZM214.108 107.856C208.368 104.208 203.966 99.25 200.895 92.9612L199.098 93.8388C202.327 100.45 206.975 105.692 213.035 109.544L214.108 107.856ZM200.898 92.9668C197.87 86.6675 196.321 79.5165 196.271 71.4939L194.271 71.5061C194.322 79.7835 195.923 87.2325 199.095 93.8332L200.898 92.9668ZM196.271 71.506C196.321 63.3347 197.92 56.1398 201.041 49.8972L199.252 49.0028C195.973 55.5602 194.322 63.0653 194.271 71.494L196.271 71.506ZM201.04 49.9C204.209 43.6098 208.683 38.7018 214.469 35.1524L213.424 33.4476C207.31 37.1982 202.584 42.3901 199.253 49L201.04 49.9ZM214.475 35.1492C220.241 31.5635 227.126 29.75 235.171 29.75V27.75C226.817 27.75 219.552 29.6365 213.418 33.4508L214.475 35.1492ZM235.171 29.75C244.196 29.75 251.755 32.0276 257.906 36.5318L259.087 34.9182C252.538 30.1224 244.547 27.75 235.171 27.75V29.75ZM257.913 36.537C264.11 40.9911 268.154 47.0824 270.05 54.8618L271.993 54.3882C269.989 46.1676 265.683 39.6589 259.08 34.913L257.913 36.537ZM270.76 53.6598L252.76 58.5348L253.283 60.4652L271.283 55.5902L270.76 53.6598ZM253.973 59.1936C252.518 54.6715 250.081 51.111 246.641 48.5706L245.452 50.1794C248.512 52.439 250.725 55.6285 252.07 59.8064L253.973 59.1936ZM246.648 48.5765C243.221 45.993 239.309 44.7 234.946 44.7V46.7C238.884 46.7 242.372 47.857 245.445 50.1735L246.648 48.5765ZM234.946 44.7C230.085 44.7 225.987 45.8656 222.728 48.2703L223.915 49.8797C226.756 47.7843 230.408 46.7 234.946 46.7V44.7ZM222.736 48.264C219.509 50.592 217.146 53.8114 215.634 57.8765L217.509 58.5735C218.897 54.8386 221.034 51.9579 223.906 49.886L222.736 48.264ZM215.634 57.8765C214.136 61.9069 213.396 66.453 213.396 71.5H215.396C215.396 66.6469 216.107 62.3431 217.509 58.5735L215.634 57.8765ZM213.396 71.5C213.396 79.3457 215.155 85.7956 218.762 90.7627L220.381 89.5873C217.088 85.0544 215.396 79.0543 215.396 71.5H213.396ZM218.762 90.7627C222.432 95.8153 227.884 98.3 234.946 98.3V96.3C228.409 96.3 223.611 94.0347 220.381 89.5873L218.762 90.7627ZM234.946 98.3C239.892 98.3 243.914 97.1666 246.896 94.7809L245.647 93.2191C243.129 95.2334 239.601 96.3 234.946 96.3V98.3ZM246.889 94.7863C249.874 92.4411 252.071 89.0864 253.519 84.7946L251.624 84.1553C250.272 88.1636 248.269 91.1589 245.654 93.2137L246.889 94.7863ZM252.353 85.4509L270.803 89.5759L271.24 87.6241L252.79 83.4991L252.353 85.4509ZM270.064 88.31C267.62 96.3758 263.364 102.529 257.316 106.835L258.477 108.465C264.929 103.871 269.423 97.3242 271.979 88.89L270.064 88.31ZM257.321 106.832C251.269 111.093 243.829 113.25 234.946 113.25V115.25C244.164 115.25 252.024 113.007 258.472 108.468L257.321 106.832ZM291.579 108.925L292.075 108.057L291.579 108.925ZM277.029 94.15L276.151 94.6303L276.154 94.6356L277.029 94.15ZM276.954 49.375L277.84 49.8385L277.841 49.8357L276.954 49.375ZM291.129 34.15L290.617 33.2906L291.129 34.15ZM333.504 34.675L332.944 35.5038L332.952 35.5092L333.504 34.675ZM346.629 51.25L345.7 51.6203L346.629 51.25ZM349.854 76.525V77.525H350.784L350.851 76.597L349.854 76.525ZM331.929 76.525H330.929V77.525H331.929V76.525ZM331.929 69.925H332.929L332.928 69.9193L331.929 69.925ZM327.279 50.65L328.077 50.0484L327.279 50.65ZM296.379 51.475L297.163 52.0955L297.166 52.0913L296.379 51.475ZM296.379 90.55L295.598 91.1747V91.1747L296.379 90.55ZM323.604 94.375L324.124 95.229L324.128 95.2267L323.604 94.375ZM331.104 85.75L331.393 84.7928L330.564 84.5419L330.197 85.3271L331.104 85.75ZM348.954 91.15L349.874 91.5409L350.309 90.5154L349.243 90.1928L348.954 91.15ZM334.554 108.175L334.025 107.326L334.022 107.328L334.554 108.175ZM285.279 76.525H284.279V77.525H285.279V76.525ZM285.279 62.875V61.875H284.279V62.875H285.279ZM341.004 62.875H342.004V61.875H341.004V62.875ZM341.004 76.525V77.525H342.004V76.525H341.004ZM313.179 113.25C305.127 113.25 298.103 111.508 292.075 108.057L291.082 109.793C297.454 113.442 304.83 115.25 313.179 115.25V113.25ZM292.075 108.057C286.035 104.599 281.315 99.8064 277.903 93.6644L276.154 94.6356C279.742 101.094 284.722 106.151 291.082 109.793L292.075 108.057ZM277.906 93.6697C274.547 87.5367 272.854 80.4562 272.854 72.4H270.854C270.854 80.7438 272.61 88.1633 276.151 94.6303L277.906 93.6697ZM272.854 72.4C272.854 63.6784 274.528 56.1688 277.84 49.8385L276.067 48.9115C272.579 55.5812 270.854 63.4216 270.854 72.4H272.854ZM277.841 49.8357C281.16 43.4427 285.758 38.5094 291.64 35.0094L290.617 33.2906C284.399 36.9906 279.547 42.2073 276.066 48.9143L277.841 49.8357ZM291.64 35.0094C297.516 31.5129 304.335 29.75 312.129 29.75V27.75C304.022 27.75 296.841 29.5871 290.617 33.2906L291.64 35.0094ZM312.129 29.75C320.368 29.75 327.289 31.6852 332.944 35.5038L334.063 33.8462C328.018 29.7648 320.689 27.75 312.129 27.75V29.75ZM332.952 35.5092C338.667 39.2867 342.918 44.6422 345.7 51.6203L347.557 50.8797C344.639 43.5577 340.14 37.8633 334.055 33.8408L332.952 35.5092ZM345.7 51.6203C348.481 58.5979 349.548 66.8651 348.856 76.453L350.851 76.597C351.559 66.7849 350.476 58.202 347.557 50.8797L345.7 51.6203ZM349.854 75.525H331.929V77.525H349.854V75.525ZM332.929 76.525V69.925H330.929V76.525H332.929ZM332.928 69.9193C332.878 61.0456 331.322 54.3564 328.077 50.0484L326.48 51.2516C329.335 55.0435 330.879 61.2044 330.929 69.9307L332.928 69.9193ZM328.077 50.0484C324.785 45.6769 319.642 43.575 312.879 43.575V45.575C319.215 45.575 323.672 47.5231 326.48 51.2516L328.077 50.0484ZM312.879 43.575C305.261 43.575 299.43 45.9536 295.591 50.8587L297.166 52.0913C300.527 47.7964 305.696 45.575 312.879 45.575V43.575ZM295.594 50.8545C291.799 55.6519 289.979 62.5856 289.979 71.5H291.979C291.979 62.8144 293.758 56.3981 297.163 52.0955L295.594 50.8545ZM289.979 71.5C289.979 79.8332 291.807 86.4358 295.598 91.1747L297.159 89.9253C293.75 85.6642 291.979 79.5668 291.979 71.5H289.979ZM295.598 91.1747C299.425 95.9595 304.991 98.3 312.129 98.3V96.3C305.466 96.3 300.532 94.1405 297.159 89.9253L295.598 91.1747ZM312.129 98.3C316.727 98.3 320.74 97.2911 324.124 95.2289L323.083 93.5211C320.067 95.3589 316.43 96.3 312.129 96.3V98.3ZM324.128 95.2267C327.558 93.1155 330.184 90.0845 332.01 86.1729L330.197 85.3271C328.523 88.9155 326.149 91.6345 323.079 93.5233L324.128 95.2267ZM330.814 86.7072L348.664 92.1072L349.243 90.1928L331.393 84.7928L330.814 86.7072ZM348.033 90.7591C345.01 97.877 340.344 103.389 334.025 107.326L335.082 109.024C341.763 104.861 346.697 99.023 349.874 91.5409L348.033 90.7591ZM334.022 107.328C327.735 111.276 320.795 113.25 313.179 113.25V115.25C321.162 115.25 328.472 113.174 335.085 109.022L334.022 107.328ZM286.279 76.525V62.875H284.279V76.525H286.279ZM285.279 63.875H341.004V61.875H285.279V63.875ZM340.004 62.875V76.525H342.004V62.875H340.004ZM341.004 75.525H285.279V77.525H341.004V75.525ZM378.617 111.85H377.617V112.85H378.617V111.85ZM378.617 96.1L377.952 95.3535L377.617 95.6517V96.1H378.617ZM424.817 54.925L424.153 54.1776L424.152 54.1785L424.817 54.925ZM432.317 45.85L433.215 46.2909L432.317 45.85ZM432.092 28L431.214 28.4778L431.217 28.4843L432.092 28ZM425.642 21.25L425.121 22.1033L425.128 22.1075L425.642 21.25ZM406.292 21.4L406.804 22.2588L406.809 22.2562L406.292 21.4ZM399.617 28.225L398.745 27.7355V27.7355L399.617 28.225ZM397.367 37.45V38.45H398.398L398.367 37.4197L397.367 37.45ZM378.767 37.45H377.767V38.45H378.767V37.45ZM383.567 18.625L382.712 18.1058L382.709 18.1117L383.567 18.625ZM396.917 6.175L396.458 5.28689L396.454 5.28855L396.917 6.175ZM435.242 6.39999L434.751 7.27116L434.757 7.27452L435.242 6.39999ZM448.217 19.15L447.351 19.6504L447.353 19.6539L448.217 19.15ZM444.542 60.475L443.817 59.7865L443.811 59.7931L444.542 60.475ZM434.267 70.3L433.607 69.5485L433.604 69.5514L434.267 70.3ZM401.492 99.325L400.553 99.6693L401.058 101.045L402.155 100.074L401.492 99.325ZM399.842 94.825V93.825H398.41L398.903 95.1693L399.842 94.825ZM452.942 94.825H453.942V93.825H452.942V94.825ZM452.942 111.85V112.85H453.942V111.85H452.942ZM379.617 111.85V96.1H377.617V111.85H379.617ZM379.283 96.8465L425.483 55.6715L424.152 54.1785L377.952 95.3535L379.283 96.8465ZM425.482 55.6724C429.133 52.4264 431.736 49.3013 433.215 46.2909L431.42 45.4091C430.098 48.0987 427.701 51.0236 424.153 54.1776L425.482 55.6724ZM433.215 46.2909C434.669 43.3306 435.417 40.4302 435.417 37.6H433.417C433.417 40.0697 432.765 42.6694 431.42 45.4091L433.215 46.2909ZM435.417 37.6C435.417 33.8521 434.609 30.4817 432.967 27.5157L431.217 28.4843C432.675 31.1183 433.417 34.1479 433.417 37.6H435.417ZM432.971 27.5222C431.336 24.5174 429.062 22.1354 426.157 20.3925L425.128 22.1075C427.723 23.6646 429.748 25.7826 431.214 28.4778L432.971 27.5222ZM426.164 20.3967C423.288 18.6394 419.978 17.775 416.267 17.775V19.775C419.656 19.775 422.596 20.5606 425.121 22.1033L426.164 20.3967ZM416.267 17.775C412.355 17.775 408.848 18.6899 405.776 20.5438L406.809 22.2562C409.537 20.6101 412.679 19.775 416.267 19.775V17.775ZM405.78 20.5412C402.782 22.3293 400.432 24.7306 398.745 27.7355L400.489 28.7145C402.002 26.0194 404.102 23.8707 406.804 22.2588L405.78 20.5412ZM398.745 27.7355C397.055 30.7456 396.262 34.0006 396.368 37.4803L398.367 37.4197C398.272 34.2994 398.979 31.4044 400.489 28.7145L398.745 27.7355ZM397.367 36.45H378.767V38.45H397.367V36.45ZM379.767 37.45C379.767 30.4023 381.332 24.3104 384.425 19.1383L382.709 18.1117C379.403 23.6396 377.767 30.0977 377.767 37.45H379.767ZM384.422 19.1442C387.575 13.953 391.889 9.92865 397.38 7.06144L396.454 5.28855C390.646 8.32133 386.059 12.597 382.713 18.1058L384.422 19.1442ZM397.377 7.06311C402.914 4.19763 409.326 2.75 416.642 2.75V0.749998C409.058 0.749998 402.321 2.25237 396.458 5.28689L397.377 7.06311ZM416.642 2.75C423.387 2.75 429.415 4.26332 434.751 7.27114L435.733 5.52884C430.07 2.33667 423.698 0.749998 416.642 0.749998V2.75ZM434.757 7.27452C440.099 10.2365 444.292 14.3572 447.351 19.6504L449.083 18.6496C445.842 13.0428 441.386 8.66344 435.727 5.52546L434.757 7.27452ZM447.353 19.6539C450.403 24.8822 451.942 30.929 451.942 37.825H453.942C453.942 30.621 452.331 24.2178 449.081 18.6461L447.353 19.6539ZM451.942 37.825C451.942 42.8914 451.253 47.0814 449.914 50.4286L451.771 51.1714C453.232 47.5186 453.942 43.0586 453.942 37.825H451.942ZM449.914 50.4286C448.564 53.802 446.537 56.9211 443.817 59.7866L445.267 61.1634C448.148 58.1289 450.32 54.798 451.771 51.1714L449.914 50.4286ZM443.811 59.7931C441.09 62.712 437.69 65.9634 433.607 69.5486L434.927 71.0514C439.044 67.4366 442.495 64.138 445.274 61.1569L443.811 59.7931ZM433.604 69.5514L400.829 98.5764L402.155 100.074L434.93 71.0486L433.604 69.5514ZM402.431 98.9807L400.781 94.4807L398.903 95.1693L400.553 99.6693L402.431 98.9807ZM399.842 95.825H452.942V93.825H399.842V95.825ZM451.942 94.825V111.85H453.942V94.825H451.942ZM452.942 110.85H378.617V112.85H452.942V110.85ZM482.073 109.375L481.581 110.246L481.587 110.249L482.073 109.375ZM468.348 95.65L467.473 96.1357L467.477 96.1413L468.348 95.65ZM468.348 20.35L467.477 19.8587L467.474 19.8644L468.348 20.35ZM482.073 6.7L482.558 7.57417L482.564 7.57098L482.073 6.7ZM522.498 6.7L522.003 7.56921L522.012 7.57415L522.498 6.7ZM536.223 20.35L535.352 20.8413V20.8413L536.223 20.35ZM536.223 95.65L535.352 95.1587L536.223 95.65ZM522.498 109.375L522.987 110.247L522.989 110.246L522.498 109.375ZM512.673 94.375L513.175 95.2399L513.185 95.2337L512.673 94.375ZM520.023 87.025L520.884 87.5333L520.887 87.5271L520.023 87.025ZM520.023 28.9L519.158 29.4021L519.161 29.4083L520.023 28.9ZM512.673 21.55L512.16 22.4088L512.171 22.4148L512.673 21.55ZM491.973 21.55L492.475 22.4148L492.485 22.4087L491.973 21.55ZM484.623 28.9L485.484 29.4083L485.487 29.4021L484.623 28.9ZM484.623 87.025L483.758 87.5271L483.761 87.5333L484.623 87.025ZM491.973 94.375L491.46 95.2338L491.471 95.2398L491.973 94.375ZM502.323 113.25C494.818 113.25 488.24 111.657 482.558 108.501L481.587 110.249C487.606 113.593 494.527 115.25 502.323 115.25V113.25ZM482.564 108.504C476.873 105.294 472.429 100.85 469.219 95.1587L467.477 96.1413C470.866 102.15 475.573 106.856 481.581 110.246L482.564 108.504ZM469.222 95.1644C466.066 89.4831 464.473 82.9047 464.473 75.4H462.473C462.473 83.1953 464.13 90.1169 467.474 96.1356L469.222 95.1644ZM464.473 75.4V40.6H462.473V75.4H464.473ZM464.473 40.6C464.473 33.0953 466.066 26.5169 469.222 20.8356L467.474 19.8644C464.13 25.8831 462.473 32.8047 462.473 40.6H464.473ZM469.219 20.8413C472.428 15.1514 476.87 10.7342 482.558 7.57415L481.587 5.82584C475.575 9.1658 470.867 13.8486 467.477 19.8587L469.219 20.8413ZM482.564 7.57098C488.244 4.36674 494.821 2.75 502.323 2.75V0.749998C494.525 0.749998 487.601 2.43326 481.581 5.82902L482.564 7.57098ZM502.323 2.75C509.825 2.75 516.375 4.3668 522.003 7.56916L522.992 5.83083C517.021 2.4332 510.12 0.749998 502.323 0.749998V2.75ZM522.012 7.57415C527.7 10.7342 532.142 15.1514 535.352 20.8413L537.094 19.8587C533.703 13.8486 528.995 9.1658 522.983 5.82584L522.012 7.57415ZM535.352 20.8413C538.556 26.5216 540.173 33.0979 540.173 40.6H542.173C542.173 32.8021 540.489 25.8784 537.094 19.8587L535.352 20.8413ZM540.173 40.6V75.4H542.173V40.6H540.173ZM540.173 75.4C540.173 82.9021 538.556 89.4784 535.352 95.1587L537.094 96.1413C540.489 90.1216 542.173 83.1979 542.173 75.4H540.173ZM535.352 95.1587C532.141 100.85 527.698 105.294 522.006 108.504L522.989 110.246C528.998 106.856 533.704 102.15 537.094 96.1413L535.352 95.1587ZM522.009 108.503C516.379 111.657 509.828 113.25 502.323 113.25V115.25C510.118 115.25 517.016 113.593 522.987 110.247L522.009 108.503ZM502.323 98.075C506.288 98.075 509.913 97.1337 513.175 95.2398L512.171 93.5102C509.232 95.2163 505.957 96.075 502.323 96.075V98.075ZM513.185 95.2337C516.426 93.2997 518.997 90.7303 520.884 87.5333L519.161 86.5167C517.448 89.4197 515.119 91.7503 512.16 93.5163L513.185 95.2337ZM520.887 87.5271C522.781 84.2654 523.723 80.6404 523.723 76.675H521.723C521.723 80.3096 520.864 83.5846 519.158 86.5229L520.887 87.5271ZM523.723 76.675V39.25H521.723V76.675H523.723ZM523.723 39.25C523.723 35.2373 522.783 31.609 520.884 28.3917L519.161 29.4083C520.863 32.291 521.723 35.5627 521.723 39.25H523.723ZM520.887 28.3979C519 25.1475 516.425 22.5725 513.175 20.6852L512.171 22.4148C515.12 24.1275 517.445 26.4525 519.158 29.4021L520.887 28.3979ZM513.185 20.6913C509.922 18.7439 506.293 17.775 502.323 17.775V19.775C505.952 19.775 509.223 20.6561 512.16 22.4087L513.185 20.6913ZM502.323 17.775C498.352 17.775 494.723 18.7439 491.46 20.6913L492.485 22.4087C495.422 20.6561 498.693 19.775 502.323 19.775V17.775ZM491.471 20.6852C488.22 22.5725 485.645 25.1475 483.758 28.3979L485.487 29.4021C487.2 26.4525 489.525 24.1275 492.475 22.4148L491.471 20.6852ZM483.761 28.3917C481.863 31.609 480.923 35.2373 480.923 39.25H482.923C482.923 35.5627 483.783 32.291 485.484 29.4083L483.761 28.3917ZM480.923 39.25V76.675H482.923V39.25H480.923ZM480.923 76.675C480.923 80.6404 481.864 84.2654 483.758 87.5271L485.487 86.5229C483.781 83.5846 482.923 80.3096 482.923 76.675H480.923ZM483.761 87.5333C485.648 90.7303 488.219 93.2997 491.46 95.2337L492.485 93.5163C489.526 91.7503 487.197 89.4197 485.484 86.5167L483.761 87.5333ZM491.471 95.2398C494.732 97.1337 498.357 98.075 502.323 98.075V96.075C498.688 96.075 495.413 95.2163 492.475 93.5102L491.471 95.2398ZM551.703 111.85H550.703V112.85H551.703V111.85ZM551.703 96.1L551.038 95.3535L550.703 95.6517V96.1H551.703ZM597.903 54.925L597.239 54.1776L597.238 54.1785L597.903 54.925ZM605.403 45.85L606.301 46.2909L605.403 45.85ZM605.178 28L604.3 28.4778L604.303 28.4843L605.178 28ZM598.728 21.25L598.207 22.1033L598.214 22.1075L598.728 21.25ZM579.378 21.4L579.89 22.2588L579.895 22.2562L579.378 21.4ZM572.703 28.225L571.831 27.7355V27.7355L572.703 28.225ZM570.453 37.45V38.45H571.484L571.453 37.4197L570.453 37.45ZM551.853 37.45H550.853V38.45H551.853V37.45ZM556.653 18.625L555.798 18.1058L555.795 18.1117L556.653 18.625ZM570.003 6.175L569.544 5.28689L569.54 5.28855L570.003 6.175ZM608.328 6.39999L607.837 7.27116L607.843 7.27452L608.328 6.39999ZM621.303 19.15L620.437 19.6504L620.439 19.6539L621.303 19.15ZM617.628 60.475L616.903 59.7865L616.897 59.7931L617.628 60.475ZM607.353 70.3L606.693 69.5485L606.69 69.5514L607.353 70.3ZM574.578 99.325L573.639 99.6693L574.144 101.045L575.241 100.074L574.578 99.325ZM572.928 94.825V93.825H571.496L571.989 95.1693L572.928 94.825ZM626.028 94.825H627.028V93.825H626.028V94.825ZM626.028 111.85V112.85H627.028V111.85H626.028ZM552.703 111.85V96.1H550.703V111.85H552.703ZM552.368 96.8465L598.568 55.6715L597.238 54.1785L551.038 95.3535L552.368 96.8465ZM598.568 55.6724C602.219 52.4264 604.822 49.3013 606.301 46.2909L604.506 45.4091C603.184 48.0987 600.787 51.0236 597.239 54.1776L598.568 55.6724ZM606.301 46.2909C607.755 43.3306 608.503 40.4302 608.503 37.6H606.503C606.503 40.0697 605.851 42.6694 604.506 45.4091L606.301 46.2909ZM608.503 37.6C608.503 33.8521 607.695 30.4817 606.053 27.5157L604.303 28.4843C605.761 31.1183 606.503 34.1479 606.503 37.6H608.503ZM606.057 27.5222C604.422 24.5174 602.148 22.1354 599.243 20.3925L598.214 22.1075C600.809 23.6646 602.834 25.7826 604.3 28.4778L606.057 27.5222ZM599.25 20.3967C596.374 18.6394 593.064 17.775 589.353 17.775V19.775C592.742 19.775 595.682 20.5606 598.207 22.1033L599.25 20.3967ZM589.353 17.775C585.441 17.775 581.934 18.6899 578.861 20.5438L579.895 22.2562C582.623 20.6101 585.765 19.775 589.353 19.775V17.775ZM578.866 20.5412C575.868 22.3293 573.518 24.7306 571.831 27.7355L573.575 28.7145C575.088 26.0194 577.188 23.8707 579.89 22.2588L578.866 20.5412ZM571.831 27.7355C570.141 30.7456 569.348 34.0006 569.454 37.4803L571.453 37.4197C571.358 34.2994 572.065 31.4044 573.575 28.7145L571.831 27.7355ZM570.453 36.45H551.853V38.45H570.453V36.45ZM552.853 37.45C552.853 30.4023 554.418 24.3104 557.511 19.1383L555.795 18.1117C552.489 23.6396 550.853 30.0977 550.853 37.45H552.853ZM557.508 19.1442C560.661 13.953 564.974 9.92865 570.466 7.06144L569.54 5.28855C563.732 8.32133 559.145 12.597 555.798 18.1058L557.508 19.1442ZM570.463 7.06311C575.999 4.19763 582.412 2.75 589.728 2.75V0.749998C582.144 0.749998 575.407 2.25237 569.544 5.28689L570.463 7.06311ZM589.728 2.75C596.473 2.75 602.501 4.26332 607.837 7.27114L608.819 5.52884C603.156 2.33667 596.784 0.749998 589.728 0.749998V2.75ZM607.843 7.27452C613.185 10.2365 617.378 14.3572 620.437 19.6504L622.169 18.6496C618.928 13.0428 614.472 8.66344 608.813 5.52546L607.843 7.27452ZM620.439 19.6539C623.489 24.8822 625.028 30.929 625.028 37.825H627.028C627.028 30.621 625.417 24.2178 622.167 18.6461L620.439 19.6539ZM625.028 37.825C625.028 42.8914 624.339 47.0814 623 50.4286L624.857 51.1714C626.318 47.5186 627.028 43.0586 627.028 37.825H625.028ZM623 50.4286C621.65 53.802 619.623 56.9211 616.903 59.7866L618.353 61.1634C621.234 58.1289 623.406 54.798 624.857 51.1714L623 50.4286ZM616.897 59.7931C614.176 62.712 610.776 65.9634 606.693 69.5486L608.013 71.0514C612.13 67.4366 615.581 64.138 618.36 61.1569L616.897 59.7931ZM606.69 69.5514L573.915 98.5764L575.241 100.074L608.016 71.0486L606.69 69.5514ZM575.517 98.9807L573.867 94.4807L571.989 95.1693L573.639 99.6693L575.517 98.9807ZM572.928 95.825H626.028V93.825H572.928V95.825ZM625.028 94.825V111.85H627.028V94.825H625.028ZM626.028 110.85H551.703V112.85H626.028V110.85ZM678.479 112H677.479V113H678.479V112ZM678.479 94.15H679.479V93.15H678.479V94.15ZM630.629 94.15H629.629V95.15H630.629V94.15ZM630.629 77.275L629.725 76.8483L629.629 77.0509V77.275H630.629ZM665.204 4V3H664.57L664.3 3.57326L665.204 4ZM685.829 4L686.733 4.42673L687.406 3H685.829V4ZM651.254 77.275L650.35 76.8483L649.676 78.275H651.254V77.275ZM678.479 77.275V78.275H679.479V77.275H678.479ZM678.479 49.15V48.15H677.479V49.15H678.479ZM696.779 49.15H697.779V48.15H696.779V49.15ZM696.779 77.275H695.779V78.275H696.779V77.275ZM706.904 77.275H707.904V76.275H706.904V77.275ZM706.904 94.15V95.15H707.904V94.15H706.904ZM696.779 94.15V93.15H695.779V94.15H696.779ZM696.779 112V113H697.779V112H696.779ZM679.479 112V94.15H677.479V112H679.479ZM678.479 93.15H630.629V95.15H678.479V93.15ZM631.629 94.15V77.275H629.629V94.15H631.629ZM631.533 77.7017L666.108 4.42673L664.3 3.57326L629.725 76.8483L631.533 77.7017ZM665.204 5H685.829V3H665.204V5ZM684.925 3.57326L650.35 76.8483L652.158 77.7017L686.733 4.42673L684.925 3.57326ZM651.254 78.275H678.479V76.275H651.254V78.275ZM679.479 77.275V49.15H677.479V77.275H679.479ZM678.479 50.15H696.779V48.15H678.479V50.15ZM695.779 49.15V77.275H697.779V49.15H695.779ZM696.779 78.275H706.904V76.275H696.779V78.275ZM705.904 77.275V94.15H707.904V77.275H705.904ZM706.904 93.15H696.779V95.15H706.904V93.15ZM695.779 94.15V112H697.779V94.15H695.779ZM696.779 111H678.479V113H696.779V111Z" fill="url(#paint0_linear_4351_299)" mask="url(#path-1-outside-1_4351_299)"/>
<defs>
<linearGradient id="paint0_linear_4351_299" x1="29.552" y1="66" x2="149.195" y2="274.098" gradientUnits="userSpaceOnUse">
<stop stop-color="#8258C8"/>
<stop offset="1" stop-color="#2C84C8"/>
</linearGradient>
</defs>
</svg>
