<svg width="16" height="12" viewBox="0 0 16 12" fill="none" xmlns="http://www.w3.org/2000/svg">
<path d="M15.3686 9.74921C15.1958 10.3918 14.6891 10.8984 14.0466 11.0714C12.8728 11.3926 8.17755 11.3926 8.17755 11.3926C8.17755 11.3926 3.48245 11.3926 2.30865 11.0836C1.6785 10.9107 1.15948 10.3917 0.986633 9.74921C0.677734 8.5755 0.677734 6.14139 0.677734 6.14139C0.677734 6.14139 0.677734 3.69501 0.986633 2.53357C1.15967 1.89105 1.66614 1.38449 2.30875 1.21146C3.49481 0.890198 8.17773 0.890198 8.17773 0.890198C8.17773 0.890198 12.8728 0.890198 14.0466 1.19919C14.6892 1.37213 15.1958 1.87869 15.3688 2.52121C15.6776 3.69501 15.6776 6.12903 15.6776 6.12903C15.6776 6.12903 15.69 8.5755 15.3686 9.74921ZM6.68268 3.89267V8.39011L10.587 6.14139L6.68268 3.89267Z" fill="white"/>
</svg>
