<svg width="17" height="16" viewBox="0 0 17 16" fill="none" xmlns="http://www.w3.org/2000/svg">
<g clip-path="url(#clip0_4084_372)">
<path d="M16.1855 3.039C15.5905 3.3 14.9565 3.473 14.2955 3.557C14.9755 3.151 15.4945 2.513 15.7385 1.744C15.1045 2.122 14.4045 2.389 13.6585 2.538C13.0565 1.897 12.1985 1.5 11.2625 1.5C9.44655 1.5 7.98455 2.974 7.98455 4.781C7.98455 5.041 8.00655 5.291 8.06055 5.529C5.33355 5.396 2.92055 4.089 1.29955 2.098C1.01655 2.589 0.850547 3.151 0.850547 3.756C0.850547 4.892 1.43555 5.899 2.30755 6.482C1.78055 6.472 1.26355 6.319 0.825547 6.078C0.825547 6.088 0.825547 6.101 0.825547 6.114C0.825547 7.708 1.96255 9.032 3.45355 9.337C3.18655 9.41 2.89555 9.445 2.59355 9.445C2.38355 9.445 2.17155 9.433 1.97255 9.389C2.39755 10.688 3.60355 11.643 5.03755 11.674C3.92155 12.547 2.50455 13.073 0.970547 13.073C0.701547 13.073 0.443547 13.061 0.185547 13.028C1.63855 13.965 3.36055 14.5 5.21755 14.5C11.2535 14.5 14.5535 9.5 14.5535 5.166C14.5535 5.021 14.5485 4.881 14.5415 4.742C15.1925 4.28 15.7395 3.703 16.1855 3.039Z" fill="white"/>
</g>
<defs>
<clipPath id="clip0_4084_372">
<rect width="16" height="16" fill="white" transform="translate(0.185547)"/>
</clipPath>
</defs>
</svg>
