<svg width="15" height="14" viewBox="0 0 15 14" fill="none" xmlns="http://www.w3.org/2000/svg">
<g clip-path="url(#clip0_4084_378)">
<path d="M14.1813 13.9998V13.9992H14.1848V8.86472C14.1848 6.35289 13.6441 4.41797 10.7076 4.41797C9.29589 4.41797 8.34855 5.19264 7.9618 5.92705H7.92097V4.65247H5.13672V13.9992H8.03589V9.37105C8.03589 8.15247 8.26689 6.97414 9.77597 6.97414C11.2629 6.97414 11.2851 8.3648 11.2851 9.44922V13.9998H14.1813Z" fill="white"/>
<path d="M0.416016 4.65234H3.31868V13.9991H0.416016V4.65234Z" fill="white"/>
<path d="M1.86671 0C0.93863 0 0.185547 0.753083 0.185547 1.68117C0.185547 2.60925 0.93863 3.37808 1.86671 3.37808C2.7948 3.37808 3.54788 2.60925 3.54788 1.68117C3.5473 0.753083 2.79421 0 1.86671 0V0Z" fill="white"/>
</g>
<defs>
<clipPath id="clip0_4084_378">
<rect width="14" height="14" fill="white" transform="translate(0.185547)"/>
</clipPath>
</defs>
</svg>
