<svg width="455" height="642" viewBox="0 0 455 642" fill="none" xmlns="http://www.w3.org/2000/svg">
<path d="M-4.05473 38.2692L-29 1.03073L-1.34328 1L23.602 38.2692H-4.05473Z" stroke="url(#paint0_linear_4090_1279)"/>
<path d="M77.8308 1H51.801L-29 115H0.283581L77.8308 1Z" stroke="url(#paint1_linear_4090_1279)"/>
<path d="M51.801 115L27.9403 78.2788H54.5124L80 115H51.801Z" stroke="url(#paint2_linear_4090_1279)"/>
<path d="M119.174 42.9423L94 6.03046L121.91 6L147.085 42.9423H119.174Z" stroke="url(#paint3_linear_4090_1279)"/>
<path d="M201.811 6H175.542L94 119H123.552L201.811 6Z" stroke="url(#paint4_linear_4090_1279)"/>
<path d="M175.542 119L151.463 82.601H178.279L204 119H175.542Z" stroke="url(#paint5_linear_4090_1279)"/>
<path d="M246.716 172.269L222 135.031L249.403 135L274.119 172.269H246.716Z" stroke="url(#paint6_linear_4090_1279)"/>
<path d="M327.851 135H302.06L222 249H251.015L327.851 135Z" stroke="url(#paint7_linear_4090_1279)"/>
<path d="M302.06 249L278.418 212.279H304.746L330 249H302.06Z" stroke="url(#paint8_linear_4090_1279)"/>
<path d="M122.945 172.269L98 135.031L125.657 135L150.602 172.269H122.945Z" stroke="url(#paint9_linear_4090_1279)"/>
<path d="M204.831 135H178.801L98 249H127.284L204.831 135Z" stroke="url(#paint10_linear_4090_1279)"/>
<path d="M178.801 249L154.94 212.279H181.512L207 249H178.801Z" stroke="url(#paint11_linear_4090_1279)"/>
<path d="M-4.05473 172.269L-29 135.031L-1.34328 135L23.602 172.269H-4.05473Z" stroke="url(#paint12_linear_4090_1279)"/>
<path d="M77.8308 135H51.801L-29 249H0.283581L77.8308 135Z" stroke="url(#paint13_linear_4090_1279)"/>
<path d="M51.801 249L27.9403 212.279H54.5124L80 249H51.801Z" stroke="url(#paint14_linear_4090_1279)"/>
<path d="M122.945 305.269L98 268.031L125.657 268L150.602 305.269H122.945Z" stroke="url(#paint15_linear_4090_1279)"/>
<path d="M204.831 268H178.801L98 382H127.284L204.831 268Z" stroke="url(#paint16_linear_4090_1279)"/>
<path d="M178.801 382L154.94 345.279H181.512L207 382H178.801Z" stroke="url(#paint17_linear_4090_1279)"/>
<path d="M246.716 305.269L222 268.031L249.403 268L274.119 305.269H246.716Z" stroke="url(#paint18_linear_4090_1279)"/>
<path d="M327.851 268H302.06L222 382H251.015L327.851 268Z" stroke="url(#paint19_linear_4090_1279)"/>
<path d="M302.06 382L278.418 345.279H304.746L330 382H302.06Z" stroke="url(#paint20_linear_4090_1279)"/>
<path d="M246.716 438.269L222 401.031L249.403 401L274.119 438.269H246.716Z" stroke="url(#paint21_linear_4090_1279)"/>
<path d="M327.851 401H302.06L222 515H251.015L327.851 401Z" stroke="url(#paint22_linear_4090_1279)"/>
<path d="M302.06 515L278.418 478.279H304.746L330 515H302.06Z" stroke="url(#paint23_linear_4090_1279)"/>
<path d="M43.9453 435.269L19 398.031L46.6567 398L71.602 435.269H43.9453Z" stroke="url(#paint24_linear_4090_1279)"/>
<path d="M125.831 398H99.801L19 512H48.2836L125.831 398Z" stroke="url(#paint25_linear_4090_1279)"/>
<path d="M99.801 512L75.9403 475.279H102.512L128 512H99.801Z" stroke="url(#paint26_linear_4090_1279)"/>
<path d="M369.945 305.269L345 268.031L372.657 268L397.602 305.269H369.945Z" stroke="url(#paint27_linear_4090_1279)"/>
<path d="M451.831 268H425.801L345 382H374.284L451.831 268Z" stroke="url(#paint28_linear_4090_1279)"/>
<path d="M425.801 382L401.94 345.279H428.512L454 382H425.801Z" stroke="url(#paint29_linear_4090_1279)"/>
<path d="M246.716 305.269L222 268.031L249.403 268L274.119 305.269H246.716Z" stroke="url(#paint30_linear_4090_1279)"/>
<path d="M327.851 268H302.06L222 382H251.015L327.851 268Z" stroke="url(#paint31_linear_4090_1279)"/>
<path d="M302.06 382L278.418 345.279H304.746L330 382H302.06Z" stroke="url(#paint32_linear_4090_1279)"/>
<path d="M246.716 438.269L222 401.031L249.403 401L274.119 438.269H246.716Z" stroke="url(#paint33_linear_4090_1279)"/>
<path d="M327.851 401H302.06L222 515H251.015L327.851 401Z" stroke="url(#paint34_linear_4090_1279)"/>
<path d="M302.06 515L278.418 478.279H304.746L330 515H302.06Z" stroke="url(#paint35_linear_4090_1279)"/>
<path d="M246.716 563.596L222 526.031L249.403 526L274.119 563.596H246.716Z" stroke="url(#paint36_linear_4090_1279)"/>
<path d="M327.851 526H302.06L222 641H251.015L327.851 526Z" stroke="url(#paint37_linear_4090_1279)"/>
<path d="M302.06 641L278.418 603.957H304.746L330 641H302.06Z" stroke="url(#paint38_linear_4090_1279)"/>
<path d="M122.945 563.596L98 526.031L125.657 526L150.602 563.596H122.945Z" stroke="url(#paint39_linear_4090_1279)"/>
<path d="M204.831 526H178.801L98 641H127.284L204.831 526Z" stroke="url(#paint40_linear_4090_1279)"/>
<path d="M178.801 641L154.94 603.957H181.512L207 641H178.801Z" stroke="url(#paint41_linear_4090_1279)"/>
<path d="M-11.0547 563.596L-36 526.031L-8.34328 526L16.602 563.596H-11.0547Z" stroke="url(#paint42_linear_4090_1279)"/>
<path d="M70.8308 526H44.801L-36 641H-6.71642L70.8308 526Z" stroke="url(#paint43_linear_4090_1279)"/>
<path d="M44.801 641L20.9403 603.957H47.5124L73 641H44.801Z" stroke="url(#paint44_linear_4090_1279)"/>
<path d="M43.9453 435.269L19 398.031L46.6567 398L71.602 435.269H43.9453Z" stroke="url(#paint45_linear_4090_1279)"/>
<path d="M125.831 398H99.801L19 512H48.2836L125.831 398Z" stroke="url(#paint46_linear_4090_1279)"/>
<path d="M99.801 512L75.9403 475.279H102.512L128 512H99.801Z" stroke="url(#paint47_linear_4090_1279)"/>
<defs>
<linearGradient id="paint0_linear_4090_1279" x1="-27.987" y1="0.999979" x2="98.2284" y2="26.4961" gradientUnits="userSpaceOnUse">
<stop stop-color="#8258C8"/>
<stop offset="1" stop-color="#2C84C8"/>
</linearGradient>
<linearGradient id="paint1_linear_4090_1279" x1="-27.987" y1="0.999979" x2="98.2284" y2="26.4961" gradientUnits="userSpaceOnUse">
<stop stop-color="#8258C8"/>
<stop offset="1" stop-color="#2C84C8"/>
</linearGradient>
<linearGradient id="paint2_linear_4090_1279" x1="-27.987" y1="0.999979" x2="98.2284" y2="26.4961" gradientUnits="userSpaceOnUse">
<stop stop-color="#8258C8"/>
<stop offset="1" stop-color="#2C84C8"/>
</linearGradient>
<linearGradient id="paint3_linear_4090_1279" x1="95.0223" y1="5.99998" x2="222.213" y2="32.1584" gradientUnits="userSpaceOnUse">
<stop stop-color="#8258C8"/>
<stop offset="1" stop-color="#2C84C8"/>
</linearGradient>
<linearGradient id="paint4_linear_4090_1279" x1="95.0223" y1="5.99998" x2="222.213" y2="32.1584" gradientUnits="userSpaceOnUse">
<stop stop-color="#8258C8"/>
<stop offset="1" stop-color="#2C84C8"/>
</linearGradient>
<linearGradient id="paint5_linear_4090_1279" x1="95.0223" y1="5.99998" x2="222.213" y2="32.1584" gradientUnits="userSpaceOnUse">
<stop stop-color="#8258C8"/>
<stop offset="1" stop-color="#2C84C8"/>
</linearGradient>
<linearGradient id="paint6_linear_4090_1279" x1="223.004" y1="135" x2="348.151" y2="160.048" gradientUnits="userSpaceOnUse">
<stop stop-color="#8258C8"/>
<stop offset="1" stop-color="#2C84C8"/>
</linearGradient>
<linearGradient id="paint7_linear_4090_1279" x1="223.004" y1="135" x2="348.151" y2="160.048" gradientUnits="userSpaceOnUse">
<stop stop-color="#8258C8"/>
<stop offset="1" stop-color="#2C84C8"/>
</linearGradient>
<linearGradient id="paint8_linear_4090_1279" x1="223.004" y1="135" x2="348.151" y2="160.048" gradientUnits="userSpaceOnUse">
<stop stop-color="#8258C8"/>
<stop offset="1" stop-color="#2C84C8"/>
</linearGradient>
<linearGradient id="paint9_linear_4090_1279" x1="99.013" y1="135" x2="225.228" y2="160.496" gradientUnits="userSpaceOnUse">
<stop stop-color="#8258C8"/>
<stop offset="1" stop-color="#2C84C8"/>
</linearGradient>
<linearGradient id="paint10_linear_4090_1279" x1="99.013" y1="135" x2="225.228" y2="160.496" gradientUnits="userSpaceOnUse">
<stop stop-color="#8258C8"/>
<stop offset="1" stop-color="#2C84C8"/>
</linearGradient>
<linearGradient id="paint11_linear_4090_1279" x1="99.013" y1="135" x2="225.228" y2="160.496" gradientUnits="userSpaceOnUse">
<stop stop-color="#8258C8"/>
<stop offset="1" stop-color="#2C84C8"/>
</linearGradient>
<linearGradient id="paint12_linear_4090_1279" x1="-27.987" y1="135" x2="98.2284" y2="160.496" gradientUnits="userSpaceOnUse">
<stop stop-color="#8258C8"/>
<stop offset="1" stop-color="#2C84C8"/>
</linearGradient>
<linearGradient id="paint13_linear_4090_1279" x1="-27.987" y1="135" x2="98.2284" y2="160.496" gradientUnits="userSpaceOnUse">
<stop stop-color="#8258C8"/>
<stop offset="1" stop-color="#2C84C8"/>
</linearGradient>
<linearGradient id="paint14_linear_4090_1279" x1="-27.987" y1="135" x2="98.2284" y2="160.496" gradientUnits="userSpaceOnUse">
<stop stop-color="#8258C8"/>
<stop offset="1" stop-color="#2C84C8"/>
</linearGradient>
<linearGradient id="paint15_linear_4090_1279" x1="99.013" y1="268" x2="225.228" y2="293.496" gradientUnits="userSpaceOnUse">
<stop stop-color="#8258C8"/>
<stop offset="1" stop-color="#2C84C8"/>
</linearGradient>
<linearGradient id="paint16_linear_4090_1279" x1="99.013" y1="268" x2="225.228" y2="293.496" gradientUnits="userSpaceOnUse">
<stop stop-color="#8258C8"/>
<stop offset="1" stop-color="#2C84C8"/>
</linearGradient>
<linearGradient id="paint17_linear_4090_1279" x1="99.013" y1="268" x2="225.228" y2="293.496" gradientUnits="userSpaceOnUse">
<stop stop-color="#8258C8"/>
<stop offset="1" stop-color="#2C84C8"/>
</linearGradient>
<linearGradient id="paint18_linear_4090_1279" x1="223.004" y1="268" x2="348.151" y2="293.048" gradientUnits="userSpaceOnUse">
<stop stop-color="#8258C8"/>
<stop offset="1" stop-color="#2C84C8"/>
</linearGradient>
<linearGradient id="paint19_linear_4090_1279" x1="223.004" y1="268" x2="348.151" y2="293.048" gradientUnits="userSpaceOnUse">
<stop stop-color="#8258C8"/>
<stop offset="1" stop-color="#2C84C8"/>
</linearGradient>
<linearGradient id="paint20_linear_4090_1279" x1="223.004" y1="268" x2="348.151" y2="293.048" gradientUnits="userSpaceOnUse">
<stop stop-color="#8258C8"/>
<stop offset="1" stop-color="#2C84C8"/>
</linearGradient>
<linearGradient id="paint21_linear_4090_1279" x1="223.004" y1="401" x2="348.151" y2="426.048" gradientUnits="userSpaceOnUse">
<stop stop-color="#8258C8"/>
<stop offset="1" stop-color="#2C84C8"/>
</linearGradient>
<linearGradient id="paint22_linear_4090_1279" x1="223.004" y1="401" x2="348.151" y2="426.048" gradientUnits="userSpaceOnUse">
<stop stop-color="#8258C8"/>
<stop offset="1" stop-color="#2C84C8"/>
</linearGradient>
<linearGradient id="paint23_linear_4090_1279" x1="223.004" y1="401" x2="348.151" y2="426.048" gradientUnits="userSpaceOnUse">
<stop stop-color="#8258C8"/>
<stop offset="1" stop-color="#2C84C8"/>
</linearGradient>
<linearGradient id="paint24_linear_4090_1279" x1="20.013" y1="398" x2="146.228" y2="423.496" gradientUnits="userSpaceOnUse">
<stop stop-color="#8258C8"/>
<stop offset="1" stop-color="#2C84C8"/>
</linearGradient>
<linearGradient id="paint25_linear_4090_1279" x1="20.013" y1="398" x2="146.228" y2="423.496" gradientUnits="userSpaceOnUse">
<stop stop-color="#8258C8"/>
<stop offset="1" stop-color="#2C84C8"/>
</linearGradient>
<linearGradient id="paint26_linear_4090_1279" x1="20.013" y1="398" x2="146.228" y2="423.496" gradientUnits="userSpaceOnUse">
<stop stop-color="#8258C8"/>
<stop offset="1" stop-color="#2C84C8"/>
</linearGradient>
<linearGradient id="paint27_linear_4090_1279" x1="346.013" y1="268" x2="472.228" y2="293.496" gradientUnits="userSpaceOnUse">
<stop stop-color="#8258C8"/>
<stop offset="1" stop-color="#2C84C8"/>
</linearGradient>
<linearGradient id="paint28_linear_4090_1279" x1="346.013" y1="268" x2="472.228" y2="293.496" gradientUnits="userSpaceOnUse">
<stop stop-color="#8258C8"/>
<stop offset="1" stop-color="#2C84C8"/>
</linearGradient>
<linearGradient id="paint29_linear_4090_1279" x1="346.013" y1="268" x2="472.228" y2="293.496" gradientUnits="userSpaceOnUse">
<stop stop-color="#8258C8"/>
<stop offset="1" stop-color="#2C84C8"/>
</linearGradient>
<linearGradient id="paint30_linear_4090_1279" x1="223.004" y1="268" x2="348.151" y2="293.048" gradientUnits="userSpaceOnUse">
<stop stop-color="#8258C8"/>
<stop offset="1" stop-color="#2C84C8"/>
</linearGradient>
<linearGradient id="paint31_linear_4090_1279" x1="223.004" y1="268" x2="348.151" y2="293.048" gradientUnits="userSpaceOnUse">
<stop stop-color="#8258C8"/>
<stop offset="1" stop-color="#2C84C8"/>
</linearGradient>
<linearGradient id="paint32_linear_4090_1279" x1="223.004" y1="268" x2="348.151" y2="293.048" gradientUnits="userSpaceOnUse">
<stop stop-color="#8258C8"/>
<stop offset="1" stop-color="#2C84C8"/>
</linearGradient>
<linearGradient id="paint33_linear_4090_1279" x1="223.004" y1="401" x2="348.151" y2="426.048" gradientUnits="userSpaceOnUse">
<stop stop-color="#8258C8"/>
<stop offset="1" stop-color="#2C84C8"/>
</linearGradient>
<linearGradient id="paint34_linear_4090_1279" x1="223.004" y1="401" x2="348.151" y2="426.048" gradientUnits="userSpaceOnUse">
<stop stop-color="#8258C8"/>
<stop offset="1" stop-color="#2C84C8"/>
</linearGradient>
<linearGradient id="paint35_linear_4090_1279" x1="223.004" y1="401" x2="348.151" y2="426.048" gradientUnits="userSpaceOnUse">
<stop stop-color="#8258C8"/>
<stop offset="1" stop-color="#2C84C8"/>
</linearGradient>
<linearGradient id="paint36_linear_4090_1279" x1="223.004" y1="526" x2="348.234" y2="550.847" gradientUnits="userSpaceOnUse">
<stop stop-color="#8258C8"/>
<stop offset="1" stop-color="#2C84C8"/>
</linearGradient>
<linearGradient id="paint37_linear_4090_1279" x1="223.004" y1="526" x2="348.234" y2="550.847" gradientUnits="userSpaceOnUse">
<stop stop-color="#8258C8"/>
<stop offset="1" stop-color="#2C84C8"/>
</linearGradient>
<linearGradient id="paint38_linear_4090_1279" x1="223.004" y1="526" x2="348.234" y2="550.847" gradientUnits="userSpaceOnUse">
<stop stop-color="#8258C8"/>
<stop offset="1" stop-color="#2C84C8"/>
</linearGradient>
<linearGradient id="paint39_linear_4090_1279" x1="99.013" y1="526" x2="225.314" y2="551.292" gradientUnits="userSpaceOnUse">
<stop stop-color="#8258C8"/>
<stop offset="1" stop-color="#2C84C8"/>
</linearGradient>
<linearGradient id="paint40_linear_4090_1279" x1="99.013" y1="526" x2="225.314" y2="551.292" gradientUnits="userSpaceOnUse">
<stop stop-color="#8258C8"/>
<stop offset="1" stop-color="#2C84C8"/>
</linearGradient>
<linearGradient id="paint41_linear_4090_1279" x1="99.013" y1="526" x2="225.314" y2="551.292" gradientUnits="userSpaceOnUse">
<stop stop-color="#8258C8"/>
<stop offset="1" stop-color="#2C84C8"/>
</linearGradient>
<linearGradient id="paint42_linear_4090_1279" x1="-34.987" y1="526" x2="91.3141" y2="551.292" gradientUnits="userSpaceOnUse">
<stop stop-color="#8258C8"/>
<stop offset="1" stop-color="#2C84C8"/>
</linearGradient>
<linearGradient id="paint43_linear_4090_1279" x1="-34.987" y1="526" x2="91.3141" y2="551.292" gradientUnits="userSpaceOnUse">
<stop stop-color="#8258C8"/>
<stop offset="1" stop-color="#2C84C8"/>
</linearGradient>
<linearGradient id="paint44_linear_4090_1279" x1="-34.987" y1="526" x2="91.3141" y2="551.292" gradientUnits="userSpaceOnUse">
<stop stop-color="#8258C8"/>
<stop offset="1" stop-color="#2C84C8"/>
</linearGradient>
<linearGradient id="paint45_linear_4090_1279" x1="20.013" y1="398" x2="146.228" y2="423.496" gradientUnits="userSpaceOnUse">
<stop stop-color="#8258C8"/>
<stop offset="1" stop-color="#2C84C8"/>
</linearGradient>
<linearGradient id="paint46_linear_4090_1279" x1="20.013" y1="398" x2="146.228" y2="423.496" gradientUnits="userSpaceOnUse">
<stop stop-color="#8258C8"/>
<stop offset="1" stop-color="#2C84C8"/>
</linearGradient>
<linearGradient id="paint47_linear_4090_1279" x1="20.013" y1="398" x2="146.228" y2="423.496" gradientUnits="userSpaceOnUse">
<stop stop-color="#8258C8"/>
<stop offset="1" stop-color="#2C84C8"/>
</linearGradient>
</defs>
</svg>
